<svg width="1440" height="812" viewBox="0 0 1440 812" fill="none" xmlns="http://www.w3.org/2000/svg">
<rect width="1440" height="812" fill="#F2F2F2"/>
<path d="M200.5 386C200.5 384.067 202.067 382.5 204 382.5H262C263.933 382.5 265.5 384.067 265.5 386V426C265.5 427.933 263.933 429.5 262 429.5H204C202.067 429.5 200.5 427.933 200.5 426V386Z" fill="white"/>
<path d="M200.5 386C200.5 384.067 202.067 382.5 204 382.5H262C263.933 382.5 265.5 384.067 265.5 386V426C265.5 427.933 263.933 429.5 262 429.5H204C202.067 429.5 200.5 427.933 200.5 426V386Z" stroke="#E5E5E5"/>
<g filter="url(#filter0_d_360_10604)">
<path d="M216.904 411.563C216.957 411.802 217.082 412.019 217.262 412.185C217.442 412.351 217.669 412.457 217.911 412.491C218.153 412.524 218.4 412.483 218.619 412.372C218.837 412.261 219.016 412.087 219.132 411.871L221.222 408.778L226.129 413.685C226.228 413.784 226.346 413.863 226.475 413.916C226.605 413.97 226.743 413.998 226.883 413.998C227.024 413.998 227.162 413.97 227.292 413.916C227.421 413.863 227.539 413.784 227.638 413.685L228.685 412.638C228.784 412.539 228.863 412.421 228.916 412.292C228.97 412.162 228.998 412.024 228.998 411.883C228.998 411.743 228.97 411.605 228.916 411.475C228.863 411.346 228.784 411.228 228.685 411.129L223.778 406.222L226.891 404.132C227.107 404.016 227.281 403.837 227.392 403.618C227.503 403.4 227.544 403.153 227.511 402.911C227.477 402.668 227.37 402.442 227.204 402.262C227.038 402.082 226.821 401.957 226.582 401.904L213 398L216.904 411.563Z" fill="white"/>
<path d="M216.904 411.563C216.957 411.802 217.082 412.019 217.262 412.185C217.442 412.351 217.669 412.457 217.911 412.491C218.153 412.524 218.4 412.483 218.619 412.372C218.837 412.261 219.016 412.087 219.132 411.871L221.222 408.778L226.129 413.685C226.228 413.784 226.346 413.863 226.475 413.916C226.605 413.97 226.743 413.998 226.883 413.998C227.024 413.998 227.162 413.97 227.292 413.916C227.421 413.863 227.539 413.784 227.638 413.685L228.685 412.638C228.784 412.539 228.863 412.421 228.916 412.292C228.97 412.162 228.998 412.024 228.998 411.883C228.998 411.743 228.97 411.605 228.916 411.475C228.863 411.346 228.784 411.228 228.685 411.129L223.778 406.222L226.891 404.132C227.107 404.016 227.281 403.837 227.392 403.618C227.503 403.4 227.544 403.153 227.511 402.911C227.477 402.668 227.37 402.442 227.204 402.262C227.038 402.082 226.821 401.957 226.582 401.904L213 398L216.904 411.563Z" stroke="black" stroke-width="2" stroke-linecap="round" stroke-linejoin="round"/>
</g>
<g opacity="0.5">
<path d="M240 404L245 409L250 404H240Z" fill="#555555"/>
</g>
<path d="M274.5 386C274.5 384.067 276.067 382.5 278 382.5H1112C1113.93 382.5 1115.5 384.067 1115.5 386V426C1115.5 427.933 1113.93 429.5 1112 429.5H278C276.067 429.5 274.5 427.933 274.5 426V386Z" fill="white"/>
<path d="M274.5 386C274.5 384.067 276.067 382.5 278 382.5H1112C1113.93 382.5 1115.5 384.067 1115.5 386V426C1115.5 427.933 1113.93 429.5 1112 429.5H278C276.067 429.5 274.5 427.933 274.5 426V386Z" stroke="#E5E5E5"/>
<rect x="282" y="390" width="826" height="32" rx="4" fill="#F0F0F0" fill-opacity="0.6"/>
<path d="M292.247 406.406V411H291.074V400.818H292.247V404.557H292.347C292.526 404.162 292.794 403.849 293.152 403.617C293.513 403.382 293.994 403.264 294.594 403.264C295.114 403.264 295.57 403.369 295.961 403.577C296.352 403.783 296.655 404.099 296.871 404.527C297.089 404.951 297.199 405.491 297.199 406.148V411H296.026V406.227C296.026 405.621 295.868 405.152 295.553 404.82C295.242 404.486 294.809 404.318 294.256 404.318C293.871 404.318 293.527 404.399 293.222 404.562C292.92 404.724 292.681 404.961 292.506 405.273C292.333 405.584 292.247 405.962 292.247 406.406ZM302.666 403.364V404.358H298.709V403.364H302.666ZM299.862 401.534H301.036V408.812C301.036 409.144 301.084 409.393 301.18 409.558C301.279 409.721 301.405 409.83 301.558 409.886C301.713 409.939 301.878 409.966 302.05 409.966C302.179 409.966 302.285 409.959 302.368 409.946C302.451 409.929 302.517 409.916 302.567 409.906L302.806 410.96C302.726 410.99 302.615 411.02 302.472 411.05C302.33 411.083 302.149 411.099 301.931 411.099C301.599 411.099 301.274 411.028 300.956 410.886C300.641 410.743 300.379 410.526 300.171 410.234C299.965 409.943 299.862 409.575 299.862 409.131V401.534ZM307.752 403.364V404.358H303.795V403.364H307.752ZM304.948 401.534H306.122V408.812C306.122 409.144 306.17 409.393 306.266 409.558C306.365 409.721 306.491 409.83 306.644 409.886C306.799 409.939 306.963 409.966 307.136 409.966C307.265 409.966 307.371 409.959 307.454 409.946C307.537 409.929 307.603 409.916 307.653 409.906L307.892 410.96C307.812 410.99 307.701 411.02 307.558 411.05C307.416 411.083 307.235 411.099 307.017 411.099C306.685 411.099 306.36 411.028 306.042 410.886C305.727 410.743 305.465 410.526 305.257 410.234C305.051 409.943 304.948 409.575 304.948 409.131V401.534ZM309.517 413.864V403.364H310.651V404.577H310.79C310.876 404.444 310.995 404.275 311.148 404.07C311.304 403.861 311.526 403.675 311.814 403.513C312.106 403.347 312.5 403.264 312.997 403.264C313.64 403.264 314.207 403.425 314.698 403.746C315.188 404.068 315.571 404.524 315.846 405.114C316.121 405.704 316.259 406.4 316.259 407.202C316.259 408.01 316.121 408.711 315.846 409.305C315.571 409.895 315.19 410.352 314.703 410.677C314.215 410.998 313.654 411.159 313.017 411.159C312.527 411.159 312.134 411.078 311.839 410.915C311.544 410.75 311.317 410.562 311.158 410.354C310.999 410.142 310.876 409.966 310.79 409.827H310.691V413.864H309.517ZM310.671 407.182C310.671 407.759 310.755 408.267 310.924 408.708C311.093 409.146 311.34 409.489 311.665 409.737C311.99 409.982 312.387 410.105 312.858 410.105C313.349 410.105 313.758 409.976 314.086 409.717C314.418 409.455 314.666 409.104 314.832 408.663C315.001 408.219 315.085 407.725 315.085 407.182C315.085 406.645 315.003 406.161 314.837 405.73C314.674 405.296 314.427 404.953 314.096 404.701C313.768 404.446 313.355 404.318 312.858 404.318C312.381 404.318 311.98 404.439 311.655 404.681C311.33 404.92 311.085 405.254 310.919 405.685C310.753 406.113 310.671 406.612 310.671 407.182ZM323.458 405.074L322.404 405.372C322.337 405.196 322.24 405.026 322.11 404.86C321.984 404.691 321.812 404.552 321.593 404.442C321.374 404.333 321.094 404.278 320.753 404.278C320.286 404.278 319.896 404.386 319.585 404.602C319.276 404.814 319.122 405.084 319.122 405.412C319.122 405.704 319.228 405.934 319.441 406.103C319.653 406.272 319.984 406.413 320.435 406.526L321.568 406.804C322.251 406.97 322.76 407.223 323.095 407.565C323.429 407.903 323.597 408.339 323.597 408.872C323.597 409.31 323.471 409.701 323.219 410.045C322.97 410.39 322.622 410.662 322.175 410.861C321.727 411.06 321.207 411.159 320.614 411.159C319.835 411.159 319.19 410.99 318.68 410.652C318.169 410.314 317.846 409.82 317.71 409.17L318.824 408.892C318.93 409.303 319.131 409.611 319.426 409.817C319.724 410.022 320.113 410.125 320.594 410.125C321.141 410.125 321.575 410.009 321.896 409.777C322.221 409.542 322.384 409.26 322.384 408.932C322.384 408.667 322.291 408.445 322.105 408.266C321.92 408.083 321.635 407.947 321.25 407.858L319.977 407.56C319.278 407.394 318.764 407.137 318.436 406.789C318.111 406.438 317.949 405.999 317.949 405.472C317.949 405.041 318.07 404.66 318.312 404.328C318.557 403.997 318.89 403.737 319.311 403.548C319.735 403.359 320.216 403.264 320.753 403.264C321.509 403.264 322.102 403.43 322.533 403.761C322.967 404.093 323.275 404.53 323.458 405.074ZM326.218 411.08C325.973 411.08 325.762 410.992 325.587 410.816C325.411 410.64 325.323 410.43 325.323 410.185C325.323 409.939 325.411 409.729 325.587 409.553C325.762 409.378 325.973 409.29 326.218 409.29C326.463 409.29 326.674 409.378 326.849 409.553C327.025 409.729 327.113 409.939 327.113 410.185C327.113 410.347 327.071 410.496 326.989 410.632C326.909 410.768 326.801 410.877 326.665 410.96C326.533 411.04 326.384 411.08 326.218 411.08ZM326.218 405.412C325.973 405.412 325.762 405.324 325.587 405.148C325.411 404.973 325.323 404.762 325.323 404.517C325.323 404.272 325.411 404.061 325.587 403.886C325.762 403.71 325.973 403.622 326.218 403.622C326.463 403.622 326.674 403.71 326.849 403.886C327.025 404.061 327.113 404.272 327.113 404.517C327.113 404.679 327.071 404.829 326.989 404.964C326.909 405.1 326.801 405.21 326.665 405.293C326.533 405.372 326.384 405.412 326.218 405.412ZM332.818 400.341L329.537 412.531H328.463L331.744 400.341H332.818ZM337.808 400.341L334.527 412.531H333.453L336.734 400.341H337.808ZM340.929 411L338.602 403.364H339.835L341.486 409.21H341.565L343.196 403.364H344.449L346.06 409.19H346.139L347.79 403.364H349.023L346.696 411H345.543L343.872 405.134H343.753L342.082 411H340.929ZM352.304 411L349.977 403.364H351.21L352.861 409.21H352.94L354.571 403.364H355.824L357.435 409.19H357.514L359.165 403.364H360.398L358.071 411H356.918L355.247 405.134H355.128L353.457 411H352.304ZM363.679 411L361.352 403.364H362.585L364.236 409.21H364.315L365.946 403.364H367.199L368.81 409.19H368.889L370.54 403.364H371.773L369.446 411H368.293L366.622 405.134H366.503L364.832 411H363.679ZM373.14 411.08C372.895 411.08 372.684 410.992 372.509 410.816C372.333 410.64 372.245 410.43 372.245 410.185C372.245 409.939 372.333 409.729 372.509 409.553C372.684 409.378 372.895 409.29 373.14 409.29C373.385 409.29 373.596 409.378 373.771 409.553C373.947 409.729 374.035 409.939 374.035 410.185C374.035 410.347 373.993 410.496 373.911 410.632C373.831 410.768 373.723 410.877 373.587 410.96C373.455 411.04 373.306 411.08 373.14 411.08ZM379.541 403.364V404.358H375.424V403.364H379.541ZM376.657 411V402.31C376.657 401.872 376.76 401.508 376.966 401.216C377.171 400.924 377.438 400.705 377.766 400.56C378.094 400.414 378.44 400.341 378.805 400.341C379.093 400.341 379.329 400.364 379.511 400.411C379.693 400.457 379.829 400.5 379.919 400.54L379.581 401.554C379.521 401.534 379.438 401.509 379.332 401.479C379.229 401.45 379.093 401.435 378.924 401.435C378.537 401.435 378.257 401.532 378.084 401.728C377.915 401.924 377.831 402.21 377.831 402.588V411H376.657ZM381.185 411V403.364H382.358V411H381.185ZM381.782 402.091C381.553 402.091 381.356 402.013 381.19 401.857C381.028 401.701 380.947 401.514 380.947 401.295C380.947 401.077 381.028 400.889 381.19 400.734C381.356 400.578 381.553 400.5 381.782 400.5C382.01 400.5 382.206 400.578 382.368 400.734C382.534 400.889 382.617 401.077 382.617 401.295C382.617 401.514 382.534 401.701 382.368 401.857C382.206 402.013 382.01 402.091 381.782 402.091ZM387.59 414.023C387.023 414.023 386.536 413.95 386.128 413.804C385.721 413.661 385.381 413.473 385.109 413.237C384.841 413.005 384.627 412.757 384.468 412.491L385.402 411.835C385.508 411.974 385.643 412.134 385.805 412.312C385.967 412.495 386.19 412.652 386.471 412.785C386.756 412.921 387.129 412.989 387.59 412.989C388.206 412.989 388.715 412.839 389.116 412.541C389.517 412.243 389.718 411.776 389.718 411.139V409.588H389.618C389.532 409.727 389.409 409.9 389.25 410.105C389.095 410.307 388.869 410.488 388.574 410.647C388.283 410.803 387.888 410.881 387.391 410.881C386.775 410.881 386.221 410.735 385.73 410.443C385.243 410.152 384.857 409.727 384.572 409.17C384.29 408.614 384.15 407.937 384.15 407.142C384.15 406.36 384.287 405.679 384.562 405.099C384.837 404.515 385.22 404.065 385.711 403.746C386.201 403.425 386.768 403.264 387.411 403.264C387.908 403.264 388.302 403.347 388.594 403.513C388.889 403.675 389.114 403.861 389.27 404.07C389.429 404.275 389.552 404.444 389.638 404.577H389.757V403.364H390.891V411.219C390.891 411.875 390.742 412.409 390.444 412.82C390.149 413.234 389.751 413.537 389.25 413.729C388.753 413.925 388.2 414.023 387.59 414.023ZM387.55 409.827C388.021 409.827 388.418 409.719 388.743 409.504C389.068 409.288 389.315 408.978 389.484 408.574C389.653 408.17 389.738 407.686 389.738 407.122C389.738 406.572 389.655 406.086 389.489 405.665C389.323 405.245 389.078 404.915 388.753 404.676C388.428 404.437 388.027 404.318 387.55 404.318C387.053 404.318 386.639 404.444 386.307 404.696C385.979 404.948 385.732 405.286 385.566 405.71C385.404 406.134 385.323 406.605 385.323 407.122C385.323 407.652 385.406 408.121 385.571 408.529C385.74 408.933 385.989 409.252 386.317 409.484C386.649 409.712 387.06 409.827 387.55 409.827ZM393.039 411V403.364H394.172V404.557H394.272C394.431 404.149 394.688 403.833 395.042 403.607C395.397 403.379 395.823 403.264 396.32 403.264C396.824 403.264 397.243 403.379 397.578 403.607C397.916 403.833 398.179 404.149 398.368 404.557H398.448C398.643 404.162 398.937 403.849 399.328 403.617C399.719 403.382 400.188 403.264 400.735 403.264C401.417 403.264 401.976 403.478 402.41 403.906C402.844 404.33 403.061 404.991 403.061 405.889V411H401.888V405.889C401.888 405.326 401.734 404.923 401.426 404.681C401.118 404.439 400.755 404.318 400.337 404.318C399.8 404.318 399.384 404.481 399.089 404.805C398.794 405.127 398.647 405.535 398.647 406.028V411H397.453V405.77C397.453 405.336 397.313 404.986 397.031 404.721C396.749 404.452 396.386 404.318 395.942 404.318C395.637 404.318 395.352 404.399 395.087 404.562C394.825 404.724 394.613 404.95 394.451 405.238C394.292 405.523 394.212 405.853 394.212 406.227V411H393.039ZM407.454 411.179C406.97 411.179 406.531 411.088 406.136 410.906C405.742 410.72 405.429 410.453 405.197 410.105C404.965 409.754 404.849 409.33 404.849 408.832C404.849 408.395 404.935 408.04 405.107 407.768C405.28 407.493 405.51 407.278 405.798 407.122C406.087 406.966 406.405 406.85 406.753 406.774C407.104 406.695 407.457 406.632 407.812 406.585C408.276 406.526 408.652 406.481 408.94 406.451C409.232 406.418 409.444 406.363 409.577 406.287C409.713 406.211 409.781 406.078 409.781 405.889V405.849C409.781 405.359 409.646 404.978 409.378 404.706C409.113 404.434 408.71 404.298 408.17 404.298C407.61 404.298 407.17 404.421 406.852 404.666C406.534 404.911 406.31 405.173 406.181 405.452L405.067 405.054C405.266 404.59 405.531 404.229 405.863 403.97C406.198 403.708 406.562 403.526 406.957 403.423C407.354 403.317 407.746 403.264 408.13 403.264C408.375 403.264 408.657 403.294 408.975 403.354C409.297 403.41 409.607 403.528 409.905 403.707C410.206 403.886 410.457 404.156 410.656 404.517C410.854 404.878 410.954 405.362 410.954 405.969V411H409.781V409.966H409.721C409.641 410.132 409.509 410.309 409.323 410.498C409.138 410.687 408.891 410.848 408.582 410.98C408.274 411.113 407.898 411.179 407.454 411.179ZM407.633 410.125C408.097 410.125 408.488 410.034 408.806 409.852C409.128 409.669 409.37 409.434 409.532 409.146C409.698 408.857 409.781 408.554 409.781 408.236V407.162C409.731 407.222 409.621 407.276 409.452 407.326C409.287 407.372 409.094 407.414 408.876 407.45C408.66 407.483 408.45 407.513 408.244 407.54C408.042 407.563 407.878 407.583 407.752 407.599C407.447 407.639 407.162 407.704 406.897 407.793C406.635 407.879 406.423 408.01 406.261 408.186C406.102 408.358 406.022 408.594 406.022 408.892C406.022 409.3 406.173 409.608 406.474 409.817C406.779 410.022 407.165 410.125 407.633 410.125ZM413.95 411.08C413.705 411.08 413.495 410.992 413.319 410.816C413.143 410.64 413.056 410.43 413.056 410.185C413.056 409.939 413.143 409.729 413.319 409.553C413.495 409.378 413.705 409.29 413.95 409.29C414.196 409.29 414.406 409.378 414.582 409.553C414.758 409.729 414.845 409.939 414.845 410.185C414.845 410.347 414.804 410.496 414.721 410.632C414.642 410.768 414.534 410.877 414.398 410.96C414.265 411.04 414.116 411.08 413.95 411.08ZM420.053 411.159C419.337 411.159 418.721 410.99 418.204 410.652C417.687 410.314 417.289 409.848 417.01 409.255C416.732 408.662 416.593 407.984 416.593 407.222C416.593 406.446 416.735 405.762 417.02 405.168C417.309 404.572 417.71 404.106 418.224 403.771C418.741 403.433 419.344 403.264 420.033 403.264C420.57 403.264 421.054 403.364 421.485 403.562C421.916 403.761 422.269 404.04 422.544 404.398C422.819 404.756 422.99 405.173 423.056 405.651H421.883C421.793 405.303 421.594 404.994 421.286 404.726C420.981 404.454 420.57 404.318 420.053 404.318C419.596 404.318 419.195 404.437 418.85 404.676C418.509 404.911 418.242 405.245 418.05 405.675C417.861 406.103 417.766 406.605 417.766 407.182C417.766 407.772 417.859 408.286 418.045 408.723C418.233 409.161 418.499 409.5 418.84 409.742C419.185 409.984 419.589 410.105 420.053 410.105C420.358 410.105 420.635 410.052 420.883 409.946C421.132 409.84 421.342 409.688 421.515 409.489C421.687 409.29 421.81 409.051 421.883 408.773H423.056C422.99 409.223 422.826 409.629 422.564 409.991C422.305 410.349 421.962 410.634 421.535 410.846C421.11 411.055 420.617 411.159 420.053 411.159ZM427.873 411.159C427.184 411.159 426.579 410.995 426.059 410.667C425.542 410.339 425.137 409.88 424.846 409.29C424.557 408.7 424.413 408.01 424.413 407.222C424.413 406.426 424.557 405.732 424.846 405.138C425.137 404.545 425.542 404.085 426.059 403.756C426.579 403.428 427.184 403.264 427.873 403.264C428.563 403.264 429.166 403.428 429.683 403.756C430.203 404.085 430.608 404.545 430.896 405.138C431.188 405.732 431.334 406.426 431.334 407.222C431.334 408.01 431.188 408.7 430.896 409.29C430.608 409.88 430.203 410.339 429.683 410.667C429.166 410.995 428.563 411.159 427.873 411.159ZM427.873 410.105C428.397 410.105 428.828 409.971 429.166 409.702C429.504 409.434 429.754 409.081 429.917 408.643C430.079 408.206 430.16 407.732 430.16 407.222C430.16 406.711 430.079 406.236 429.917 405.795C429.754 405.354 429.504 404.998 429.166 404.726C428.828 404.454 428.397 404.318 427.873 404.318C427.35 404.318 426.919 404.454 426.581 404.726C426.243 404.998 425.992 405.354 425.83 405.795C425.668 406.236 425.586 406.711 425.586 407.222C425.586 407.732 425.668 408.206 425.83 408.643C425.992 409.081 426.243 409.434 426.581 409.702C426.919 409.971 427.35 410.105 427.873 410.105ZM433.125 411V403.364H434.258V404.557H434.358C434.517 404.149 434.774 403.833 435.128 403.607C435.483 403.379 435.909 403.264 436.406 403.264C436.91 403.264 437.329 403.379 437.664 403.607C438.002 403.833 438.265 404.149 438.454 404.557H438.534C438.729 404.162 439.023 403.849 439.414 403.617C439.805 403.382 440.274 403.264 440.821 403.264C441.503 403.264 442.062 403.478 442.496 403.906C442.93 404.33 443.147 404.991 443.147 405.889V411H441.974V405.889C441.974 405.326 441.82 404.923 441.512 404.681C441.203 404.439 440.841 404.318 440.423 404.318C439.886 404.318 439.47 404.481 439.175 404.805C438.88 405.127 438.733 405.535 438.733 406.028V411H437.539V405.77C437.539 405.336 437.399 404.986 437.117 404.721C436.835 404.452 436.472 404.318 436.028 404.318C435.723 404.318 435.438 404.399 435.173 404.562C434.911 404.724 434.699 404.95 434.537 405.238C434.377 405.523 434.298 405.853 434.298 406.227V411H433.125ZM448.892 400.341L445.611 412.531H444.537L447.818 400.341H448.892ZM453.166 411.159C452.53 411.159 451.968 410.998 451.481 410.677C450.994 410.352 450.613 409.895 450.338 409.305C450.062 408.711 449.925 408.01 449.925 407.202C449.925 406.4 450.062 405.704 450.338 405.114C450.613 404.524 450.995 404.068 451.486 403.746C451.977 403.425 452.543 403.264 453.186 403.264C453.683 403.264 454.076 403.347 454.365 403.513C454.656 403.675 454.878 403.861 455.031 404.07C455.186 404.275 455.307 404.444 455.394 404.577H455.493V400.818H456.666V411H455.533V409.827H455.394C455.307 409.966 455.185 410.142 455.026 410.354C454.867 410.562 454.64 410.75 454.345 410.915C454.05 411.078 453.657 411.159 453.166 411.159ZM453.325 410.105C453.796 410.105 454.194 409.982 454.519 409.737C454.843 409.489 455.09 409.146 455.259 408.708C455.428 408.267 455.513 407.759 455.513 407.182C455.513 406.612 455.43 406.113 455.264 405.685C455.099 405.254 454.853 404.92 454.529 404.681C454.204 404.439 453.803 404.318 453.325 404.318C452.828 404.318 452.414 404.446 452.083 404.701C451.754 404.953 451.508 405.296 451.342 405.73C451.179 406.161 451.098 406.645 451.098 407.182C451.098 407.725 451.181 408.219 451.347 408.663C451.516 409.104 451.764 409.455 452.093 409.717C452.424 409.976 452.835 410.105 453.325 410.105ZM462.18 411.159C461.444 411.159 460.809 410.997 460.276 410.672C459.745 410.344 459.336 409.886 459.048 409.3C458.763 408.71 458.62 408.024 458.62 407.241C458.62 406.459 458.763 405.77 459.048 405.173C459.336 404.573 459.737 404.106 460.251 403.771C460.768 403.433 461.371 403.264 462.061 403.264C462.458 403.264 462.851 403.33 463.239 403.463C463.627 403.596 463.98 403.811 464.298 404.109C464.616 404.404 464.869 404.795 465.058 405.283C465.247 405.77 465.342 406.37 465.342 407.082V407.58H459.455V406.565H464.149C464.149 406.134 464.062 405.75 463.89 405.412C463.721 405.074 463.479 404.807 463.164 404.612C462.853 404.416 462.485 404.318 462.061 404.318C461.593 404.318 461.189 404.434 460.847 404.666C460.509 404.895 460.249 405.193 460.067 405.561C459.885 405.929 459.794 406.323 459.794 406.744V407.42C459.794 407.997 459.893 408.486 460.092 408.887C460.294 409.285 460.574 409.588 460.932 409.797C461.29 410.002 461.706 410.105 462.18 410.105C462.488 410.105 462.767 410.062 463.015 409.976C463.267 409.886 463.484 409.754 463.666 409.578C463.849 409.399 463.99 409.177 464.089 408.912L465.222 409.23C465.103 409.615 464.903 409.953 464.621 410.244C464.339 410.533 463.991 410.758 463.577 410.92C463.163 411.08 462.697 411.159 462.18 411.159ZM472.536 405.074L471.482 405.372C471.415 405.196 471.318 405.026 471.188 404.86C471.062 404.691 470.89 404.552 470.671 404.442C470.453 404.333 470.173 404.278 469.831 404.278C469.364 404.278 468.974 404.386 468.663 404.602C468.355 404.814 468.2 405.084 468.2 405.412C468.2 405.704 468.307 405.934 468.519 406.103C468.731 406.272 469.062 406.413 469.513 406.526L470.646 406.804C471.329 406.97 471.838 407.223 472.173 407.565C472.508 407.903 472.675 408.339 472.675 408.872C472.675 409.31 472.549 409.701 472.297 410.045C472.048 410.39 471.7 410.662 471.253 410.861C470.806 411.06 470.285 411.159 469.692 411.159C468.913 411.159 468.268 410.99 467.758 410.652C467.248 410.314 466.924 409.82 466.789 409.17L467.902 408.892C468.008 409.303 468.209 409.611 468.504 409.817C468.802 410.022 469.191 410.125 469.672 410.125C470.219 410.125 470.653 410.009 470.975 409.777C471.299 409.542 471.462 409.26 471.462 408.932C471.462 408.667 471.369 408.445 471.183 408.266C470.998 408.083 470.713 407.947 470.328 407.858L469.056 407.56C468.356 407.394 467.843 407.137 467.514 406.789C467.19 406.438 467.027 405.999 467.027 405.472C467.027 405.041 467.148 404.66 467.39 404.328C467.635 403.997 467.968 403.737 468.389 403.548C468.814 403.359 469.294 403.264 469.831 403.264C470.587 403.264 471.18 403.43 471.611 403.761C472.045 404.093 472.353 404.53 472.536 405.074ZM474.441 411V403.364H475.614V411H474.441ZM475.038 402.091C474.809 402.091 474.612 402.013 474.446 401.857C474.284 401.701 474.202 401.514 474.202 401.295C474.202 401.077 474.284 400.889 474.446 400.734C474.612 400.578 474.809 400.5 475.038 400.5C475.266 400.5 475.462 400.578 475.624 400.734C475.79 400.889 475.873 401.077 475.873 401.295C475.873 401.514 475.79 401.701 475.624 401.857C475.462 402.013 475.266 402.091 475.038 402.091ZM480.846 414.023C480.279 414.023 479.792 413.95 479.384 413.804C478.976 413.661 478.637 413.473 478.365 413.237C478.096 413.005 477.883 412.757 477.724 412.491L478.658 411.835C478.764 411.974 478.898 412.134 479.061 412.312C479.223 412.495 479.445 412.652 479.727 412.785C480.012 412.921 480.385 412.989 480.846 412.989C481.462 412.989 481.971 412.839 482.372 412.541C482.773 412.243 482.974 411.776 482.974 411.139V409.588H482.874C482.788 409.727 482.665 409.9 482.506 410.105C482.35 410.307 482.125 410.488 481.83 410.647C481.538 410.803 481.144 410.881 480.647 410.881C480.03 410.881 479.477 410.735 478.986 410.443C478.499 410.152 478.113 409.727 477.828 409.17C477.546 408.614 477.405 407.937 477.405 407.142C477.405 406.36 477.543 405.679 477.818 405.099C478.093 404.515 478.476 404.065 478.966 403.746C479.457 403.425 480.024 403.264 480.667 403.264C481.164 403.264 481.558 403.347 481.85 403.513C482.145 403.675 482.37 403.861 482.526 404.07C482.685 404.275 482.808 404.444 482.894 404.577H483.013V403.364H484.147V411.219C484.147 411.875 483.998 412.409 483.699 412.82C483.404 413.234 483.007 413.537 482.506 413.729C482.009 413.925 481.456 414.023 480.846 414.023ZM480.806 409.827C481.277 409.827 481.674 409.719 481.999 409.504C482.324 409.288 482.571 408.978 482.74 408.574C482.909 408.17 482.993 407.686 482.993 407.122C482.993 406.572 482.911 406.086 482.745 405.665C482.579 405.245 482.334 404.915 482.009 404.676C481.684 404.437 481.283 404.318 480.806 404.318C480.309 404.318 479.894 404.444 479.563 404.696C479.235 404.948 478.988 405.286 478.822 405.71C478.66 406.134 478.579 406.605 478.579 407.122C478.579 407.652 478.662 408.121 478.827 408.529C478.996 408.933 479.245 409.252 479.573 409.484C479.904 409.712 480.315 409.827 480.806 409.827ZM487.468 406.406V411H486.295V403.364H487.428V404.557H487.528C487.706 404.169 487.978 403.857 488.343 403.622C488.707 403.384 489.178 403.264 489.755 403.264C490.272 403.264 490.724 403.37 491.112 403.582C491.5 403.791 491.801 404.109 492.017 404.537C492.232 404.961 492.34 405.498 492.34 406.148V411H491.167V406.227C491.167 405.627 491.011 405.16 490.699 404.825C490.388 404.487 489.96 404.318 489.417 404.318C489.042 404.318 488.707 404.399 488.412 404.562C488.121 404.724 487.89 404.961 487.721 405.273C487.552 405.584 487.468 405.962 487.468 406.406ZM498.083 400.341L494.802 412.531H493.728L497.01 400.341H498.083ZM502.676 411.159C501.94 411.159 501.305 410.997 500.772 410.672C500.242 410.344 499.832 409.886 499.544 409.3C499.259 408.71 499.116 408.024 499.116 407.241C499.116 406.459 499.259 405.77 499.544 405.173C499.832 404.573 500.233 404.106 500.747 403.771C501.264 403.433 501.867 403.264 502.557 403.264C502.954 403.264 503.347 403.33 503.735 403.463C504.123 403.596 504.476 403.811 504.794 404.109C505.112 404.404 505.366 404.795 505.555 405.283C505.743 405.77 505.838 406.37 505.838 407.082V407.58H499.952V406.565H504.645C504.645 406.134 504.559 405.75 504.386 405.412C504.217 405.074 503.975 404.807 503.66 404.612C503.349 404.416 502.981 404.318 502.557 404.318C502.089 404.318 501.685 404.434 501.344 404.666C501.006 404.895 500.745 405.193 500.563 405.561C500.381 405.929 500.29 406.323 500.29 406.744V407.42C500.29 407.997 500.389 408.486 500.588 408.887C500.79 409.285 501.07 409.588 501.428 409.797C501.786 410.002 502.202 410.105 502.676 410.105C502.984 410.105 503.263 410.062 503.511 409.976C503.763 409.886 503.98 409.754 504.162 409.578C504.345 409.399 504.486 409.177 504.585 408.912L505.719 409.23C505.599 409.615 505.399 409.953 505.117 410.244C504.835 410.533 504.487 410.758 504.073 410.92C503.659 411.08 503.193 411.159 502.676 411.159ZM507.404 411V410.105L511.739 404.537V404.457H507.543V403.364H513.251V404.298L509.035 409.827V409.906H513.39V411H507.404ZM515.953 400.818L518.578 405.054H518.657L521.282 400.818H522.734L519.532 405.909L522.734 411H521.282L518.657 406.844H518.578L515.953 411H514.501L517.782 405.909L514.501 400.818H515.953ZM531.135 404C531.025 403.665 530.881 403.365 530.702 403.1C530.526 402.832 530.316 402.603 530.071 402.414C529.829 402.225 529.554 402.081 529.245 401.982C528.937 401.882 528.599 401.832 528.231 401.832C527.628 401.832 527.079 401.988 526.586 402.3C526.092 402.611 525.699 403.07 525.407 403.677C525.116 404.283 524.97 405.027 524.97 405.909C524.97 406.791 525.117 407.535 525.412 408.141C525.707 408.748 526.107 409.207 526.61 409.518C527.114 409.83 527.681 409.986 528.311 409.986C528.894 409.986 529.408 409.862 529.852 409.613C530.299 409.361 530.647 409.006 530.896 408.549C531.148 408.088 531.274 407.546 531.274 406.923L531.652 407.003H528.589V405.909H532.467V407.003C532.467 407.841 532.288 408.571 531.93 409.19C531.575 409.81 531.085 410.291 530.458 410.632C529.835 410.97 529.119 411.139 528.311 411.139C527.409 411.139 526.617 410.927 525.934 410.503C525.255 410.079 524.725 409.475 524.343 408.693C523.966 407.911 523.777 406.983 523.777 405.909C523.777 405.104 523.884 404.379 524.1 403.737C524.319 403.09 524.627 402.54 525.025 402.086C525.422 401.632 525.893 401.284 526.436 401.042C526.98 400.8 527.578 400.679 528.231 400.679C528.768 400.679 529.269 400.76 529.733 400.923C530.2 401.082 530.616 401.309 530.98 401.604C531.348 401.895 531.655 402.245 531.9 402.653C532.145 403.057 532.315 403.506 532.407 404H531.135ZM534.201 411V410.105L538.536 404.537V404.457H534.34V403.364H540.047V404.298L535.831 409.827V409.906H540.187V411H534.201ZM542.57 400.818L545.593 409.389H545.713L548.735 400.818H550.028L546.289 411H545.017L541.278 400.818H542.57ZM553.826 414.023C553.259 414.023 552.772 413.95 552.365 413.804C551.957 413.661 551.617 413.473 551.345 413.237C551.077 413.005 550.863 412.757 550.704 412.491L551.639 411.835C551.745 411.974 551.879 412.134 552.041 412.312C552.204 412.495 552.426 412.652 552.708 412.785C552.993 412.921 553.365 412.989 553.826 412.989C554.443 412.989 554.951 412.839 555.352 412.541C555.753 412.243 555.954 411.776 555.954 411.139V409.588H555.855C555.768 409.727 555.646 409.9 555.487 410.105C555.331 410.307 555.106 410.488 554.811 410.647C554.519 410.803 554.124 410.881 553.627 410.881C553.011 410.881 552.457 410.735 551.967 410.443C551.48 410.152 551.093 409.727 550.808 409.17C550.527 408.614 550.386 407.937 550.386 407.142C550.386 406.36 550.523 405.679 550.798 405.099C551.074 404.515 551.456 404.065 551.947 403.746C552.437 403.425 553.004 403.264 553.647 403.264C554.144 403.264 554.539 403.347 554.83 403.513C555.125 403.675 555.351 403.861 555.507 404.07C555.666 404.275 555.788 404.444 555.874 404.577H555.994V403.364H557.127V411.219C557.127 411.875 556.978 412.409 556.68 412.82C556.385 413.234 555.987 413.537 555.487 413.729C554.99 413.925 554.436 414.023 553.826 414.023ZM553.786 409.827C554.257 409.827 554.655 409.719 554.98 409.504C555.304 409.288 555.551 408.978 555.72 408.574C555.889 408.17 555.974 407.686 555.974 407.122C555.974 406.572 555.891 406.086 555.725 405.665C555.56 405.245 555.314 404.915 554.99 404.676C554.665 404.437 554.264 404.318 553.786 404.318C553.289 404.318 552.875 404.444 552.544 404.696C552.215 404.948 551.968 405.286 551.803 405.71C551.64 406.134 551.559 406.605 551.559 407.122C551.559 407.652 551.642 408.121 551.808 408.529C551.977 408.933 552.225 409.252 552.553 409.484C552.885 409.712 553.296 409.827 553.786 409.827ZM566.116 400.818H567.349V407.56C567.349 408.256 567.185 408.877 566.857 409.424C566.532 409.968 566.073 410.397 565.48 410.712C564.886 411.023 564.19 411.179 563.392 411.179C562.593 411.179 561.897 411.023 561.303 410.712C560.71 410.397 560.249 409.968 559.921 409.424C559.597 408.877 559.434 408.256 559.434 407.56V400.818H560.667V407.46C560.667 407.957 560.776 408.4 560.995 408.788C561.214 409.172 561.526 409.475 561.93 409.697C562.338 409.916 562.825 410.026 563.392 410.026C563.958 410.026 564.445 409.916 564.853 409.697C565.261 409.475 565.572 409.172 565.788 408.788C566.007 408.4 566.116 407.957 566.116 407.46V400.818ZM569.811 411V400.818H571.044V409.906H575.777V411H569.811ZM577.686 411V400.818H578.919V405.869H579.038L583.612 400.818H585.223L580.947 405.412L585.223 411H583.732L580.192 406.267L578.919 407.699V411H577.686ZM591.309 413.864V409.827H591.21C591.124 409.966 591.001 410.142 590.842 410.354C590.683 410.562 590.456 410.75 590.161 410.915C589.866 411.078 589.473 411.159 588.983 411.159C588.346 411.159 587.785 410.998 587.297 410.677C586.81 410.352 586.429 409.895 586.154 409.305C585.879 408.711 585.741 408.01 585.741 407.202C585.741 406.4 585.879 405.704 586.154 405.114C586.429 404.524 586.812 404.068 587.302 403.746C587.793 403.425 588.36 403.264 589.003 403.264C589.5 403.264 589.893 403.347 590.181 403.513C590.473 403.675 590.695 403.861 590.847 404.07C591.003 404.275 591.124 404.444 591.21 404.577H591.349V403.364H592.483V413.864H591.309ZM589.142 410.105C589.613 410.105 590.01 409.982 590.335 409.737C590.66 409.489 590.907 409.146 591.076 408.708C591.245 408.267 591.329 407.759 591.329 407.182C591.329 406.612 591.247 406.113 591.081 405.685C590.915 405.254 590.67 404.92 590.345 404.681C590.02 404.439 589.619 404.318 589.142 404.318C588.645 404.318 588.23 404.446 587.899 404.701C587.571 404.953 587.324 405.296 587.158 405.73C586.996 406.161 586.915 406.645 586.915 407.182C586.915 407.725 586.997 408.219 587.163 408.663C587.332 409.104 587.581 409.455 587.909 409.717C588.24 409.976 588.651 410.105 589.142 410.105ZM594.79 411V400.818H596.023V405.869H596.142L600.716 400.818H602.327L598.051 405.412L602.327 411H600.835L597.295 406.267L596.023 407.699V411H594.79ZM603.922 411V400.818H607.363C608.162 400.818 608.814 400.962 609.322 401.251C609.832 401.536 610.21 401.922 610.455 402.409C610.7 402.896 610.823 403.44 610.823 404.04C610.823 404.64 610.7 405.185 610.455 405.675C610.213 406.166 609.839 406.557 609.331 406.849C608.824 407.137 608.175 407.281 607.383 407.281H604.917V406.188H607.343C607.89 406.188 608.329 406.093 608.66 405.904C608.992 405.715 609.232 405.46 609.381 405.138C609.534 404.814 609.61 404.447 609.61 404.04C609.61 403.632 609.534 403.268 609.381 402.946C609.232 402.625 608.99 402.373 608.655 402.19C608.321 402.005 607.876 401.912 607.323 401.912H605.155V411H603.922ZM612.65 413.864V403.364H613.784V404.577H613.923C614.009 404.444 614.128 404.275 614.281 404.07C614.436 403.861 614.659 403.675 614.947 403.513C615.239 403.347 615.633 403.264 616.13 403.264C616.773 403.264 617.34 403.425 617.83 403.746C618.321 404.068 618.704 404.524 618.979 405.114C619.254 405.704 619.392 406.4 619.392 407.202C619.392 408.01 619.254 408.711 618.979 409.305C618.704 409.895 618.323 410.352 617.835 410.677C617.348 410.998 616.786 411.159 616.15 411.159C615.66 411.159 615.267 411.078 614.972 410.915C614.677 410.75 614.45 410.562 614.291 410.354C614.132 410.142 614.009 409.966 613.923 409.827H613.823V413.864H612.65ZM613.803 407.182C613.803 407.759 613.888 408.267 614.057 408.708C614.226 409.146 614.473 409.489 614.798 409.737C615.123 409.982 615.52 410.105 615.991 410.105C616.481 410.105 616.891 409.976 617.219 409.717C617.55 409.455 617.799 409.104 617.965 408.663C618.134 408.219 618.218 407.725 618.218 407.182C618.218 406.645 618.135 406.161 617.97 405.73C617.807 405.296 617.56 404.953 617.229 404.701C616.901 404.446 616.488 404.318 615.991 404.318C615.514 404.318 615.113 404.439 614.788 404.681C614.463 404.92 614.218 405.254 614.052 405.685C613.886 406.113 613.803 406.612 613.803 407.182ZM622.355 406.406V411H621.181V403.364H622.315V404.557H622.414C622.593 404.169 622.865 403.857 623.23 403.622C623.594 403.384 624.065 403.264 624.642 403.264C625.159 403.264 625.611 403.37 625.999 403.582C626.387 403.791 626.688 404.109 626.904 404.537C627.119 404.961 627.227 405.498 627.227 406.148V411H626.053V406.227C626.053 405.627 625.898 405.16 625.586 404.825C625.275 404.487 624.847 404.318 624.303 404.318C623.929 404.318 623.594 404.399 623.299 404.562C623.008 404.724 622.777 404.961 622.608 405.273C622.439 405.584 622.355 405.962 622.355 406.406ZM629.152 411V410.105L633.487 404.537V404.457H629.291V403.364H634.999V404.298L630.783 409.827V409.906H635.138V411H629.152ZM637.104 411V400.818H640.544C641.343 400.818 641.996 400.962 642.503 401.251C643.014 401.536 643.391 401.922 643.637 402.409C643.882 402.896 644.005 403.44 644.005 404.04C644.005 404.64 643.882 405.185 643.637 405.675C643.395 406.166 643.02 406.557 642.513 406.849C642.006 407.137 641.356 407.281 640.564 407.281H638.098V406.188H640.525C641.071 406.188 641.511 406.093 641.842 405.904C642.173 405.715 642.414 405.46 642.563 405.138C642.715 404.814 642.792 404.447 642.792 404.04C642.792 403.632 642.715 403.268 642.563 402.946C642.414 402.625 642.172 402.373 641.837 402.19C641.502 402.005 641.058 401.912 640.505 401.912H638.337V411H637.104ZM645.434 401.912V400.818H653.07V401.912H649.869V411H648.636V401.912H645.434ZM657.599 400.818H658.832V408.097C658.832 408.746 658.713 409.298 658.474 409.752C658.236 410.206 657.899 410.551 657.465 410.786C657.031 411.022 656.519 411.139 655.929 411.139C655.372 411.139 654.877 411.038 654.442 410.836C654.008 410.63 653.667 410.339 653.418 409.961C653.17 409.583 653.045 409.134 653.045 408.614H654.259C654.259 408.902 654.33 409.154 654.472 409.369C654.618 409.581 654.817 409.747 655.069 409.866C655.321 409.986 655.607 410.045 655.929 410.045C656.284 410.045 656.585 409.971 656.834 409.822C657.082 409.673 657.271 409.454 657.401 409.165C657.533 408.874 657.599 408.518 657.599 408.097V400.818ZM660.428 400.818H661.84L664.664 405.571H664.783L667.607 400.818H669.019L665.34 406.804V411H664.107V406.804L660.428 400.818ZM670.614 411V400.818H671.847V405.352H677.276V400.818H678.509V411H677.276V406.446H671.847V411H670.614ZM682.548 411L680.221 403.364H681.454L683.105 409.21H683.184L684.815 403.364H686.068L687.679 409.19H687.758L689.409 403.364H690.642L688.315 411H687.162L685.491 405.134H685.372L683.702 411H682.548ZM695.792 400.341L692.511 412.531H691.437L694.719 400.341H695.792ZM700.484 411H697.342V400.818H700.624C701.611 400.818 702.456 401.022 703.159 401.43C703.862 401.834 704.4 402.416 704.775 403.175C705.149 403.93 705.337 404.835 705.337 405.889C705.337 406.95 705.148 407.863 704.77 408.629C704.392 409.391 703.842 409.978 703.119 410.388C702.397 410.796 701.518 411 700.484 411ZM698.575 409.906H700.405C701.247 409.906 701.944 409.744 702.498 409.419C703.051 409.094 703.464 408.632 703.736 408.032C704.008 407.432 704.143 406.718 704.143 405.889C704.143 405.067 704.009 404.36 703.741 403.766C703.472 403.17 703.071 402.712 702.538 402.394C702.004 402.073 701.339 401.912 700.544 401.912H698.575V409.906ZM710.447 411.159C709.712 411.159 709.077 410.997 708.543 410.672C708.013 410.344 707.604 409.886 707.315 409.3C707.03 408.71 706.888 408.024 706.888 407.241C706.888 406.459 707.03 405.77 707.315 405.173C707.604 404.573 708.005 404.106 708.518 403.771C709.036 403.433 709.639 403.264 710.328 403.264C710.726 403.264 711.119 403.33 711.506 403.463C711.894 403.596 712.247 403.811 712.565 404.109C712.884 404.404 713.137 404.795 713.326 405.283C713.515 405.77 713.609 406.37 713.609 407.082V407.58H707.723V406.565H712.416C712.416 406.134 712.33 405.75 712.158 405.412C711.989 405.074 711.747 404.807 711.432 404.612C711.12 404.416 710.752 404.318 710.328 404.318C709.861 404.318 709.456 404.434 709.115 404.666C708.777 404.895 708.517 405.193 708.335 405.561C708.152 405.929 708.061 406.323 708.061 406.744V407.42C708.061 407.997 708.161 408.486 708.359 408.887C708.562 409.285 708.842 409.588 709.2 409.797C709.558 410.002 709.973 410.105 710.447 410.105C710.756 410.105 711.034 410.062 711.283 409.976C711.535 409.886 711.752 409.754 711.934 409.578C712.116 409.399 712.257 409.177 712.357 408.912L713.49 409.23C713.371 409.615 713.17 409.953 712.888 410.244C712.607 410.533 712.259 410.758 711.844 410.92C711.43 411.08 710.964 411.159 710.447 411.159ZM720.803 405.074L719.749 405.372C719.683 405.196 719.585 405.026 719.456 404.86C719.33 404.691 719.158 404.552 718.939 404.442C718.72 404.333 718.44 404.278 718.099 404.278C717.631 404.278 717.242 404.386 716.93 404.602C716.622 404.814 716.468 405.084 716.468 405.412C716.468 405.704 716.574 405.934 716.786 406.103C716.998 406.272 717.33 406.413 717.781 406.526L718.914 406.804C719.597 406.97 720.106 407.223 720.44 407.565C720.775 407.903 720.942 408.339 720.942 408.872C720.942 409.31 720.817 409.701 720.565 410.045C720.316 410.39 719.968 410.662 719.521 410.861C719.073 411.06 718.553 411.159 717.96 411.159C717.181 411.159 716.536 410.99 716.026 410.652C715.515 410.314 715.192 409.82 715.056 409.17L716.17 408.892C716.276 409.303 716.476 409.611 716.771 409.817C717.07 410.022 717.459 410.125 717.94 410.125C718.487 410.125 718.921 410.009 719.242 409.777C719.567 409.542 719.729 409.26 719.729 408.932C719.729 408.667 719.637 408.445 719.451 408.266C719.265 408.083 718.98 407.947 718.596 407.858L717.323 407.56C716.624 407.394 716.11 407.137 715.782 406.789C715.457 406.438 715.295 405.999 715.295 405.472C715.295 405.041 715.416 404.66 715.658 404.328C715.903 403.997 716.236 403.737 716.657 403.548C717.081 403.359 717.562 403.264 718.099 403.264C718.854 403.264 719.448 403.43 719.879 403.761C720.313 404.093 720.621 404.53 720.803 405.074ZM722.709 411V403.364H723.882V411H722.709ZM723.305 402.091C723.077 402.091 722.879 402.013 722.714 401.857C722.551 401.701 722.47 401.514 722.47 401.295C722.47 401.077 722.551 400.889 722.714 400.734C722.879 400.578 723.077 400.5 723.305 400.5C723.534 400.5 723.729 400.578 723.892 400.734C724.058 400.889 724.14 401.077 724.14 401.295C724.14 401.514 724.058 401.701 723.892 401.857C723.729 402.013 723.534 402.091 723.305 402.091ZM729.113 414.023C728.547 414.023 728.059 413.95 727.652 413.804C727.244 413.661 726.904 413.473 726.632 413.237C726.364 413.005 726.15 412.757 725.991 412.491L726.926 411.835C727.032 411.974 727.166 412.134 727.328 412.312C727.491 412.495 727.713 412.652 727.995 412.785C728.28 412.921 728.653 412.989 729.113 412.989C729.73 412.989 730.239 412.839 730.64 412.541C731.041 412.243 731.241 411.776 731.241 411.139V409.588H731.142C731.056 409.727 730.933 409.9 730.774 410.105C730.618 410.307 730.393 410.488 730.098 410.647C729.806 410.803 729.412 410.881 728.914 410.881C728.298 410.881 727.744 410.735 727.254 410.443C726.767 410.152 726.381 409.727 726.096 409.17C725.814 408.614 725.673 407.937 725.673 407.142C725.673 406.36 725.81 405.679 726.086 405.099C726.361 404.515 726.743 404.065 727.234 403.746C727.725 403.425 728.291 403.264 728.934 403.264C729.431 403.264 729.826 403.347 730.118 403.513C730.413 403.675 730.638 403.861 730.794 404.07C730.953 404.275 731.075 404.444 731.162 404.577H731.281V403.364H732.414V411.219C732.414 411.875 732.265 412.409 731.967 412.82C731.672 413.234 731.274 413.537 730.774 413.729C730.277 413.925 729.723 414.023 729.113 414.023ZM729.074 409.827C729.544 409.827 729.942 409.719 730.267 409.504C730.592 409.288 730.838 408.978 731.007 408.574C731.176 408.17 731.261 407.686 731.261 407.122C731.261 406.572 731.178 406.086 731.012 405.665C730.847 405.245 730.601 404.915 730.277 404.676C729.952 404.437 729.551 404.318 729.074 404.318C728.576 404.318 728.162 404.444 727.831 404.696C727.502 404.948 727.256 405.286 727.09 405.71C726.927 406.134 726.846 406.605 726.846 407.122C726.846 407.652 726.929 408.121 727.095 408.529C727.264 408.933 727.512 409.252 727.841 409.484C728.172 409.712 728.583 409.827 729.074 409.827ZM735.735 406.406V411H734.562V403.364H735.696V404.557H735.795C735.974 404.169 736.246 403.857 736.61 403.622C736.975 403.384 737.446 403.264 738.022 403.264C738.539 403.264 738.992 403.37 739.38 403.582C739.767 403.791 740.069 404.109 740.284 404.537C740.5 404.961 740.608 405.498 740.608 406.148V411H739.434V406.227C739.434 405.627 739.279 405.16 738.967 404.825C738.655 404.487 738.228 404.318 737.684 404.318C737.31 404.318 736.975 404.399 736.68 404.562C736.388 404.724 736.158 404.961 735.989 405.273C735.82 405.584 735.735 405.962 735.735 406.406ZM741.711 401.912V400.818H749.348V401.912H746.146V411H744.913V401.912H741.711ZM753.086 411.159C752.397 411.159 751.792 410.995 751.272 410.667C750.755 410.339 750.35 409.88 750.059 409.29C749.77 408.7 749.626 408.01 749.626 407.222C749.626 406.426 749.77 405.732 750.059 405.138C750.35 404.545 750.755 404.085 751.272 403.756C751.792 403.428 752.397 403.264 753.086 403.264C753.776 403.264 754.379 403.428 754.896 403.756C755.416 404.085 755.821 404.545 756.109 405.138C756.401 405.732 756.547 406.426 756.547 407.222C756.547 408.01 756.401 408.7 756.109 409.29C755.821 409.88 755.416 410.339 754.896 410.667C754.379 410.995 753.776 411.159 753.086 411.159ZM753.086 410.105C753.61 410.105 754.041 409.971 754.379 409.702C754.717 409.434 754.967 409.081 755.13 408.643C755.292 408.206 755.373 407.732 755.373 407.222C755.373 406.711 755.292 406.236 755.13 405.795C754.967 405.354 754.717 404.998 754.379 404.726C754.041 404.454 753.61 404.318 753.086 404.318C752.563 404.318 752.132 404.454 751.794 404.726C751.456 404.998 751.205 405.354 751.043 405.795C750.881 406.236 750.799 406.711 750.799 407.222C750.799 407.732 750.881 408.206 751.043 408.643C751.205 409.081 751.456 409.434 751.794 409.702C752.132 409.971 752.563 410.105 753.086 410.105ZM761.44 411.159C760.75 411.159 760.146 410.995 759.625 410.667C759.108 410.339 758.704 409.88 758.412 409.29C758.124 408.7 757.98 408.01 757.98 407.222C757.98 406.426 758.124 405.732 758.412 405.138C758.704 404.545 759.108 404.085 759.625 403.756C760.146 403.428 760.75 403.264 761.44 403.264C762.129 403.264 762.732 403.428 763.249 403.756C763.77 404.085 764.174 404.545 764.463 405.138C764.754 405.732 764.9 406.426 764.9 407.222C764.9 408.01 764.754 408.7 764.463 409.29C764.174 409.88 763.77 410.339 763.249 410.667C762.732 410.995 762.129 411.159 761.44 411.159ZM761.44 410.105C761.963 410.105 762.394 409.971 762.732 409.702C763.07 409.434 763.321 409.081 763.483 408.643C763.646 408.206 763.727 407.732 763.727 407.222C763.727 406.711 763.646 406.236 763.483 405.795C763.321 405.354 763.07 404.998 762.732 404.726C762.394 404.454 761.963 404.318 761.44 404.318C760.916 404.318 760.485 404.454 760.147 404.726C759.809 404.998 759.559 405.354 759.396 405.795C759.234 406.236 759.153 406.711 759.153 407.222C759.153 407.732 759.234 408.206 759.396 408.643C759.559 409.081 759.809 409.434 760.147 409.702C760.485 409.971 760.916 410.105 761.44 410.105ZM767.864 400.818V411H766.691V400.818H767.864ZM775.422 405.074L774.368 405.372C774.302 405.196 774.204 405.026 774.075 404.86C773.949 404.691 773.777 404.552 773.558 404.442C773.339 404.333 773.059 404.278 772.718 404.278C772.251 404.278 771.861 404.386 771.55 404.602C771.241 404.814 771.087 405.084 771.087 405.412C771.087 405.704 771.193 405.934 771.405 406.103C771.617 406.272 771.949 406.413 772.4 406.526L773.533 406.804C774.216 406.97 774.725 407.223 775.059 407.565C775.394 407.903 775.562 408.339 775.562 408.872C775.562 409.31 775.436 409.701 775.184 410.045C774.935 410.39 774.587 410.662 774.14 410.861C773.692 411.06 773.172 411.159 772.579 411.159C771.8 411.159 771.155 410.99 770.645 410.652C770.134 410.314 769.811 409.82 769.675 409.17L770.789 408.892C770.895 409.303 771.095 409.611 771.39 409.817C771.689 410.022 772.078 410.125 772.559 410.125C773.106 410.125 773.54 410.009 773.861 409.777C774.186 409.542 774.349 409.26 774.349 408.932C774.349 408.667 774.256 408.445 774.07 408.266C773.885 408.083 773.599 407.947 773.215 407.858L771.942 407.56C771.243 407.394 770.729 407.137 770.401 406.789C770.076 406.438 769.914 405.999 769.914 405.472C769.914 405.041 770.035 404.66 770.277 404.328C770.522 403.997 770.855 403.737 771.276 403.548C771.7 403.359 772.181 403.264 772.718 403.264C773.474 403.264 774.067 403.43 774.498 403.761C774.932 404.093 775.24 404.53 775.422 405.074ZM781.703 406.088V407.182H777.248V406.088H781.703ZM783.633 400.818L786.656 409.389H786.775L789.798 400.818H791.09L787.352 411H786.079L782.34 400.818H783.633ZM792.517 411V403.364H793.691V411H792.517ZM793.114 402.091C792.885 402.091 792.688 402.013 792.522 401.857C792.36 401.701 792.279 401.514 792.279 401.295C792.279 401.077 792.36 400.889 792.522 400.734C792.688 400.578 792.885 400.5 793.114 400.5C793.343 400.5 793.538 400.578 793.7 400.734C793.866 400.889 793.949 401.077 793.949 401.295C793.949 401.514 793.866 401.701 793.7 401.857C793.538 402.013 793.343 402.091 793.114 402.091ZM801.249 405.074L800.195 405.372C800.128 405.196 800.031 405.026 799.901 404.86C799.775 404.691 799.603 404.552 799.384 404.442C799.165 404.333 798.885 404.278 798.544 404.278C798.077 404.278 797.687 404.386 797.376 404.602C797.067 404.814 796.913 405.084 796.913 405.412C796.913 405.704 797.019 405.934 797.232 406.103C797.444 406.272 797.775 406.413 798.226 406.526L799.359 406.804C800.042 406.97 800.551 407.223 800.886 407.565C801.22 407.903 801.388 408.339 801.388 408.872C801.388 409.31 801.262 409.701 801.01 410.045C800.761 410.39 800.413 410.662 799.966 410.861C799.518 411.06 798.998 411.159 798.405 411.159C797.626 411.159 796.981 410.99 796.471 410.652C795.96 410.314 795.637 409.82 795.501 409.17L796.615 408.892C796.721 409.303 796.922 409.611 797.217 409.817C797.515 410.022 797.904 410.125 798.385 410.125C798.932 410.125 799.366 410.009 799.688 409.777C800.012 409.542 800.175 409.26 800.175 408.932C800.175 408.667 800.082 408.445 799.896 408.266C799.711 408.083 799.426 407.947 799.041 407.858L797.768 407.56C797.069 407.394 796.555 407.137 796.227 406.789C795.902 406.438 795.74 405.999 795.74 405.472C795.74 405.041 795.861 404.66 796.103 404.328C796.348 403.997 796.681 403.737 797.102 403.548C797.527 403.359 798.007 403.264 798.544 403.264C799.3 403.264 799.893 403.43 800.324 403.761C800.758 404.093 801.066 404.53 801.249 405.074ZM807.966 407.878V403.364H809.14V411H807.966V409.707H807.887C807.708 410.095 807.43 410.425 807.052 410.697C806.674 410.965 806.197 411.099 805.62 411.099C805.143 411.099 804.718 410.995 804.347 410.786C803.976 410.574 803.684 410.256 803.472 409.832C803.26 409.404 803.154 408.866 803.154 408.216V403.364H804.327V408.136C804.327 408.693 804.483 409.137 804.795 409.469C805.109 409.8 805.51 409.966 805.998 409.966C806.289 409.966 806.586 409.891 806.888 409.742C807.193 409.593 807.448 409.364 807.653 409.056C807.862 408.748 807.966 408.355 807.966 407.878ZM813.536 411.179C813.052 411.179 812.613 411.088 812.218 410.906C811.824 410.72 811.511 410.453 811.279 410.105C811.047 409.754 810.931 409.33 810.931 408.832C810.931 408.395 811.017 408.04 811.189 407.768C811.362 407.493 811.592 407.278 811.88 407.122C812.169 406.966 812.487 406.85 812.835 406.774C813.186 406.695 813.539 406.632 813.894 406.585C814.358 406.526 814.734 406.481 815.022 406.451C815.314 406.418 815.526 406.363 815.659 406.287C815.795 406.211 815.863 406.078 815.863 405.889V405.849C815.863 405.359 815.728 404.978 815.46 404.706C815.195 404.434 814.792 404.298 814.252 404.298C813.692 404.298 813.252 404.421 812.934 404.666C812.616 404.911 812.392 405.173 812.263 405.452L811.15 405.054C811.348 404.59 811.614 404.229 811.945 403.97C812.28 403.708 812.644 403.526 813.039 403.423C813.436 403.317 813.828 403.264 814.212 403.264C814.457 403.264 814.739 403.294 815.057 403.354C815.379 403.41 815.689 403.528 815.987 403.707C816.288 403.886 816.539 404.156 816.738 404.517C816.936 404.878 817.036 405.362 817.036 405.969V411H815.863V409.966H815.803C815.723 410.132 815.591 410.309 815.405 410.498C815.22 410.687 814.973 410.848 814.664 410.98C814.356 411.113 813.98 411.179 813.536 411.179ZM813.715 410.125C814.179 410.125 814.57 410.034 814.888 409.852C815.21 409.669 815.452 409.434 815.614 409.146C815.78 408.857 815.863 408.554 815.863 408.236V407.162C815.813 407.222 815.703 407.276 815.534 407.326C815.369 407.372 815.176 407.414 814.958 407.45C814.742 407.483 814.532 407.513 814.326 407.54C814.124 407.563 813.96 407.583 813.834 407.599C813.529 407.639 813.244 407.704 812.979 407.793C812.717 407.879 812.505 408.01 812.343 408.186C812.184 408.358 812.104 408.594 812.104 408.892C812.104 409.3 812.255 409.608 812.556 409.817C812.861 410.022 813.248 410.125 813.715 410.125ZM820.351 400.818V411H819.177V400.818H820.351ZM826.875 406.088V407.182H822.42V406.088H826.875ZM829.098 411V400.818H835.243V401.912H830.331V405.352H834.925V406.446H830.331V409.906H835.323V411H829.098ZM840.19 411.159C839.553 411.159 838.992 410.998 838.504 410.677C838.017 410.352 837.636 409.895 837.361 409.305C837.086 408.711 836.948 408.01 836.948 407.202C836.948 406.4 837.086 405.704 837.361 405.114C837.636 404.524 838.019 404.068 838.509 403.746C839 403.425 839.567 403.264 840.21 403.264C840.707 403.264 841.1 403.347 841.388 403.513C841.68 403.675 841.902 403.861 842.054 404.07C842.21 404.275 842.331 404.444 842.417 404.577H842.517V400.818H843.69V411H842.556V409.827H842.417C842.331 409.966 842.208 410.142 842.049 410.354C841.89 410.562 841.663 410.75 841.368 410.915C841.073 411.078 840.68 411.159 840.19 411.159ZM840.349 410.105C840.82 410.105 841.217 409.982 841.542 409.737C841.867 409.489 842.114 409.146 842.283 408.708C842.452 408.267 842.536 407.759 842.536 407.182C842.536 406.612 842.454 406.113 842.288 405.685C842.122 405.254 841.877 404.92 841.552 404.681C841.227 404.439 840.826 404.318 840.349 404.318C839.852 404.318 839.437 404.446 839.106 404.701C838.778 404.953 838.531 405.296 838.365 405.73C838.203 406.161 838.122 406.645 838.122 407.182C838.122 407.725 838.204 408.219 838.37 408.663C838.539 409.104 838.788 409.455 839.116 409.717C839.447 409.976 839.858 410.105 840.349 410.105ZM846.002 411V403.364H847.175V411H846.002ZM846.598 402.091C846.369 402.091 846.172 402.013 846.007 401.857C845.844 401.701 845.763 401.514 845.763 401.295C845.763 401.077 845.844 400.889 846.007 400.734C846.172 400.578 846.369 400.5 846.598 400.5C846.827 400.5 847.022 400.578 847.185 400.734C847.351 400.889 847.433 401.077 847.433 401.295C847.433 401.514 847.351 401.701 847.185 401.857C847.022 402.013 846.827 402.091 846.598 402.091ZM852.645 403.364V404.358H848.688V403.364H852.645ZM849.841 401.534H851.014V408.812C851.014 409.144 851.062 409.393 851.158 409.558C851.258 409.721 851.384 409.83 851.536 409.886C851.692 409.939 851.856 409.966 852.028 409.966C852.158 409.966 852.264 409.959 852.347 409.946C852.429 409.929 852.496 409.916 852.545 409.906L852.784 410.96C852.705 410.99 852.594 411.02 852.451 411.05C852.308 411.083 852.128 411.099 851.909 411.099C851.578 411.099 851.253 411.028 850.935 410.886C850.62 410.743 850.358 410.526 850.149 410.234C849.944 409.943 849.841 409.575 849.841 409.131V401.534ZM857.43 411.159C856.741 411.159 856.136 410.995 855.615 410.667C855.098 410.339 854.694 409.88 854.402 409.29C854.114 408.7 853.97 408.01 853.97 407.222C853.97 406.426 854.114 405.732 854.402 405.138C854.694 404.545 855.098 404.085 855.615 403.756C856.136 403.428 856.741 403.264 857.43 403.264C858.119 403.264 858.723 403.428 859.24 403.756C859.76 404.085 860.164 404.545 860.453 405.138C860.744 405.732 860.89 406.426 860.89 407.222C860.89 408.01 860.744 408.7 860.453 409.29C860.164 409.88 859.76 410.339 859.24 410.667C858.723 410.995 858.119 411.159 857.43 411.159ZM857.43 410.105C857.954 410.105 858.385 409.971 858.723 409.702C859.061 409.434 859.311 409.081 859.473 408.643C859.636 408.206 859.717 407.732 859.717 407.222C859.717 406.711 859.636 406.236 859.473 405.795C859.311 405.354 859.061 404.998 858.723 404.726C858.385 404.454 857.954 404.318 857.43 404.318C856.906 404.318 856.475 404.454 856.137 404.726C855.799 404.998 855.549 405.354 855.387 405.795C855.224 406.236 855.143 406.711 855.143 407.222C855.143 407.732 855.224 408.206 855.387 408.643C855.549 409.081 855.799 409.434 856.137 409.702C856.475 409.971 856.906 410.105 857.43 410.105ZM862.681 411V403.364H863.815V404.517H863.894C864.034 404.139 864.285 403.833 864.65 403.597C865.015 403.362 865.426 403.244 865.883 403.244C865.969 403.244 866.077 403.246 866.206 403.249C866.335 403.253 866.433 403.258 866.499 403.264V404.457C866.46 404.447 866.369 404.433 866.226 404.413C866.087 404.389 865.939 404.378 865.784 404.378C865.412 404.378 865.081 404.456 864.789 404.612C864.501 404.764 864.272 404.976 864.103 405.248C863.937 405.516 863.855 405.823 863.855 406.168V411H862.681ZM869.422 408.136V408.077C869.428 407.444 869.494 406.94 869.62 406.565C869.746 406.191 869.925 405.888 870.157 405.656C870.389 405.424 870.668 405.21 870.993 405.014C871.188 404.895 871.364 404.754 871.52 404.592C871.675 404.426 871.798 404.235 871.887 404.02C871.98 403.804 872.027 403.566 872.027 403.304C872.027 402.979 871.95 402.697 871.798 402.459C871.645 402.22 871.442 402.036 871.186 401.907C870.931 401.778 870.648 401.713 870.336 401.713C870.065 401.713 869.803 401.769 869.551 401.882C869.299 401.995 869.088 402.172 868.919 402.414C868.75 402.656 868.653 402.973 868.626 403.364H867.373C867.4 402.8 867.546 402.318 867.811 401.917C868.079 401.516 868.432 401.209 868.87 400.997C869.31 400.785 869.799 400.679 870.336 400.679C870.92 400.679 871.427 400.795 871.858 401.027C872.292 401.259 872.627 401.577 872.862 401.982C873.1 402.386 873.22 402.847 873.22 403.364C873.22 403.728 873.163 404.058 873.051 404.353C872.941 404.648 872.782 404.911 872.574 405.143C872.368 405.375 872.119 405.581 871.828 405.76C871.536 405.942 871.302 406.134 871.127 406.337C870.951 406.536 870.824 406.772 870.744 407.048C870.664 407.323 870.621 407.666 870.615 408.077V408.136H869.422ZM870.058 411.08C869.813 411.08 869.602 410.992 869.426 410.816C869.251 410.64 869.163 410.43 869.163 410.185C869.163 409.939 869.251 409.729 869.426 409.553C869.602 409.378 869.813 409.29 870.058 409.29C870.303 409.29 870.514 409.378 870.689 409.553C870.865 409.729 870.953 409.939 870.953 410.185C870.953 410.347 870.911 410.496 870.828 410.632C870.749 410.768 870.641 410.877 870.505 410.96C870.373 411.04 870.224 411.08 870.058 411.08ZM876.159 406.406V411H874.986V403.364H876.119V404.557H876.219C876.398 404.169 876.67 403.857 877.034 403.622C877.399 403.384 877.869 403.264 878.446 403.264C878.963 403.264 879.416 403.37 879.803 403.582C880.191 403.791 880.493 404.109 880.708 404.537C880.924 404.961 881.031 405.498 881.031 406.148V411H879.858V406.227C879.858 405.627 879.702 405.16 879.391 404.825C879.079 404.487 878.652 404.318 878.108 404.318C877.734 404.318 877.399 404.399 877.104 404.562C876.812 404.724 876.582 404.961 876.413 405.273C876.244 405.584 876.159 405.962 876.159 406.406ZM886.278 411.159C885.588 411.159 884.983 410.995 884.463 410.667C883.946 410.339 883.542 409.88 883.25 409.29C882.962 408.7 882.817 408.01 882.817 407.222C882.817 406.426 882.962 405.732 883.25 405.138C883.542 404.545 883.946 404.085 884.463 403.756C884.983 403.428 885.588 403.264 886.278 403.264C886.967 403.264 887.57 403.428 888.087 403.756C888.608 404.085 889.012 404.545 889.3 405.138C889.592 405.732 889.738 406.426 889.738 407.222C889.738 408.01 889.592 408.7 889.3 409.29C889.012 409.88 888.608 410.339 888.087 410.667C887.57 410.995 886.967 411.159 886.278 411.159ZM886.278 410.105C886.801 410.105 887.232 409.971 887.57 409.702C887.908 409.434 888.159 409.081 888.321 408.643C888.483 408.206 888.565 407.732 888.565 407.222C888.565 406.711 888.483 406.236 888.321 405.795C888.159 405.354 887.908 404.998 887.57 404.726C887.232 404.454 886.801 404.318 886.278 404.318C885.754 404.318 885.323 404.454 884.985 404.726C884.647 404.998 884.397 405.354 884.234 405.795C884.072 406.236 883.991 406.711 883.991 407.222C883.991 407.732 884.072 408.206 884.234 408.643C884.397 409.081 884.647 409.434 884.985 409.702C885.323 409.971 885.754 410.105 886.278 410.105ZM894.412 411.159C893.776 411.159 893.214 410.998 892.727 410.677C892.24 410.352 891.859 409.895 891.584 409.305C891.309 408.711 891.171 408.01 891.171 407.202C891.171 406.4 891.309 405.704 891.584 405.114C891.859 404.524 892.242 404.068 892.732 403.746C893.223 403.425 893.789 403.264 894.432 403.264C894.93 403.264 895.322 403.347 895.611 403.513C895.902 403.675 896.124 403.861 896.277 404.07C896.433 404.275 896.554 404.444 896.64 404.577H896.739V400.818H897.912V411H896.779V409.827H896.64C896.554 409.966 896.431 410.142 896.272 410.354C896.113 410.562 895.886 410.75 895.591 410.915C895.296 411.078 894.903 411.159 894.412 411.159ZM894.572 410.105C895.042 410.105 895.44 409.982 895.765 409.737C896.09 409.489 896.336 409.146 896.506 408.708C896.675 408.267 896.759 407.759 896.759 407.182C896.759 406.612 896.676 406.113 896.51 405.685C896.345 405.254 896.099 404.92 895.775 404.681C895.45 404.439 895.049 404.318 894.572 404.318C894.074 404.318 893.66 404.446 893.329 404.701C893.001 404.953 892.754 405.296 892.588 405.73C892.425 406.161 892.344 406.645 892.344 407.182C892.344 407.725 892.427 408.219 892.593 408.663C892.762 409.104 893.01 409.455 893.339 409.717C893.67 409.976 894.081 410.105 894.572 410.105ZM903.426 411.159C902.69 411.159 902.055 410.997 901.522 410.672C900.992 410.344 900.582 409.886 900.294 409.3C900.009 408.71 899.866 408.024 899.866 407.241C899.866 406.459 900.009 405.77 900.294 405.173C900.582 404.573 900.983 404.106 901.497 403.771C902.014 403.433 902.617 403.264 903.307 403.264C903.704 403.264 904.097 403.33 904.485 403.463C904.873 403.596 905.226 403.811 905.544 404.109C905.862 404.404 906.116 404.795 906.305 405.283C906.493 405.77 906.588 406.37 906.588 407.082V407.58H900.702V406.565H905.395C905.395 406.134 905.309 405.75 905.136 405.412C904.967 405.074 904.725 404.807 904.41 404.612C904.099 404.416 903.731 404.318 903.307 404.318C902.839 404.318 902.435 404.434 902.094 404.666C901.756 404.895 901.495 405.193 901.313 405.561C901.131 405.929 901.04 406.323 901.04 406.744V407.42C901.04 407.997 901.139 408.486 901.338 408.887C901.54 409.285 901.82 409.588 902.178 409.797C902.536 410.002 902.952 410.105 903.426 410.105C903.734 410.105 904.013 410.062 904.261 409.976C904.513 409.886 904.73 409.754 904.912 409.578C905.095 409.399 905.236 409.177 905.335 408.912L906.469 409.23C906.349 409.615 906.149 409.953 905.867 410.244C905.585 410.533 905.237 410.758 904.823 410.92C904.409 411.08 903.943 411.159 903.426 411.159ZM912.748 406.088V407.182H908.293V406.088H912.748ZM914.812 411V403.364H915.985V411H914.812ZM915.409 402.091C915.18 402.091 914.983 402.013 914.817 401.857C914.655 401.701 914.574 401.514 914.574 401.295C914.574 401.077 914.655 400.889 914.817 400.734C914.983 400.578 915.18 400.5 915.409 400.5C915.637 400.5 915.833 400.578 915.995 400.734C916.161 400.889 916.244 401.077 916.244 401.295C916.244 401.514 916.161 401.701 915.995 401.857C915.833 402.013 915.637 402.091 915.409 402.091ZM921.018 411.159C920.382 411.159 919.82 410.998 919.333 410.677C918.845 410.352 918.464 409.895 918.189 409.305C917.914 408.711 917.776 408.01 917.776 407.202C917.776 406.4 917.914 405.704 918.189 405.114C918.464 404.524 918.847 404.068 919.338 403.746C919.828 403.425 920.395 403.264 921.038 403.264C921.535 403.264 921.928 403.347 922.216 403.513C922.508 403.675 922.73 403.861 922.882 404.07C923.038 404.275 923.159 404.444 923.245 404.577H923.345V400.818H924.518V411H923.384V409.827H923.245C923.159 409.966 923.036 410.142 922.877 410.354C922.718 410.562 922.491 410.75 922.196 410.915C921.901 411.078 921.508 411.159 921.018 411.159ZM921.177 410.105C921.648 410.105 922.045 409.982 922.37 409.737C922.695 409.489 922.942 409.146 923.111 408.708C923.28 408.267 923.365 407.759 923.365 407.182C923.365 406.612 923.282 406.113 923.116 405.685C922.95 405.254 922.705 404.92 922.38 404.681C922.055 404.439 921.654 404.318 921.177 404.318C920.68 404.318 920.266 404.446 919.934 404.701C919.606 404.953 919.359 405.296 919.193 405.73C919.031 406.161 918.95 406.645 918.95 407.182C918.95 407.725 919.033 408.219 919.198 408.663C919.367 409.104 919.616 409.455 919.944 409.717C920.276 409.976 920.686 410.105 921.177 410.105ZM927.307 406.088V405.014H933.432V406.088H927.307ZM927.307 409.031V407.957H933.432V409.031H927.307ZM939.479 411.139C938.822 411.139 938.237 411.027 937.724 410.801C937.213 410.576 936.807 410.263 936.506 409.862C936.207 409.457 936.045 408.988 936.018 408.455H937.271C937.298 408.783 937.411 409.066 937.609 409.305C937.808 409.54 938.068 409.722 938.39 409.852C938.711 409.981 939.068 410.045 939.459 410.045C939.896 410.045 940.284 409.969 940.622 409.817C940.96 409.664 941.225 409.452 941.418 409.18C941.61 408.909 941.706 408.594 941.706 408.236C941.706 407.861 941.613 407.531 941.428 407.246C941.242 406.958 940.97 406.733 940.612 406.57C940.254 406.408 939.817 406.327 939.3 406.327H938.484V405.233H939.3C939.704 405.233 940.059 405.16 940.364 405.014C940.672 404.868 940.912 404.663 941.085 404.398C941.26 404.133 941.348 403.821 941.348 403.463C941.348 403.118 941.272 402.818 941.119 402.563C940.967 402.308 940.751 402.109 940.473 401.967C940.198 401.824 939.873 401.753 939.499 401.753C939.147 401.753 938.816 401.817 938.504 401.947C938.196 402.073 937.944 402.257 937.749 402.499C937.553 402.737 937.447 403.026 937.43 403.364H936.237C936.257 402.83 936.418 402.363 936.719 401.962C937.021 401.557 937.415 401.242 937.903 401.017C938.393 400.792 938.932 400.679 939.518 400.679C940.148 400.679 940.688 400.807 941.139 401.062C941.59 401.314 941.936 401.647 942.178 402.061C942.42 402.475 942.541 402.923 942.541 403.403C942.541 403.977 942.39 404.466 942.089 404.87C941.79 405.274 941.384 405.554 940.871 405.71V405.79C941.514 405.896 942.016 406.169 942.377 406.61C942.738 407.048 942.919 407.589 942.919 408.236C942.919 408.789 942.768 409.286 942.467 409.727C942.168 410.165 941.761 410.509 941.244 410.761C940.727 411.013 940.138 411.139 939.479 411.139ZM948.393 411.139C947.737 411.139 947.152 411.027 946.638 410.801C946.127 410.576 945.721 410.263 945.42 409.862C945.121 409.457 944.959 408.988 944.933 408.455H946.185C946.212 408.783 946.325 409.066 946.523 409.305C946.722 409.54 946.982 409.722 947.304 409.852C947.625 409.981 947.982 410.045 948.373 410.045C948.81 410.045 949.198 409.969 949.536 409.817C949.874 409.664 950.139 409.452 950.332 409.18C950.524 408.909 950.62 408.594 950.62 408.236C950.62 407.861 950.527 407.531 950.342 407.246C950.156 406.958 949.884 406.733 949.526 406.57C949.168 406.408 948.731 406.327 948.214 406.327H947.398V405.233H948.214C948.618 405.233 948.973 405.16 949.278 405.014C949.586 404.868 949.826 404.663 949.999 404.398C950.174 404.133 950.262 403.821 950.262 403.463C950.262 403.118 950.186 402.818 950.033 402.563C949.881 402.308 949.665 402.109 949.387 401.967C949.112 401.824 948.787 401.753 948.413 401.753C948.061 401.753 947.73 401.817 947.418 401.947C947.11 402.073 946.858 402.257 946.663 402.499C946.467 402.737 946.361 403.026 946.344 403.364H945.151C945.171 402.83 945.332 402.363 945.634 401.962C945.935 401.557 946.33 401.242 946.817 401.017C947.307 400.792 947.846 400.679 948.433 400.679C949.062 400.679 949.603 400.807 950.053 401.062C950.504 401.314 950.85 401.647 951.092 402.061C951.334 402.475 951.455 402.923 951.455 403.403C951.455 403.977 951.304 404.466 951.003 404.87C950.705 405.274 950.299 405.554 949.785 405.71V405.79C950.428 405.896 950.93 406.169 951.291 406.61C951.652 407.048 951.833 407.589 951.833 408.236C951.833 408.789 951.682 409.286 951.381 409.727C951.082 410.165 950.675 410.509 950.158 410.761C949.641 411.013 949.052 411.139 948.393 411.139ZM954.185 411L958.739 401.991V401.912H953.489V400.818H960.011V401.972L955.477 411H954.185ZM966.259 405.362V406.456H961.805V405.362H966.259ZM971.685 411.139C971.267 411.133 970.849 411.053 970.432 410.901C970.014 410.748 969.633 410.491 969.288 410.13C968.944 409.765 968.667 409.273 968.458 408.653C968.249 408.03 968.145 407.248 968.145 406.307C968.145 405.405 968.229 404.607 968.398 403.911C968.567 403.211 968.813 402.623 969.134 402.146C969.456 401.665 969.844 401.3 970.298 401.052C970.755 400.803 971.27 400.679 971.844 400.679C972.414 400.679 972.921 400.793 973.365 401.022C973.813 401.247 974.177 401.562 974.459 401.967C974.741 402.371 974.923 402.837 975.006 403.364H973.793C973.68 402.906 973.461 402.527 973.136 402.225C972.812 401.924 972.381 401.773 971.844 401.773C971.055 401.773 970.433 402.116 969.979 402.802C969.529 403.488 969.302 404.451 969.298 405.69H969.378C969.563 405.409 969.784 405.168 970.039 404.969C970.298 404.767 970.583 404.612 970.894 404.502C971.206 404.393 971.536 404.338 971.884 404.338C972.467 404.338 973 404.484 973.484 404.776C973.968 405.064 974.356 405.463 974.648 405.974C974.939 406.481 975.085 407.062 975.085 407.719C975.085 408.348 974.944 408.925 974.663 409.449C974.381 409.969 973.985 410.384 973.474 410.692C972.967 410.997 972.371 411.146 971.685 411.139ZM971.685 410.045C972.102 410.045 972.477 409.941 972.808 409.732C973.143 409.523 973.406 409.243 973.599 408.892C973.794 408.541 973.892 408.15 973.892 407.719C973.892 407.298 973.798 406.915 973.609 406.57C973.423 406.222 973.166 405.946 972.838 405.74C972.513 405.535 972.142 405.432 971.724 405.432C971.41 405.432 971.116 405.495 970.844 405.621C970.573 405.743 970.334 405.912 970.129 406.128C969.926 406.343 969.767 406.59 969.651 406.869C969.535 407.144 969.477 407.434 969.477 407.739C969.477 408.143 969.572 408.521 969.761 408.872C969.953 409.223 970.215 409.507 970.546 409.722C970.881 409.938 971.26 410.045 971.685 410.045ZM980.361 411.139C979.612 411.139 978.974 410.935 978.447 410.528C977.92 410.117 977.518 409.522 977.239 408.743C976.961 407.961 976.822 407.016 976.822 405.909C976.822 404.809 976.961 403.869 977.239 403.09C977.521 402.308 977.925 401.711 978.452 401.3C978.983 400.886 979.619 400.679 980.361 400.679C981.104 400.679 981.738 400.886 982.265 401.3C982.796 401.711 983.2 402.308 983.479 403.09C983.76 403.869 983.901 404.809 983.901 405.909C983.901 407.016 983.762 407.961 983.483 408.743C983.205 409.522 982.802 410.117 982.275 410.528C981.748 410.935 981.11 411.139 980.361 411.139ZM980.361 410.045C981.104 410.045 981.68 409.687 982.091 408.972C982.502 408.256 982.708 407.235 982.708 405.909C982.708 405.027 982.613 404.277 982.425 403.657C982.239 403.037 981.97 402.565 981.619 402.24C981.271 401.915 980.852 401.753 980.361 401.753C979.626 401.753 979.05 402.116 978.636 402.842C978.222 403.564 978.015 404.587 978.015 405.909C978.015 406.791 978.108 407.54 978.293 408.156C978.479 408.773 978.746 409.242 979.094 409.563C979.445 409.885 979.867 410.045 980.361 410.045ZM989.052 411.139C988.369 411.139 987.766 411.018 987.242 410.776C986.722 410.531 986.316 410.195 986.024 409.767C985.732 409.336 985.588 408.846 985.591 408.295C985.588 407.865 985.673 407.467 985.845 407.102C986.017 406.734 986.253 406.428 986.551 406.183C986.853 405.934 987.189 405.777 987.56 405.71V405.651C987.073 405.525 986.685 405.251 986.397 404.83C986.108 404.406 985.966 403.924 985.969 403.384C985.966 402.866 986.097 402.404 986.362 401.996C986.627 401.589 986.992 401.267 987.456 401.032C987.923 400.797 988.455 400.679 989.052 400.679C989.642 400.679 990.169 400.797 990.633 401.032C991.097 401.267 991.461 401.589 991.726 401.996C991.995 402.404 992.131 402.866 992.134 403.384C992.131 403.924 991.983 404.406 991.692 404.83C991.403 405.251 991.02 405.525 990.543 405.651V405.71C990.911 405.777 991.242 405.934 991.537 406.183C991.832 406.428 992.068 406.734 992.243 407.102C992.419 407.467 992.509 407.865 992.512 408.295C992.509 408.846 992.359 409.336 992.064 409.767C991.773 410.195 991.367 410.531 990.846 410.776C990.329 411.018 989.731 411.139 989.052 411.139ZM989.052 410.045C989.512 410.045 989.91 409.971 990.245 409.822C990.58 409.673 990.838 409.462 991.02 409.19C991.203 408.919 991.296 408.6 991.299 408.236C991.296 407.851 991.196 407.512 991.001 407.217C990.805 406.922 990.538 406.69 990.2 406.521C989.865 406.352 989.483 406.267 989.052 406.267C988.617 406.267 988.23 406.352 987.888 406.521C987.55 406.69 987.283 406.922 987.088 407.217C986.896 407.512 986.801 407.851 986.805 408.236C986.801 408.6 986.889 408.919 987.068 409.19C987.25 409.462 987.51 409.673 987.849 409.822C988.187 409.971 988.588 410.045 989.052 410.045ZM989.052 405.213C989.416 405.213 989.739 405.14 990.021 404.994C990.306 404.848 990.53 404.645 990.692 404.383C990.855 404.121 990.938 403.814 990.941 403.463C990.938 403.118 990.856 402.818 990.697 402.563C990.538 402.305 990.318 402.106 990.036 401.967C989.754 401.824 989.426 401.753 989.052 401.753C988.671 401.753 988.337 401.824 988.052 401.967C987.767 402.106 987.547 402.305 987.391 402.563C987.235 402.818 987.159 403.118 987.162 403.463C987.159 403.814 987.237 404.121 987.396 404.383C987.559 404.645 987.782 404.848 988.067 404.994C988.352 405.14 988.68 405.213 989.052 405.213ZM997.659 400.679C998.076 400.682 998.494 400.762 998.912 400.918C999.329 401.073 999.71 401.332 1000.06 401.693C1000.4 402.051 1000.68 402.54 1000.89 403.16C1001.09 403.78 1001.2 404.557 1001.2 405.491C1001.2 406.396 1001.11 407.2 1000.94 407.903C1000.77 408.602 1000.53 409.192 1000.2 409.673C999.886 410.153 999.498 410.518 999.041 410.766C998.587 411.015 998.073 411.139 997.5 411.139C996.93 411.139 996.421 411.027 995.973 410.801C995.529 410.572 995.165 410.256 994.88 409.852C994.598 409.444 994.417 408.972 994.338 408.435H995.551C995.66 408.902 995.877 409.288 996.202 409.593C996.53 409.895 996.963 410.045 997.5 410.045C998.285 410.045 998.905 409.702 999.359 409.016C999.816 408.33 1000.05 407.361 1000.05 406.108H999.966C999.78 406.386 999.56 406.627 999.304 406.829C999.049 407.031 998.766 407.187 998.454 407.296C998.143 407.406 997.811 407.46 997.46 407.46C996.877 407.46 996.341 407.316 995.854 407.028C995.37 406.736 994.982 406.337 994.691 405.83C994.402 405.319 994.258 404.736 994.258 404.08C994.258 403.456 994.397 402.886 994.676 402.369C994.958 401.849 995.352 401.435 995.859 401.126C996.369 400.818 996.969 400.669 997.659 400.679ZM997.659 401.773C997.241 401.773 996.865 401.877 996.53 402.086C996.199 402.291 995.935 402.57 995.74 402.921C995.547 403.269 995.451 403.655 995.451 404.08C995.451 404.504 995.544 404.89 995.73 405.238C995.919 405.583 996.176 405.858 996.5 406.063C996.828 406.265 997.201 406.366 997.619 406.366C997.934 406.366 998.227 406.305 998.499 406.183C998.771 406.057 999.008 405.886 999.21 405.67C999.415 405.452 999.576 405.205 999.692 404.93C999.808 404.651 999.866 404.361 999.866 404.06C999.866 403.662 999.77 403.289 999.578 402.941C999.389 402.593 999.127 402.311 998.792 402.096C998.461 401.88 998.083 401.773 997.659 401.773ZM1006.06 411.139C1005.39 411.139 1004.81 411.017 1004.33 410.771C1003.84 410.526 1003.47 410.19 1003.21 409.762C1002.95 409.335 1002.82 408.846 1002.82 408.295C1002.82 407.871 1002.91 407.495 1003.08 407.167C1003.27 406.835 1003.52 406.529 1003.83 406.247C1004.16 405.962 1004.53 405.677 1004.94 405.392L1006.41 404.298C1006.7 404.109 1006.93 403.907 1007.11 403.692C1007.28 403.476 1007.37 403.195 1007.37 402.847C1007.37 402.588 1007.26 402.338 1007.03 402.096C1006.8 401.854 1006.5 401.733 1006.14 401.733C1005.88 401.733 1005.65 401.799 1005.45 401.932C1005.25 402.061 1005.1 402.227 1004.99 402.429C1004.88 402.628 1004.82 402.833 1004.82 403.045C1004.82 403.284 1004.89 403.526 1005.02 403.771C1005.15 404.013 1005.32 404.262 1005.52 404.517C1005.73 404.769 1005.94 405.027 1006.16 405.293L1010.83 411H1009.42L1005.56 406.347C1005.2 405.916 1004.88 405.525 1004.59 405.173C1004.29 404.822 1004.06 404.476 1003.89 404.134C1003.72 403.793 1003.63 403.423 1003.63 403.026C1003.63 402.568 1003.73 402.167 1003.93 401.822C1004.14 401.474 1004.43 401.204 1004.79 401.012C1005.17 400.817 1005.6 400.719 1006.1 400.719C1006.61 400.719 1007.05 400.818 1007.41 401.017C1007.78 401.213 1008.07 401.473 1008.26 401.798C1008.46 402.119 1008.56 402.469 1008.56 402.847C1008.56 403.334 1008.44 403.756 1008.2 404.114C1007.96 404.472 1007.63 404.805 1007.21 405.114L1005.18 406.625C1004.72 406.963 1004.41 407.291 1004.25 407.609C1004.09 407.928 1004.01 408.156 1004.01 408.295C1004.01 408.614 1004.09 408.91 1004.26 409.185C1004.42 409.46 1004.66 409.683 1004.96 409.852C1005.26 410.021 1005.61 410.105 1006.02 410.105C1006.4 410.105 1006.78 410.024 1007.14 409.862C1007.51 409.696 1007.84 409.457 1008.13 409.146C1008.43 408.834 1008.66 408.46 1008.84 408.022C1009.01 407.585 1009.1 407.092 1009.1 406.545H1010.23C1010.23 407.222 1010.16 407.773 1010 408.201C1009.84 408.629 1009.67 408.963 1009.47 409.205C1009.28 409.447 1009.12 409.628 1009 409.747C1008.96 409.797 1008.92 409.847 1008.89 409.896C1008.86 409.946 1008.82 409.996 1008.78 410.045C1008.45 410.413 1008.04 410.688 1007.54 410.871C1007.04 411.05 1006.54 411.139 1006.06 411.139ZM1015.45 403.364V404.358H1011.49V403.364H1015.45ZM1012.65 401.534H1013.82V408.812C1013.82 409.144 1013.87 409.393 1013.96 409.558C1014.06 409.721 1014.19 409.83 1014.34 409.886C1014.5 409.939 1014.66 409.966 1014.83 409.966C1014.96 409.966 1015.07 409.959 1015.15 409.946C1015.23 409.929 1015.3 409.916 1015.35 409.906L1015.59 410.96C1015.51 410.99 1015.4 411.02 1015.26 411.05C1015.11 411.083 1014.93 411.099 1014.71 411.099C1014.38 411.099 1014.06 411.028 1013.74 410.886C1013.42 410.743 1013.16 410.526 1012.95 410.234C1012.75 409.943 1012.65 409.575 1012.65 409.131V401.534ZM1017.69 406.088V405.014H1023.82V406.088H1017.69ZM1017.69 409.031V407.957H1023.82V409.031H1017.69ZM1029.66 400.679C1030.08 400.682 1030.5 400.762 1030.92 400.918C1031.34 401.073 1031.72 401.332 1032.06 401.693C1032.41 402.051 1032.68 402.54 1032.89 403.16C1033.1 403.78 1033.2 404.557 1033.2 405.491C1033.2 406.396 1033.12 407.2 1032.95 407.903C1032.78 408.602 1032.53 409.192 1032.21 409.673C1031.89 410.153 1031.5 410.518 1031.05 410.766C1030.59 411.015 1030.08 411.139 1029.51 411.139C1028.94 411.139 1028.43 411.027 1027.98 410.801C1027.54 410.572 1027.17 410.256 1026.89 409.852C1026.6 409.444 1026.42 408.972 1026.34 408.435H1027.56C1027.67 408.902 1027.88 409.288 1028.21 409.593C1028.54 409.895 1028.97 410.045 1029.51 410.045C1030.29 410.045 1030.91 409.702 1031.36 409.016C1031.82 408.33 1032.05 407.361 1032.05 406.108H1031.97C1031.79 406.386 1031.57 406.627 1031.31 406.829C1031.05 407.031 1030.77 407.187 1030.46 407.296C1030.15 407.406 1029.82 407.46 1029.47 407.46C1028.88 407.46 1028.35 407.316 1027.86 407.028C1027.38 406.736 1026.99 406.337 1026.7 405.83C1026.41 405.319 1026.26 404.736 1026.26 404.08C1026.26 403.456 1026.4 402.886 1026.68 402.369C1026.96 401.849 1027.36 401.435 1027.86 401.126C1028.38 400.818 1028.98 400.669 1029.66 400.679ZM1029.66 401.773C1029.25 401.773 1028.87 401.877 1028.54 402.086C1028.2 402.291 1027.94 402.57 1027.75 402.921C1027.55 403.269 1027.46 403.655 1027.46 404.08C1027.46 404.504 1027.55 404.89 1027.74 405.238C1027.92 405.583 1028.18 405.858 1028.51 406.063C1028.83 406.265 1029.21 406.366 1029.62 406.366C1029.94 406.366 1030.23 406.305 1030.5 406.183C1030.78 406.057 1031.01 405.886 1031.22 405.67C1031.42 405.452 1031.58 405.205 1031.7 404.93C1031.81 404.651 1031.87 404.361 1031.87 404.06C1031.87 403.662 1031.78 403.289 1031.58 402.941C1031.39 402.593 1031.13 402.311 1030.8 402.096C1030.47 401.88 1030.09 401.773 1029.66 401.773ZM1035.34 411V400.818H1038.9C1039.61 400.818 1040.19 400.941 1040.65 401.186C1041.11 401.428 1041.46 401.754 1041.68 402.165C1041.91 402.573 1042.02 403.026 1042.02 403.523C1042.02 403.96 1041.94 404.321 1041.79 404.607C1041.63 404.892 1041.43 405.117 1041.18 405.283C1040.93 405.448 1040.66 405.571 1040.37 405.651V405.75C1040.68 405.77 1040.99 405.879 1041.31 406.078C1041.62 406.277 1041.89 406.562 1042.1 406.933C1042.31 407.304 1042.42 407.759 1042.42 408.295C1042.42 408.806 1042.3 409.265 1042.07 409.673C1041.84 410.08 1041.47 410.403 1040.97 410.642C1040.47 410.881 1039.82 411 1039.02 411H1035.34ZM1036.57 409.906H1039.02C1039.82 409.906 1040.39 409.75 1040.73 409.439C1041.07 409.124 1041.24 408.743 1041.24 408.295C1041.24 407.951 1041.16 407.633 1040.98 407.341C1040.81 407.046 1040.56 406.811 1040.23 406.635C1039.91 406.456 1039.52 406.366 1039.08 406.366H1036.57V409.906ZM1036.57 405.293H1038.86C1039.23 405.293 1039.56 405.22 1039.86 405.074C1040.16 404.928 1040.4 404.723 1040.58 404.457C1040.76 404.192 1040.85 403.881 1040.85 403.523C1040.85 403.075 1040.69 402.696 1040.38 402.384C1040.07 402.069 1039.57 401.912 1038.9 401.912H1036.57V405.293ZM1044.44 411V400.818H1047.88C1048.68 400.818 1049.34 400.962 1049.84 401.251C1050.35 401.536 1050.73 401.922 1050.98 402.409C1051.22 402.896 1051.34 403.44 1051.34 404.04C1051.34 404.64 1051.22 405.185 1050.98 405.675C1050.73 406.166 1050.36 406.557 1049.85 406.849C1049.35 407.137 1048.7 407.281 1047.9 407.281H1045.44V406.188H1047.86C1048.41 406.188 1048.85 406.093 1049.18 405.904C1049.51 405.715 1049.75 405.46 1049.9 405.138C1050.06 404.814 1050.13 404.447 1050.13 404.04C1050.13 403.632 1050.06 403.268 1049.9 402.946C1049.75 402.625 1049.51 402.373 1049.18 402.19C1048.84 402.005 1048.4 401.912 1047.84 401.912H1045.68V411H1044.44ZM1055.18 411L1052.4 400.818H1053.65L1055.78 409.111H1055.88L1058.04 400.818H1059.44L1061.6 409.111H1061.7L1063.83 400.818H1065.08L1062.3 411H1061.03L1058.78 402.886H1058.7L1056.45 411H1055.18ZM1066.62 411V400.818H1072.76V401.912H1067.85V405.352H1072.45V406.446H1067.85V409.906H1072.84V411H1066.62ZM1078.05 400.679C1078.47 400.682 1078.88 400.762 1079.3 400.918C1079.72 401.073 1080.1 401.332 1080.45 401.693C1080.79 402.051 1081.07 402.54 1081.28 403.16C1081.48 403.78 1081.59 404.557 1081.59 405.491C1081.59 406.396 1081.5 407.2 1081.33 407.903C1081.16 408.602 1080.92 409.192 1080.59 409.673C1080.28 410.153 1079.89 410.518 1079.43 410.766C1078.98 411.015 1078.46 411.139 1077.89 411.139C1077.32 411.139 1076.81 411.027 1076.36 410.801C1075.92 410.572 1075.56 410.256 1075.27 409.852C1074.99 409.444 1074.81 408.972 1074.73 408.435H1075.94C1076.05 408.902 1076.27 409.288 1076.59 409.593C1076.92 409.895 1077.35 410.045 1077.89 410.045C1078.68 410.045 1079.3 409.702 1079.75 409.016C1080.21 408.33 1080.44 407.361 1080.44 406.108H1080.36C1080.17 406.386 1079.95 406.627 1079.69 406.829C1079.44 407.031 1079.16 407.187 1078.84 407.296C1078.53 407.406 1078.2 407.46 1077.85 407.46C1077.27 407.46 1076.73 407.316 1076.24 407.028C1075.76 406.736 1075.37 406.337 1075.08 405.83C1074.79 405.319 1074.65 404.736 1074.65 404.08C1074.65 403.456 1074.79 402.886 1075.07 402.369C1075.35 401.849 1075.74 401.435 1076.25 401.126C1076.76 400.818 1077.36 400.669 1078.05 400.679ZM1078.05 401.773C1077.63 401.773 1077.26 401.877 1076.92 402.086C1076.59 402.291 1076.33 402.57 1076.13 402.921C1075.94 403.269 1075.84 403.655 1075.84 404.08C1075.84 404.504 1075.93 404.89 1076.12 405.238C1076.31 405.583 1076.57 405.858 1076.89 406.063C1077.22 406.265 1077.59 406.366 1078.01 406.366C1078.32 406.366 1078.62 406.305 1078.89 406.183C1079.16 406.057 1079.4 405.886 1079.6 405.67C1079.81 405.452 1079.97 405.205 1080.08 404.93C1080.2 404.651 1080.26 404.361 1080.26 404.06C1080.26 403.662 1080.16 403.289 1079.97 402.941C1079.78 402.593 1079.52 402.311 1079.18 402.096C1078.85 401.88 1078.47 401.773 1078.05 401.773ZM1084.42 411.08C1084.17 411.08 1083.96 410.992 1083.79 410.816C1083.61 410.64 1083.52 410.43 1083.52 410.185C1083.52 409.939 1083.61 409.729 1083.79 409.553C1083.96 409.378 1084.17 409.29 1084.42 409.29C1084.66 409.29 1084.87 409.378 1085.05 409.553C1085.23 409.729 1085.31 409.939 1085.31 410.185C1085.31 410.347 1085.27 410.496 1085.19 410.632C1085.11 410.768 1085 410.877 1084.87 410.96C1084.73 411.04 1084.58 411.08 1084.42 411.08ZM1088.24 411.08C1087.99 411.08 1087.78 410.992 1087.61 410.816C1087.43 410.64 1087.34 410.43 1087.34 410.185C1087.34 409.939 1087.43 409.729 1087.61 409.553C1087.78 409.378 1087.99 409.29 1088.24 409.29C1088.48 409.29 1088.69 409.378 1088.87 409.553C1089.04 409.729 1089.13 409.939 1089.13 410.185C1089.13 410.347 1089.09 410.496 1089.01 410.632C1088.93 410.768 1088.82 410.877 1088.68 410.96C1088.55 411.04 1088.4 411.08 1088.24 411.08ZM1092.06 411.08C1091.81 411.08 1091.6 410.992 1091.42 410.816C1091.25 410.64 1091.16 410.43 1091.16 410.185C1091.16 409.939 1091.25 409.729 1091.42 409.553C1091.6 409.378 1091.81 409.29 1092.06 409.29C1092.3 409.29 1092.51 409.378 1092.69 409.553C1092.86 409.729 1092.95 409.939 1092.95 410.185C1092.95 410.347 1092.91 410.496 1092.83 410.632C1092.75 410.768 1092.64 410.877 1092.5 410.96C1092.37 411.04 1092.22 411.08 1092.06 411.08Z" fill="#525252"/>
<path d="M1124 390C1124 385.582 1127.58 382 1132 382H1232C1236.42 382 1240 385.582 1240 390V422C1240 426.418 1236.42 430 1232 430H1132C1127.58 430 1124 426.418 1124 422V390Z" fill="#555555" fill-opacity="0.3"/>
<path d="M1124.5 390C1124.5 385.858 1127.86 382.5 1132 382.5H1232C1236.14 382.5 1239.5 385.858 1239.5 390V422C1239.5 426.142 1236.14 429.5 1232 429.5H1132C1127.86 429.5 1124.5 426.142 1124.5 422V390Z" stroke="#555555" stroke-opacity="0.5"/>
<path d="M1151.01 412V400.364H1155.6C1156.48 400.364 1157.24 400.532 1157.86 400.869C1158.48 401.203 1158.95 401.667 1159.28 402.261C1159.61 402.852 1159.77 403.534 1159.77 404.307C1159.77 405.08 1159.61 405.761 1159.27 406.352C1158.94 406.943 1158.46 407.403 1157.82 407.733C1157.2 408.062 1156.43 408.227 1155.54 408.227H1152.61V406.256H1155.14C1155.62 406.256 1156.01 406.174 1156.31 406.011C1156.62 405.845 1156.85 405.616 1157.01 405.324C1157.16 405.028 1157.24 404.689 1157.24 404.307C1157.24 403.92 1157.16 403.583 1157.01 403.295C1156.85 403.004 1156.62 402.778 1156.31 402.619C1156 402.456 1155.61 402.375 1155.13 402.375H1153.47V412H1151.01ZM1161.33 412V403.273H1163.67V404.795H1163.76C1163.92 404.254 1164.19 403.845 1164.56 403.568C1164.94 403.288 1165.37 403.148 1165.86 403.148C1165.98 403.148 1166.11 403.155 1166.25 403.17C1166.39 403.186 1166.51 403.206 1166.62 403.233V405.381C1166.51 405.347 1166.35 405.316 1166.15 405.29C1165.95 405.263 1165.76 405.25 1165.6 405.25C1165.24 405.25 1164.92 405.328 1164.64 405.483C1164.37 405.634 1164.15 405.847 1163.98 406.119C1163.83 406.392 1163.75 406.706 1163.75 407.062V412H1161.33ZM1171.41 412.17C1170.53 412.17 1169.76 411.983 1169.12 411.608C1168.48 411.229 1167.98 410.703 1167.64 410.028C1167.29 409.35 1167.11 408.564 1167.11 407.67C1167.11 406.769 1167.29 405.981 1167.64 405.307C1167.98 404.629 1168.48 404.102 1169.12 403.727C1169.76 403.348 1170.53 403.159 1171.41 403.159C1172.29 403.159 1173.05 403.348 1173.69 403.727C1174.34 404.102 1174.83 404.629 1175.18 405.307C1175.53 405.981 1175.7 406.769 1175.7 407.67C1175.7 408.564 1175.53 409.35 1175.18 410.028C1174.83 410.703 1174.34 411.229 1173.69 411.608C1173.05 411.983 1172.29 412.17 1171.41 412.17ZM1171.42 410.295C1171.82 410.295 1172.16 410.182 1172.43 409.955C1172.7 409.723 1172.9 409.409 1173.03 409.011C1173.17 408.614 1173.24 408.161 1173.24 407.653C1173.24 407.146 1173.17 406.693 1173.03 406.295C1172.9 405.898 1172.7 405.583 1172.43 405.352C1172.16 405.121 1171.82 405.006 1171.42 405.006C1171.02 405.006 1170.67 405.121 1170.4 405.352C1170.13 405.583 1169.92 405.898 1169.78 406.295C1169.64 406.693 1169.57 407.146 1169.57 407.653C1169.57 408.161 1169.64 408.614 1169.78 409.011C1169.92 409.409 1170.13 409.723 1170.4 409.955C1170.67 410.182 1171.02 410.295 1171.42 410.295ZM1181.22 412.17C1180.33 412.17 1179.56 411.981 1178.91 411.602C1178.27 411.22 1177.78 410.689 1177.44 410.011C1177.1 409.333 1176.93 408.553 1176.93 407.67C1176.93 406.777 1177.1 405.992 1177.44 405.318C1177.79 404.64 1178.29 404.112 1178.93 403.733C1179.57 403.35 1180.33 403.159 1181.21 403.159C1181.97 403.159 1182.64 403.297 1183.21 403.574C1183.78 403.85 1184.23 404.239 1184.57 404.739C1184.9 405.239 1185.09 405.826 1185.12 406.5H1182.84C1182.77 406.064 1182.6 405.714 1182.32 405.449C1182.05 405.18 1181.69 405.045 1181.25 405.045C1180.88 405.045 1180.55 405.148 1180.27 405.352C1179.99 405.553 1179.77 405.847 1179.62 406.233C1179.46 406.619 1179.39 407.087 1179.39 407.636C1179.39 408.193 1179.46 408.667 1179.61 409.057C1179.77 409.447 1179.99 409.744 1180.27 409.949C1180.55 410.153 1180.88 410.256 1181.25 410.256C1181.53 410.256 1181.77 410.199 1181.99 410.085C1182.22 409.972 1182.4 409.807 1182.55 409.591C1182.69 409.371 1182.79 409.108 1182.84 408.801H1185.12C1185.08 409.468 1184.9 410.055 1184.57 410.562C1184.25 411.066 1183.81 411.46 1183.24 411.744C1182.67 412.028 1182 412.17 1181.22 412.17ZM1190.65 412.17C1189.75 412.17 1188.98 411.989 1188.33 411.625C1187.68 411.258 1187.19 410.739 1186.84 410.068C1186.49 409.394 1186.32 408.597 1186.32 407.676C1186.32 406.778 1186.49 405.991 1186.84 405.312C1187.19 404.634 1187.68 404.106 1188.31 403.727C1188.95 403.348 1189.69 403.159 1190.55 403.159C1191.13 403.159 1191.66 403.252 1192.16 403.438C1192.66 403.619 1193.09 403.894 1193.46 404.261C1193.84 404.629 1194.13 405.091 1194.34 405.648C1194.55 406.201 1194.65 406.848 1194.65 407.591V408.256H1187.28V406.756H1192.37C1192.37 406.407 1192.3 406.098 1192.15 405.83C1191.99 405.561 1191.78 405.35 1191.52 405.199C1191.25 405.044 1190.94 404.966 1190.59 404.966C1190.22 404.966 1189.9 405.051 1189.61 405.222C1189.33 405.388 1189.11 405.614 1188.95 405.898C1188.79 406.178 1188.71 406.491 1188.71 406.835V408.261C1188.71 408.693 1188.79 409.066 1188.95 409.381C1189.11 409.695 1189.34 409.938 1189.63 410.108C1189.93 410.278 1190.28 410.364 1190.69 410.364C1190.96 410.364 1191.2 410.326 1191.42 410.25C1191.65 410.174 1191.84 410.061 1192 409.909C1192.16 409.758 1192.28 409.572 1192.36 409.352L1194.6 409.5C1194.49 410.038 1194.25 410.508 1193.9 410.909C1193.55 411.307 1193.1 411.617 1192.55 411.841C1192 412.061 1191.37 412.17 1190.65 412.17ZM1203.49 405.761L1201.28 405.898C1201.24 405.708 1201.16 405.538 1201.03 405.386C1200.91 405.231 1200.74 405.108 1200.54 405.017C1200.34 404.922 1200.1 404.875 1199.82 404.875C1199.44 404.875 1199.13 404.955 1198.87 405.114C1198.61 405.269 1198.48 405.477 1198.48 405.739C1198.48 405.947 1198.56 406.123 1198.73 406.267C1198.9 406.411 1199.18 406.527 1199.59 406.614L1201.17 406.932C1202.02 407.106 1202.65 407.386 1203.07 407.773C1203.48 408.159 1203.69 408.667 1203.69 409.295C1203.69 409.867 1203.52 410.369 1203.19 410.801C1202.85 411.233 1202.39 411.57 1201.81 411.812C1201.23 412.051 1200.56 412.17 1199.81 412.17C1198.65 412.17 1197.73 411.93 1197.04 411.449C1196.36 410.964 1195.96 410.305 1195.85 409.472L1198.23 409.347C1198.3 409.699 1198.47 409.968 1198.75 410.153C1199.03 410.335 1199.38 410.426 1199.81 410.426C1200.24 410.426 1200.58 410.345 1200.83 410.182C1201.1 410.015 1201.23 409.801 1201.23 409.54C1201.23 409.32 1201.13 409.14 1200.95 409C1200.77 408.856 1200.49 408.746 1200.11 408.67L1198.6 408.369C1197.75 408.199 1197.11 407.903 1196.7 407.483C1196.28 407.062 1196.08 406.527 1196.08 405.875C1196.08 405.314 1196.23 404.831 1196.53 404.426C1196.84 404.021 1197.27 403.708 1197.82 403.489C1198.38 403.269 1199.03 403.159 1199.78 403.159C1200.88 403.159 1201.75 403.392 1202.38 403.858C1203.02 404.324 1203.39 404.958 1203.49 405.761ZM1212.48 405.761L1210.26 405.898C1210.22 405.708 1210.14 405.538 1210.02 405.386C1209.89 405.231 1209.73 405.108 1209.52 405.017C1209.32 404.922 1209.08 404.875 1208.8 404.875C1208.43 404.875 1208.11 404.955 1207.85 405.114C1207.59 405.269 1207.47 405.477 1207.47 405.739C1207.47 405.947 1207.55 406.123 1207.72 406.267C1207.88 406.411 1208.17 406.527 1208.57 406.614L1210.15 406.932C1211 407.106 1211.63 407.386 1212.05 407.773C1212.47 408.159 1212.68 408.667 1212.68 409.295C1212.68 409.867 1212.51 410.369 1212.17 410.801C1211.84 411.233 1211.38 411.57 1210.8 411.812C1210.22 412.051 1209.55 412.17 1208.79 412.17C1207.63 412.17 1206.71 411.93 1206.03 411.449C1205.35 410.964 1204.95 410.305 1204.83 409.472L1207.21 409.347C1207.28 409.699 1207.46 409.968 1207.73 410.153C1208.01 410.335 1208.36 410.426 1208.8 410.426C1209.22 410.426 1209.56 410.345 1209.82 410.182C1210.08 410.015 1210.21 409.801 1210.22 409.54C1210.21 409.32 1210.12 409.14 1209.94 409C1209.76 408.856 1209.48 408.746 1209.1 408.67L1207.59 408.369C1206.73 408.199 1206.1 407.903 1205.68 407.483C1205.27 407.062 1205.06 406.527 1205.06 405.875C1205.06 405.314 1205.21 404.831 1205.52 404.426C1205.82 404.021 1206.25 403.708 1206.81 403.489C1207.36 403.269 1208.02 403.159 1208.76 403.159C1209.86 403.159 1210.73 403.392 1211.36 403.858C1212 404.324 1212.37 404.958 1212.48 405.761Z" fill="#201F1F"/>
<defs>
<filter id="filter0_d_360_10604" x="208" y="395" width="25.9971" height="25.9976" filterUnits="userSpaceOnUse" color-interpolation-filters="sRGB">
<feFlood flood-opacity="0" result="BackgroundImageFix"/>
<feColorMatrix in="SourceAlpha" type="matrix" values="0 0 0 0 0 0 0 0 0 0 0 0 0 0 0 0 0 0 127 0" result="hardAlpha"/>
<feOffset dy="2"/>
<feGaussianBlur stdDeviation="2"/>
<feComposite in2="hardAlpha" operator="out"/>
<feColorMatrix type="matrix" values="0 0 0 0 0 0 0 0 0 0 0 0 0 0 0 0 0 0 0.25 0"/>
<feBlend mode="normal" in2="BackgroundImageFix" result="effect1_dropShadow_360_10604"/>
<feBlend mode="normal" in="SourceGraphic" in2="effect1_dropShadow_360_10604" result="shape"/>
</filter>
</defs>
</svg>
