<svg width="1440" height="812" viewBox="0 0 1440 812" fill="none" xmlns="http://www.w3.org/2000/svg">
<rect width="1440" height="812" fill="#F2F2F2"/>
<path d="M200.5 386C200.5 384.067 202.067 382.5 204 382.5H262C263.933 382.5 265.5 384.067 265.5 386V426C265.5 427.933 263.933 429.5 262 429.5H204C202.067 429.5 200.5 427.933 200.5 426V386Z" fill="white"/>
<path d="M200.5 386C200.5 384.067 202.067 382.5 204 382.5H262C263.933 382.5 265.5 384.067 265.5 386V426C265.5 427.933 263.933 429.5 262 429.5H204C202.067 429.5 200.5 427.933 200.5 426V386Z" stroke="#E5E5E5"/>
<g filter="url(#filter0_d_360_10625)">
<path d="M216.904 411.563C216.957 411.802 217.082 412.019 217.262 412.185C217.442 412.351 217.669 412.457 217.911 412.491C218.153 412.524 218.4 412.483 218.619 412.372C218.837 412.261 219.016 412.087 219.132 411.871L221.222 408.778L226.129 413.685C226.228 413.784 226.346 413.863 226.475 413.916C226.605 413.97 226.743 413.998 226.883 413.998C227.024 413.998 227.162 413.97 227.292 413.916C227.421 413.863 227.539 413.784 227.638 413.685L228.685 412.638C228.784 412.539 228.863 412.421 228.916 412.292C228.97 412.162 228.998 412.024 228.998 411.883C228.998 411.743 228.97 411.605 228.916 411.475C228.863 411.346 228.784 411.228 228.685 411.129L223.778 406.222L226.891 404.132C227.107 404.016 227.281 403.837 227.392 403.618C227.503 403.4 227.544 403.153 227.511 402.911C227.477 402.668 227.37 402.442 227.204 402.262C227.038 402.082 226.821 401.957 226.582 401.904L213 398L216.904 411.563Z" fill="white"/>
<path d="M216.904 411.563C216.957 411.802 217.082 412.019 217.262 412.185C217.442 412.351 217.669 412.457 217.911 412.491C218.153 412.524 218.4 412.483 218.619 412.372C218.837 412.261 219.016 412.087 219.132 411.871L221.222 408.778L226.129 413.685C226.228 413.784 226.346 413.863 226.475 413.916C226.605 413.97 226.743 413.998 226.883 413.998C227.024 413.998 227.162 413.97 227.292 413.916C227.421 413.863 227.539 413.784 227.638 413.685L228.685 412.638C228.784 412.539 228.863 412.421 228.916 412.292C228.97 412.162 228.998 412.024 228.998 411.883C228.998 411.743 228.97 411.605 228.916 411.475C228.863 411.346 228.784 411.228 228.685 411.129L223.778 406.222L226.891 404.132C227.107 404.016 227.281 403.837 227.392 403.618C227.503 403.4 227.544 403.153 227.511 402.911C227.477 402.668 227.37 402.442 227.204 402.262C227.038 402.082 226.821 401.957 226.582 401.904L213 398L216.904 411.563Z" stroke="black" stroke-width="2" stroke-linecap="round" stroke-linejoin="round"/>
</g>
<g opacity="0.5">
<path d="M240 404L245 409L250 404H240Z" fill="#555555"/>
</g>
<path d="M274.5 386C274.5 384.067 276.067 382.5 278 382.5H1112C1113.93 382.5 1115.5 384.067 1115.5 386V426C1115.5 427.933 1113.93 429.5 1112 429.5H278C276.067 429.5 274.5 427.933 274.5 426V386Z" fill="white"/>
<path d="M274.5 386C274.5 384.067 276.067 382.5 278 382.5H1112C1113.93 382.5 1115.5 384.067 1115.5 386V426C1115.5 427.933 1113.93 429.5 1112 429.5H278C276.067 429.5 274.5 427.933 274.5 426V386Z" stroke="#E5E5E5"/>
<rect x="282" y="390" width="826" height="32" rx="4" fill="#F0F0F0" fill-opacity="0.6"/>
<g opacity="0.5">
<path d="M300.5 401.455V403.727L303.53 400.697L300.5 397.667V399.939C297.152 399.939 294.439 402.651 294.439 406C294.439 407.189 294.788 408.295 295.379 409.227L296.485 408.121C296.135 407.469 295.953 406.74 295.955 406C295.955 403.492 297.992 401.455 300.5 401.455ZM305.621 402.773L304.515 403.879C304.849 404.515 305.046 405.235 305.046 406C305.046 408.508 303.008 410.545 300.5 410.545V408.273L297.47 411.303L300.5 414.333V412.061C303.849 412.061 306.561 409.348 306.561 406C306.561 404.811 306.212 403.705 305.621 402.773Z" fill="#555555"/>
</g>
<path opacity="0.5" d="M320.247 406.406V411H319.074V400.818H320.247V404.557H320.347C320.526 404.162 320.794 403.849 321.152 403.617C321.513 403.382 321.994 403.264 322.594 403.264C323.114 403.264 323.57 403.369 323.961 403.577C324.352 403.783 324.655 404.099 324.871 404.527C325.089 404.951 325.199 405.491 325.199 406.148V411H324.026V406.227C324.026 405.621 323.868 405.152 323.553 404.82C323.242 404.486 322.809 404.318 322.256 404.318C321.871 404.318 321.527 404.399 321.222 404.562C320.92 404.724 320.681 404.961 320.506 405.273C320.333 405.584 320.247 405.962 320.247 406.406ZM330.666 403.364V404.358H326.709V403.364H330.666ZM327.862 401.534H329.036V408.812C329.036 409.144 329.084 409.393 329.18 409.558C329.279 409.721 329.405 409.83 329.558 409.886C329.713 409.939 329.878 409.966 330.05 409.966C330.179 409.966 330.285 409.959 330.368 409.946C330.451 409.929 330.517 409.916 330.567 409.906L330.806 410.96C330.726 410.99 330.615 411.02 330.472 411.05C330.33 411.083 330.149 411.099 329.931 411.099C329.599 411.099 329.274 411.028 328.956 410.886C328.641 410.743 328.379 410.526 328.171 410.234C327.965 409.943 327.862 409.575 327.862 409.131V401.534ZM335.752 403.364V404.358H331.795V403.364H335.752ZM332.948 401.534H334.122V408.812C334.122 409.144 334.17 409.393 334.266 409.558C334.365 409.721 334.491 409.83 334.644 409.886C334.799 409.939 334.963 409.966 335.136 409.966C335.265 409.966 335.371 409.959 335.454 409.946C335.537 409.929 335.603 409.916 335.653 409.906L335.892 410.96C335.812 410.99 335.701 411.02 335.558 411.05C335.416 411.083 335.235 411.099 335.017 411.099C334.685 411.099 334.36 411.028 334.042 410.886C333.727 410.743 333.465 410.526 333.257 410.234C333.051 409.943 332.948 409.575 332.948 409.131V401.534ZM337.517 413.864V403.364H338.651V404.577H338.79C338.876 404.444 338.995 404.275 339.148 404.07C339.304 403.861 339.526 403.675 339.814 403.513C340.106 403.347 340.5 403.264 340.997 403.264C341.64 403.264 342.207 403.425 342.698 403.746C343.188 404.068 343.571 404.524 343.846 405.114C344.121 405.704 344.259 406.4 344.259 407.202C344.259 408.01 344.121 408.711 343.846 409.305C343.571 409.895 343.19 410.352 342.703 410.677C342.215 410.998 341.654 411.159 341.017 411.159C340.527 411.159 340.134 411.078 339.839 410.915C339.544 410.75 339.317 410.562 339.158 410.354C338.999 410.142 338.876 409.966 338.79 409.827H338.691V413.864H337.517ZM338.671 407.182C338.671 407.759 338.755 408.267 338.924 408.708C339.093 409.146 339.34 409.489 339.665 409.737C339.99 409.982 340.387 410.105 340.858 410.105C341.349 410.105 341.758 409.976 342.086 409.717C342.418 409.455 342.666 409.104 342.832 408.663C343.001 408.219 343.085 407.725 343.085 407.182C343.085 406.645 343.003 406.161 342.837 405.73C342.674 405.296 342.427 404.953 342.096 404.701C341.768 404.446 341.355 404.318 340.858 404.318C340.381 404.318 339.98 404.439 339.655 404.681C339.33 404.92 339.085 405.254 338.919 405.685C338.753 406.113 338.671 406.612 338.671 407.182ZM351.458 405.074L350.404 405.372C350.337 405.196 350.24 405.026 350.11 404.86C349.984 404.691 349.812 404.552 349.593 404.442C349.374 404.333 349.094 404.278 348.753 404.278C348.286 404.278 347.896 404.386 347.585 404.602C347.276 404.814 347.122 405.084 347.122 405.412C347.122 405.704 347.228 405.934 347.441 406.103C347.653 406.272 347.984 406.413 348.435 406.526L349.568 406.804C350.251 406.97 350.76 407.223 351.095 407.565C351.429 407.903 351.597 408.339 351.597 408.872C351.597 409.31 351.471 409.701 351.219 410.045C350.97 410.39 350.622 410.662 350.175 410.861C349.727 411.06 349.207 411.159 348.614 411.159C347.835 411.159 347.19 410.99 346.68 410.652C346.169 410.314 345.846 409.82 345.71 409.17L346.824 408.892C346.93 409.303 347.131 409.611 347.426 409.817C347.724 410.022 348.113 410.125 348.594 410.125C349.141 410.125 349.575 410.009 349.896 409.777C350.221 409.542 350.384 409.26 350.384 408.932C350.384 408.667 350.291 408.445 350.105 408.266C349.92 408.083 349.635 407.947 349.25 407.858L347.977 407.56C347.278 407.394 346.764 407.137 346.436 406.789C346.111 406.438 345.949 405.999 345.949 405.472C345.949 405.041 346.07 404.66 346.312 404.328C346.557 403.997 346.89 403.737 347.311 403.548C347.735 403.359 348.216 403.264 348.753 403.264C349.509 403.264 350.102 403.43 350.533 403.761C350.967 404.093 351.275 404.53 351.458 405.074ZM354.218 411.08C353.973 411.08 353.762 410.992 353.587 410.816C353.411 410.64 353.323 410.43 353.323 410.185C353.323 409.939 353.411 409.729 353.587 409.553C353.762 409.378 353.973 409.29 354.218 409.29C354.463 409.29 354.674 409.378 354.849 409.553C355.025 409.729 355.113 409.939 355.113 410.185C355.113 410.347 355.071 410.496 354.989 410.632C354.909 410.768 354.801 410.877 354.665 410.96C354.533 411.04 354.384 411.08 354.218 411.08ZM354.218 405.412C353.973 405.412 353.762 405.324 353.587 405.148C353.411 404.973 353.323 404.762 353.323 404.517C353.323 404.272 353.411 404.061 353.587 403.886C353.762 403.71 353.973 403.622 354.218 403.622C354.463 403.622 354.674 403.71 354.849 403.886C355.025 404.061 355.113 404.272 355.113 404.517C355.113 404.679 355.071 404.829 354.989 404.964C354.909 405.1 354.801 405.21 354.665 405.293C354.533 405.372 354.384 405.412 354.218 405.412ZM360.818 400.341L357.537 412.531H356.463L359.744 400.341H360.818ZM365.808 400.341L362.527 412.531H361.453L364.734 400.341H365.808ZM368.929 411L366.602 403.364H367.835L369.486 409.21H369.565L371.196 403.364H372.449L374.06 409.19H374.139L375.79 403.364H377.023L374.696 411H373.543L371.872 405.134H371.753L370.082 411H368.929ZM380.304 411L377.977 403.364H379.21L380.861 409.21H380.94L382.571 403.364H383.824L385.435 409.19H385.514L387.165 403.364H388.398L386.071 411H384.918L383.247 405.134H383.128L381.457 411H380.304ZM391.679 411L389.352 403.364H390.585L392.236 409.21H392.315L393.946 403.364H395.199L396.81 409.19H396.889L398.54 403.364H399.773L397.446 411H396.293L394.622 405.134H394.503L392.832 411H391.679ZM401.14 411.08C400.895 411.08 400.684 410.992 400.509 410.816C400.333 410.64 400.245 410.43 400.245 410.185C400.245 409.939 400.333 409.729 400.509 409.553C400.684 409.378 400.895 409.29 401.14 409.29C401.385 409.29 401.596 409.378 401.771 409.553C401.947 409.729 402.035 409.939 402.035 410.185C402.035 410.347 401.993 410.496 401.911 410.632C401.831 410.768 401.723 410.877 401.587 410.96C401.455 411.04 401.306 411.08 401.14 411.08ZM407.541 403.364V404.358H403.424V403.364H407.541ZM404.657 411V402.31C404.657 401.872 404.76 401.508 404.966 401.216C405.171 400.924 405.438 400.705 405.766 400.56C406.094 400.414 406.44 400.341 406.805 400.341C407.093 400.341 407.329 400.364 407.511 400.411C407.693 400.457 407.829 400.5 407.919 400.54L407.581 401.554C407.521 401.534 407.438 401.509 407.332 401.479C407.229 401.45 407.093 401.435 406.924 401.435C406.537 401.435 406.257 401.532 406.084 401.728C405.915 401.924 405.831 402.21 405.831 402.588V411H404.657ZM409.185 411V403.364H410.358V411H409.185ZM409.782 402.091C409.553 402.091 409.356 402.013 409.19 401.857C409.028 401.701 408.947 401.514 408.947 401.295C408.947 401.077 409.028 400.889 409.19 400.734C409.356 400.578 409.553 400.5 409.782 400.5C410.01 400.5 410.206 400.578 410.368 400.734C410.534 400.889 410.617 401.077 410.617 401.295C410.617 401.514 410.534 401.701 410.368 401.857C410.206 402.013 410.01 402.091 409.782 402.091ZM415.59 414.023C415.023 414.023 414.536 413.95 414.128 413.804C413.721 413.661 413.381 413.473 413.109 413.237C412.841 413.005 412.627 412.757 412.468 412.491L413.402 411.835C413.508 411.974 413.643 412.134 413.805 412.312C413.967 412.495 414.19 412.652 414.471 412.785C414.756 412.921 415.129 412.989 415.59 412.989C416.206 412.989 416.715 412.839 417.116 412.541C417.517 412.243 417.718 411.776 417.718 411.139V409.588H417.618C417.532 409.727 417.409 409.9 417.25 410.105C417.095 410.307 416.869 410.488 416.574 410.647C416.283 410.803 415.888 410.881 415.391 410.881C414.775 410.881 414.221 410.735 413.73 410.443C413.243 410.152 412.857 409.727 412.572 409.17C412.29 408.614 412.15 407.937 412.15 407.142C412.15 406.36 412.287 405.679 412.562 405.099C412.837 404.515 413.22 404.065 413.711 403.746C414.201 403.425 414.768 403.264 415.411 403.264C415.908 403.264 416.302 403.347 416.594 403.513C416.889 403.675 417.114 403.861 417.27 404.07C417.429 404.275 417.552 404.444 417.638 404.577H417.757V403.364H418.891V411.219C418.891 411.875 418.742 412.409 418.444 412.82C418.149 413.234 417.751 413.537 417.25 413.729C416.753 413.925 416.2 414.023 415.59 414.023ZM415.55 409.827C416.021 409.827 416.418 409.719 416.743 409.504C417.068 409.288 417.315 408.978 417.484 408.574C417.653 408.17 417.738 407.686 417.738 407.122C417.738 406.572 417.655 406.086 417.489 405.665C417.323 405.245 417.078 404.915 416.753 404.676C416.428 404.437 416.027 404.318 415.55 404.318C415.053 404.318 414.639 404.444 414.307 404.696C413.979 404.948 413.732 405.286 413.566 405.71C413.404 406.134 413.323 406.605 413.323 407.122C413.323 407.652 413.406 408.121 413.571 408.529C413.74 408.933 413.989 409.252 414.317 409.484C414.649 409.712 415.06 409.827 415.55 409.827ZM421.039 411V403.364H422.172V404.557H422.272C422.431 404.149 422.688 403.833 423.042 403.607C423.397 403.379 423.823 403.264 424.32 403.264C424.824 403.264 425.243 403.379 425.578 403.607C425.916 403.833 426.179 404.149 426.368 404.557H426.448C426.643 404.162 426.937 403.849 427.328 403.617C427.719 403.382 428.188 403.264 428.735 403.264C429.417 403.264 429.976 403.478 430.41 403.906C430.844 404.33 431.061 404.991 431.061 405.889V411H429.888V405.889C429.888 405.326 429.734 404.923 429.426 404.681C429.118 404.439 428.755 404.318 428.337 404.318C427.8 404.318 427.384 404.481 427.089 404.805C426.794 405.127 426.647 405.535 426.647 406.028V411H425.453V405.77C425.453 405.336 425.313 404.986 425.031 404.721C424.749 404.452 424.386 404.318 423.942 404.318C423.637 404.318 423.352 404.399 423.087 404.562C422.825 404.724 422.613 404.95 422.451 405.238C422.292 405.523 422.212 405.853 422.212 406.227V411H421.039ZM435.454 411.179C434.97 411.179 434.531 411.088 434.136 410.906C433.742 410.72 433.429 410.453 433.197 410.105C432.965 409.754 432.849 409.33 432.849 408.832C432.849 408.395 432.935 408.04 433.107 407.768C433.28 407.493 433.51 407.278 433.798 407.122C434.087 406.966 434.405 406.85 434.753 406.774C435.104 406.695 435.457 406.632 435.812 406.585C436.276 406.526 436.652 406.481 436.94 406.451C437.232 406.418 437.444 406.363 437.577 406.287C437.713 406.211 437.781 406.078 437.781 405.889V405.849C437.781 405.359 437.646 404.978 437.378 404.706C437.113 404.434 436.71 404.298 436.17 404.298C435.61 404.298 435.17 404.421 434.852 404.666C434.534 404.911 434.31 405.173 434.181 405.452L433.067 405.054C433.266 404.59 433.531 404.229 433.863 403.97C434.198 403.708 434.562 403.526 434.957 403.423C435.354 403.317 435.746 403.264 436.13 403.264C436.375 403.264 436.657 403.294 436.975 403.354C437.297 403.41 437.607 403.528 437.905 403.707C438.206 403.886 438.457 404.156 438.656 404.517C438.854 404.878 438.954 405.362 438.954 405.969V411H437.781V409.966H437.721C437.641 410.132 437.509 410.309 437.323 410.498C437.138 410.687 436.891 410.848 436.582 410.98C436.274 411.113 435.898 411.179 435.454 411.179ZM435.633 410.125C436.097 410.125 436.488 410.034 436.806 409.852C437.128 409.669 437.37 409.434 437.532 409.146C437.698 408.857 437.781 408.554 437.781 408.236V407.162C437.731 407.222 437.621 407.276 437.452 407.326C437.287 407.372 437.094 407.414 436.876 407.45C436.66 407.483 436.45 407.513 436.244 407.54C436.042 407.563 435.878 407.583 435.752 407.599C435.447 407.639 435.162 407.704 434.897 407.793C434.635 407.879 434.423 408.01 434.261 408.186C434.102 408.358 434.022 408.594 434.022 408.892C434.022 409.3 434.173 409.608 434.474 409.817C434.779 410.022 435.165 410.125 435.633 410.125ZM441.95 411.08C441.705 411.08 441.495 410.992 441.319 410.816C441.143 410.64 441.056 410.43 441.056 410.185C441.056 409.939 441.143 409.729 441.319 409.553C441.495 409.378 441.705 409.29 441.95 409.29C442.196 409.29 442.406 409.378 442.582 409.553C442.758 409.729 442.845 409.939 442.845 410.185C442.845 410.347 442.804 410.496 442.721 410.632C442.642 410.768 442.534 410.877 442.398 410.96C442.265 411.04 442.116 411.08 441.95 411.08ZM448.053 411.159C447.337 411.159 446.721 410.99 446.204 410.652C445.687 410.314 445.289 409.848 445.01 409.255C444.732 408.662 444.593 407.984 444.593 407.222C444.593 406.446 444.735 405.762 445.02 405.168C445.309 404.572 445.71 404.106 446.224 403.771C446.741 403.433 447.344 403.264 448.033 403.264C448.57 403.264 449.054 403.364 449.485 403.562C449.916 403.761 450.269 404.04 450.544 404.398C450.819 404.756 450.99 405.173 451.056 405.651H449.883C449.793 405.303 449.594 404.994 449.286 404.726C448.981 404.454 448.57 404.318 448.053 404.318C447.596 404.318 447.195 404.437 446.85 404.676C446.509 404.911 446.242 405.245 446.05 405.675C445.861 406.103 445.766 406.605 445.766 407.182C445.766 407.772 445.859 408.286 446.045 408.723C446.233 409.161 446.499 409.5 446.84 409.742C447.185 409.984 447.589 410.105 448.053 410.105C448.358 410.105 448.635 410.052 448.883 409.946C449.132 409.84 449.342 409.688 449.515 409.489C449.687 409.29 449.81 409.051 449.883 408.773H451.056C450.99 409.223 450.826 409.629 450.564 409.991C450.305 410.349 449.962 410.634 449.535 410.846C449.11 411.055 448.617 411.159 448.053 411.159ZM455.873 411.159C455.184 411.159 454.579 410.995 454.059 410.667C453.542 410.339 453.137 409.88 452.846 409.29C452.557 408.7 452.413 408.01 452.413 407.222C452.413 406.426 452.557 405.732 452.846 405.138C453.137 404.545 453.542 404.085 454.059 403.756C454.579 403.428 455.184 403.264 455.873 403.264C456.563 403.264 457.166 403.428 457.683 403.756C458.203 404.085 458.608 404.545 458.896 405.138C459.188 405.732 459.334 406.426 459.334 407.222C459.334 408.01 459.188 408.7 458.896 409.29C458.608 409.88 458.203 410.339 457.683 410.667C457.166 410.995 456.563 411.159 455.873 411.159ZM455.873 410.105C456.397 410.105 456.828 409.971 457.166 409.702C457.504 409.434 457.754 409.081 457.917 408.643C458.079 408.206 458.16 407.732 458.16 407.222C458.16 406.711 458.079 406.236 457.917 405.795C457.754 405.354 457.504 404.998 457.166 404.726C456.828 404.454 456.397 404.318 455.873 404.318C455.35 404.318 454.919 404.454 454.581 404.726C454.243 404.998 453.992 405.354 453.83 405.795C453.668 406.236 453.586 406.711 453.586 407.222C453.586 407.732 453.668 408.206 453.83 408.643C453.992 409.081 454.243 409.434 454.581 409.702C454.919 409.971 455.35 410.105 455.873 410.105ZM461.125 411V403.364H462.258V404.557H462.358C462.517 404.149 462.774 403.833 463.128 403.607C463.483 403.379 463.909 403.264 464.406 403.264C464.91 403.264 465.329 403.379 465.664 403.607C466.002 403.833 466.265 404.149 466.454 404.557H466.534C466.729 404.162 467.023 403.849 467.414 403.617C467.805 403.382 468.274 403.264 468.821 403.264C469.503 403.264 470.062 403.478 470.496 403.906C470.93 404.33 471.147 404.991 471.147 405.889V411H469.974V405.889C469.974 405.326 469.82 404.923 469.512 404.681C469.203 404.439 468.841 404.318 468.423 404.318C467.886 404.318 467.47 404.481 467.175 404.805C466.88 405.127 466.733 405.535 466.733 406.028V411H465.539V405.77C465.539 405.336 465.399 404.986 465.117 404.721C464.835 404.452 464.472 404.318 464.028 404.318C463.723 404.318 463.438 404.399 463.173 404.562C462.911 404.724 462.699 404.95 462.537 405.238C462.377 405.523 462.298 405.853 462.298 406.227V411H461.125ZM476.892 400.341L473.611 412.531H472.537L475.818 400.341H476.892ZM481.166 411.159C480.53 411.159 479.968 410.998 479.481 410.677C478.994 410.352 478.613 409.895 478.338 409.305C478.062 408.711 477.925 408.01 477.925 407.202C477.925 406.4 478.062 405.704 478.338 405.114C478.613 404.524 478.995 404.068 479.486 403.746C479.977 403.425 480.543 403.264 481.186 403.264C481.683 403.264 482.076 403.347 482.365 403.513C482.656 403.675 482.878 403.861 483.031 404.07C483.186 404.275 483.307 404.444 483.394 404.577H483.493V400.818H484.666V411H483.533V409.827H483.394C483.307 409.966 483.185 410.142 483.026 410.354C482.867 410.562 482.64 410.75 482.345 410.915C482.05 411.078 481.657 411.159 481.166 411.159ZM481.325 410.105C481.796 410.105 482.194 409.982 482.519 409.737C482.843 409.489 483.09 409.146 483.259 408.708C483.428 408.267 483.513 407.759 483.513 407.182C483.513 406.612 483.43 406.113 483.264 405.685C483.099 405.254 482.853 404.92 482.529 404.681C482.204 404.439 481.803 404.318 481.325 404.318C480.828 404.318 480.414 404.446 480.083 404.701C479.754 404.953 479.508 405.296 479.342 405.73C479.179 406.161 479.098 406.645 479.098 407.182C479.098 407.725 479.181 408.219 479.347 408.663C479.516 409.104 479.764 409.455 480.093 409.717C480.424 409.976 480.835 410.105 481.325 410.105ZM490.18 411.159C489.444 411.159 488.809 410.997 488.276 410.672C487.745 410.344 487.336 409.886 487.048 409.3C486.763 408.71 486.62 408.024 486.62 407.241C486.62 406.459 486.763 405.77 487.048 405.173C487.336 404.573 487.737 404.106 488.251 403.771C488.768 403.433 489.371 403.264 490.061 403.264C490.458 403.264 490.851 403.33 491.239 403.463C491.627 403.596 491.98 403.811 492.298 404.109C492.616 404.404 492.869 404.795 493.058 405.283C493.247 405.77 493.342 406.37 493.342 407.082V407.58H487.455V406.565H492.149C492.149 406.134 492.062 405.75 491.89 405.412C491.721 405.074 491.479 404.807 491.164 404.612C490.853 404.416 490.485 404.318 490.061 404.318C489.593 404.318 489.189 404.434 488.847 404.666C488.509 404.895 488.249 405.193 488.067 405.561C487.885 405.929 487.794 406.323 487.794 406.744V407.42C487.794 407.997 487.893 408.486 488.092 408.887C488.294 409.285 488.574 409.588 488.932 409.797C489.29 410.002 489.706 410.105 490.18 410.105C490.488 410.105 490.767 410.062 491.015 409.976C491.267 409.886 491.484 409.754 491.666 409.578C491.849 409.399 491.99 409.177 492.089 408.912L493.222 409.23C493.103 409.615 492.903 409.953 492.621 410.244C492.339 410.533 491.991 410.758 491.577 410.92C491.163 411.08 490.697 411.159 490.18 411.159ZM500.536 405.074L499.482 405.372C499.415 405.196 499.318 405.026 499.188 404.86C499.062 404.691 498.89 404.552 498.671 404.442C498.453 404.333 498.173 404.278 497.831 404.278C497.364 404.278 496.974 404.386 496.663 404.602C496.355 404.814 496.2 405.084 496.2 405.412C496.2 405.704 496.307 405.934 496.519 406.103C496.731 406.272 497.062 406.413 497.513 406.526L498.646 406.804C499.329 406.97 499.838 407.223 500.173 407.565C500.508 407.903 500.675 408.339 500.675 408.872C500.675 409.31 500.549 409.701 500.297 410.045C500.048 410.39 499.7 410.662 499.253 410.861C498.806 411.06 498.285 411.159 497.692 411.159C496.913 411.159 496.268 410.99 495.758 410.652C495.248 410.314 494.924 409.82 494.789 409.17L495.902 408.892C496.008 409.303 496.209 409.611 496.504 409.817C496.802 410.022 497.191 410.125 497.672 410.125C498.219 410.125 498.653 410.009 498.975 409.777C499.299 409.542 499.462 409.26 499.462 408.932C499.462 408.667 499.369 408.445 499.183 408.266C498.998 408.083 498.713 407.947 498.328 407.858L497.056 407.56C496.356 407.394 495.843 407.137 495.514 406.789C495.19 406.438 495.027 405.999 495.027 405.472C495.027 405.041 495.148 404.66 495.39 404.328C495.635 403.997 495.968 403.737 496.389 403.548C496.814 403.359 497.294 403.264 497.831 403.264C498.587 403.264 499.18 403.43 499.611 403.761C500.045 404.093 500.353 404.53 500.536 405.074ZM502.441 411V403.364H503.614V411H502.441ZM503.038 402.091C502.809 402.091 502.612 402.013 502.446 401.857C502.284 401.701 502.202 401.514 502.202 401.295C502.202 401.077 502.284 400.889 502.446 400.734C502.612 400.578 502.809 400.5 503.038 400.5C503.266 400.5 503.462 400.578 503.624 400.734C503.79 400.889 503.873 401.077 503.873 401.295C503.873 401.514 503.79 401.701 503.624 401.857C503.462 402.013 503.266 402.091 503.038 402.091ZM508.846 414.023C508.279 414.023 507.792 413.95 507.384 413.804C506.976 413.661 506.637 413.473 506.365 413.237C506.096 413.005 505.883 412.757 505.724 412.491L506.658 411.835C506.764 411.974 506.898 412.134 507.061 412.312C507.223 412.495 507.445 412.652 507.727 412.785C508.012 412.921 508.385 412.989 508.846 412.989C509.462 412.989 509.971 412.839 510.372 412.541C510.773 412.243 510.974 411.776 510.974 411.139V409.588H510.874C510.788 409.727 510.665 409.9 510.506 410.105C510.35 410.307 510.125 410.488 509.83 410.647C509.538 410.803 509.144 410.881 508.647 410.881C508.03 410.881 507.477 410.735 506.986 410.443C506.499 410.152 506.113 409.727 505.828 409.17C505.546 408.614 505.405 407.937 505.405 407.142C505.405 406.36 505.543 405.679 505.818 405.099C506.093 404.515 506.476 404.065 506.966 403.746C507.457 403.425 508.024 403.264 508.667 403.264C509.164 403.264 509.558 403.347 509.85 403.513C510.145 403.675 510.37 403.861 510.526 404.07C510.685 404.275 510.808 404.444 510.894 404.577H511.013V403.364H512.147V411.219C512.147 411.875 511.998 412.409 511.699 412.82C511.404 413.234 511.007 413.537 510.506 413.729C510.009 413.925 509.456 414.023 508.846 414.023ZM508.806 409.827C509.277 409.827 509.674 409.719 509.999 409.504C510.324 409.288 510.571 408.978 510.74 408.574C510.909 408.17 510.993 407.686 510.993 407.122C510.993 406.572 510.911 406.086 510.745 405.665C510.579 405.245 510.334 404.915 510.009 404.676C509.684 404.437 509.283 404.318 508.806 404.318C508.309 404.318 507.894 404.444 507.563 404.696C507.235 404.948 506.988 405.286 506.822 405.71C506.66 406.134 506.579 406.605 506.579 407.122C506.579 407.652 506.662 408.121 506.827 408.529C506.996 408.933 507.245 409.252 507.573 409.484C507.904 409.712 508.315 409.827 508.806 409.827ZM515.468 406.406V411H514.295V403.364H515.428V404.557H515.528C515.706 404.169 515.978 403.857 516.343 403.622C516.707 403.384 517.178 403.264 517.755 403.264C518.272 403.264 518.724 403.37 519.112 403.582C519.5 403.791 519.801 404.109 520.017 404.537C520.232 404.961 520.34 405.498 520.34 406.148V411H519.167V406.227C519.167 405.627 519.011 405.16 518.699 404.825C518.388 404.487 517.96 404.318 517.417 404.318C517.042 404.318 516.707 404.399 516.412 404.562C516.121 404.724 515.89 404.961 515.721 405.273C515.552 405.584 515.468 405.962 515.468 406.406ZM526.083 400.341L522.802 412.531H521.728L525.01 400.341H526.083ZM530.676 411.159C529.94 411.159 529.305 410.997 528.772 410.672C528.242 410.344 527.832 409.886 527.544 409.3C527.259 408.71 527.116 408.024 527.116 407.241C527.116 406.459 527.259 405.77 527.544 405.173C527.832 404.573 528.233 404.106 528.747 403.771C529.264 403.433 529.867 403.264 530.557 403.264C530.954 403.264 531.347 403.33 531.735 403.463C532.123 403.596 532.476 403.811 532.794 404.109C533.112 404.404 533.366 404.795 533.555 405.283C533.743 405.77 533.838 406.37 533.838 407.082V407.58H527.952V406.565H532.645C532.645 406.134 532.559 405.75 532.386 405.412C532.217 405.074 531.975 404.807 531.66 404.612C531.349 404.416 530.981 404.318 530.557 404.318C530.089 404.318 529.685 404.434 529.344 404.666C529.006 404.895 528.745 405.193 528.563 405.561C528.381 405.929 528.29 406.323 528.29 406.744V407.42C528.29 407.997 528.389 408.486 528.588 408.887C528.79 409.285 529.07 409.588 529.428 409.797C529.786 410.002 530.202 410.105 530.676 410.105C530.984 410.105 531.263 410.062 531.511 409.976C531.763 409.886 531.98 409.754 532.162 409.578C532.345 409.399 532.486 409.177 532.585 408.912L533.719 409.23C533.599 409.615 533.399 409.953 533.117 410.244C532.835 410.533 532.487 410.758 532.073 410.92C531.659 411.08 531.193 411.159 530.676 411.159ZM535.404 411V410.105L539.739 404.537V404.457H535.543V403.364H541.251V404.298L537.035 409.827V409.906H541.39V411H535.404ZM543.953 400.818L546.578 405.054H546.657L549.282 400.818H550.734L547.532 405.909L550.734 411H549.282L546.657 406.844H546.578L543.953 411H542.501L545.782 405.909L542.501 400.818H543.953ZM559.135 404C559.025 403.665 558.881 403.365 558.702 403.1C558.526 402.832 558.316 402.603 558.071 402.414C557.829 402.225 557.554 402.081 557.245 401.982C556.937 401.882 556.599 401.832 556.231 401.832C555.628 401.832 555.079 401.988 554.586 402.3C554.092 402.611 553.699 403.07 553.407 403.677C553.116 404.283 552.97 405.027 552.97 405.909C552.97 406.791 553.117 407.535 553.412 408.141C553.707 408.748 554.107 409.207 554.61 409.518C555.114 409.83 555.681 409.986 556.311 409.986C556.894 409.986 557.408 409.862 557.852 409.613C558.299 409.361 558.647 409.006 558.896 408.549C559.148 408.088 559.274 407.546 559.274 406.923L559.652 407.003H556.589V405.909H560.467V407.003C560.467 407.841 560.288 408.571 559.93 409.19C559.575 409.81 559.085 410.291 558.458 410.632C557.835 410.97 557.119 411.139 556.311 411.139C555.409 411.139 554.617 410.927 553.934 410.503C553.255 410.079 552.725 409.475 552.343 408.693C551.966 407.911 551.777 406.983 551.777 405.909C551.777 405.104 551.884 404.379 552.1 403.737C552.319 403.09 552.627 402.54 553.025 402.086C553.422 401.632 553.893 401.284 554.436 401.042C554.98 400.8 555.578 400.679 556.231 400.679C556.768 400.679 557.269 400.76 557.733 400.923C558.2 401.082 558.616 401.309 558.98 401.604C559.348 401.895 559.655 402.245 559.9 402.653C560.145 403.057 560.315 403.506 560.407 404H559.135ZM562.201 411V410.105L566.536 404.537V404.457H562.34V403.364H568.047V404.298L563.831 409.827V409.906H568.187V411H562.201ZM570.57 400.818L573.593 409.389H573.713L576.735 400.818H578.028L574.289 411H573.017L569.278 400.818H570.57ZM581.826 414.023C581.259 414.023 580.772 413.95 580.365 413.804C579.957 413.661 579.617 413.473 579.345 413.237C579.077 413.005 578.863 412.757 578.704 412.491L579.639 411.835C579.745 411.974 579.879 412.134 580.041 412.312C580.204 412.495 580.426 412.652 580.708 412.785C580.993 412.921 581.365 412.989 581.826 412.989C582.443 412.989 582.951 412.839 583.352 412.541C583.753 412.243 583.954 411.776 583.954 411.139V409.588H583.855C583.768 409.727 583.646 409.9 583.487 410.105C583.331 410.307 583.106 410.488 582.811 410.647C582.519 410.803 582.124 410.881 581.627 410.881C581.011 410.881 580.457 410.735 579.967 410.443C579.48 410.152 579.093 409.727 578.808 409.17C578.527 408.614 578.386 407.937 578.386 407.142C578.386 406.36 578.523 405.679 578.798 405.099C579.074 404.515 579.456 404.065 579.947 403.746C580.437 403.425 581.004 403.264 581.647 403.264C582.144 403.264 582.539 403.347 582.83 403.513C583.125 403.675 583.351 403.861 583.507 404.07C583.666 404.275 583.788 404.444 583.874 404.577H583.994V403.364H585.127V411.219C585.127 411.875 584.978 412.409 584.68 412.82C584.385 413.234 583.987 413.537 583.487 413.729C582.99 413.925 582.436 414.023 581.826 414.023ZM581.786 409.827C582.257 409.827 582.655 409.719 582.98 409.504C583.304 409.288 583.551 408.978 583.72 408.574C583.889 408.17 583.974 407.686 583.974 407.122C583.974 406.572 583.891 406.086 583.725 405.665C583.56 405.245 583.314 404.915 582.99 404.676C582.665 404.437 582.264 404.318 581.786 404.318C581.289 404.318 580.875 404.444 580.544 404.696C580.215 404.948 579.968 405.286 579.803 405.71C579.64 406.134 579.559 406.605 579.559 407.122C579.559 407.652 579.642 408.121 579.808 408.529C579.977 408.933 580.225 409.252 580.553 409.484C580.885 409.712 581.296 409.827 581.786 409.827ZM594.116 400.818H595.349V407.56C595.349 408.256 595.185 408.877 594.857 409.424C594.532 409.968 594.073 410.397 593.48 410.712C592.886 411.023 592.19 411.179 591.392 411.179C590.593 411.179 589.897 411.023 589.303 410.712C588.71 410.397 588.249 409.968 587.921 409.424C587.597 408.877 587.434 408.256 587.434 407.56V400.818H588.667V407.46C588.667 407.957 588.776 408.4 588.995 408.788C589.214 409.172 589.526 409.475 589.93 409.697C590.338 409.916 590.825 410.026 591.392 410.026C591.958 410.026 592.445 409.916 592.853 409.697C593.261 409.475 593.572 409.172 593.788 408.788C594.007 408.4 594.116 407.957 594.116 407.46V400.818ZM597.811 411V400.818H599.044V409.906H603.777V411H597.811ZM605.686 411V400.818H606.919V405.869H607.038L611.612 400.818H613.223L608.947 405.412L613.223 411H611.732L608.192 406.267L606.919 407.699V411H605.686ZM619.309 413.864V409.827H619.21C619.124 409.966 619.001 410.142 618.842 410.354C618.683 410.562 618.456 410.75 618.161 410.915C617.866 411.078 617.473 411.159 616.983 411.159C616.346 411.159 615.785 410.998 615.297 410.677C614.81 410.352 614.429 409.895 614.154 409.305C613.879 408.711 613.741 408.01 613.741 407.202C613.741 406.4 613.879 405.704 614.154 405.114C614.429 404.524 614.812 404.068 615.302 403.746C615.793 403.425 616.36 403.264 617.003 403.264C617.5 403.264 617.893 403.347 618.181 403.513C618.473 403.675 618.695 403.861 618.847 404.07C619.003 404.275 619.124 404.444 619.21 404.577H619.349V403.364H620.483V413.864H619.309ZM617.142 410.105C617.613 410.105 618.01 409.982 618.335 409.737C618.66 409.489 618.907 409.146 619.076 408.708C619.245 408.267 619.329 407.759 619.329 407.182C619.329 406.612 619.247 406.113 619.081 405.685C618.915 405.254 618.67 404.92 618.345 404.681C618.02 404.439 617.619 404.318 617.142 404.318C616.645 404.318 616.23 404.446 615.899 404.701C615.571 404.953 615.324 405.296 615.158 405.73C614.996 406.161 614.915 406.645 614.915 407.182C614.915 407.725 614.997 408.219 615.163 408.663C615.332 409.104 615.581 409.455 615.909 409.717C616.24 409.976 616.651 410.105 617.142 410.105ZM622.79 411V400.818H624.023V405.869H624.142L628.716 400.818H630.327L626.051 405.412L630.327 411H628.835L625.295 406.267L624.023 407.699V411H622.79ZM631.922 411V400.818H635.363C636.162 400.818 636.814 400.962 637.322 401.251C637.832 401.536 638.21 401.922 638.455 402.409C638.7 402.896 638.823 403.44 638.823 404.04C638.823 404.64 638.7 405.185 638.455 405.675C638.213 406.166 637.839 406.557 637.331 406.849C636.824 407.137 636.175 407.281 635.383 407.281H632.917V406.188H635.343C635.89 406.188 636.329 406.093 636.66 405.904C636.992 405.715 637.232 405.46 637.381 405.138C637.534 404.814 637.61 404.447 637.61 404.04C637.61 403.632 637.534 403.268 637.381 402.946C637.232 402.625 636.99 402.373 636.655 402.19C636.321 402.005 635.876 401.912 635.323 401.912H633.155V411H631.922ZM640.65 413.864V403.364H641.784V404.577H641.923C642.009 404.444 642.128 404.275 642.281 404.07C642.436 403.861 642.659 403.675 642.947 403.513C643.239 403.347 643.633 403.264 644.13 403.264C644.773 403.264 645.34 403.425 645.83 403.746C646.321 404.068 646.704 404.524 646.979 405.114C647.254 405.704 647.392 406.4 647.392 407.202C647.392 408.01 647.254 408.711 646.979 409.305C646.704 409.895 646.323 410.352 645.835 410.677C645.348 410.998 644.786 411.159 644.15 411.159C643.66 411.159 643.267 411.078 642.972 410.915C642.677 410.75 642.45 410.562 642.291 410.354C642.132 410.142 642.009 409.966 641.923 409.827H641.823V413.864H640.65ZM641.803 407.182C641.803 407.759 641.888 408.267 642.057 408.708C642.226 409.146 642.473 409.489 642.798 409.737C643.123 409.982 643.52 410.105 643.991 410.105C644.481 410.105 644.891 409.976 645.219 409.717C645.55 409.455 645.799 409.104 645.965 408.663C646.134 408.219 646.218 407.725 646.218 407.182C646.218 406.645 646.135 406.161 645.97 405.73C645.807 405.296 645.56 404.953 645.229 404.701C644.901 404.446 644.488 404.318 643.991 404.318C643.514 404.318 643.113 404.439 642.788 404.681C642.463 404.92 642.218 405.254 642.052 405.685C641.886 406.113 641.803 406.612 641.803 407.182ZM650.355 406.406V411H649.181V403.364H650.315V404.557H650.414C650.593 404.169 650.865 403.857 651.23 403.622C651.594 403.384 652.065 403.264 652.642 403.264C653.159 403.264 653.611 403.37 653.999 403.582C654.387 403.791 654.688 404.109 654.904 404.537C655.119 404.961 655.227 405.498 655.227 406.148V411H654.053V406.227C654.053 405.627 653.898 405.16 653.586 404.825C653.275 404.487 652.847 404.318 652.303 404.318C651.929 404.318 651.594 404.399 651.299 404.562C651.008 404.724 650.777 404.961 650.608 405.273C650.439 405.584 650.355 405.962 650.355 406.406ZM657.152 411V410.105L661.487 404.537V404.457H657.291V403.364H662.999V404.298L658.783 409.827V409.906H663.138V411H657.152ZM665.104 411V400.818H668.544C669.343 400.818 669.996 400.962 670.503 401.251C671.014 401.536 671.391 401.922 671.637 402.409C671.882 402.896 672.005 403.44 672.005 404.04C672.005 404.64 671.882 405.185 671.637 405.675C671.395 406.166 671.02 406.557 670.513 406.849C670.006 407.137 669.356 407.281 668.564 407.281H666.098V406.188H668.525C669.071 406.188 669.511 406.093 669.842 405.904C670.173 405.715 670.414 405.46 670.563 405.138C670.715 404.814 670.792 404.447 670.792 404.04C670.792 403.632 670.715 403.268 670.563 402.946C670.414 402.625 670.172 402.373 669.837 402.19C669.502 402.005 669.058 401.912 668.505 401.912H666.337V411H665.104ZM673.434 401.912V400.818H681.07V401.912H677.869V411H676.636V401.912H673.434ZM685.599 400.818H686.832V408.097C686.832 408.746 686.713 409.298 686.474 409.752C686.236 410.206 685.899 410.551 685.465 410.786C685.031 411.022 684.519 411.139 683.929 411.139C683.372 411.139 682.877 411.038 682.442 410.836C682.008 410.63 681.667 410.339 681.418 409.961C681.17 409.583 681.045 409.134 681.045 408.614H682.259C682.259 408.902 682.33 409.154 682.472 409.369C682.618 409.581 682.817 409.747 683.069 409.866C683.321 409.986 683.607 410.045 683.929 410.045C684.284 410.045 684.585 409.971 684.834 409.822C685.082 409.673 685.271 409.454 685.401 409.165C685.533 408.874 685.599 408.518 685.599 408.097V400.818ZM688.428 400.818H689.84L692.664 405.571H692.783L695.607 400.818H697.019L693.34 406.804V411H692.107V406.804L688.428 400.818ZM698.614 411V400.818H699.847V405.352H705.276V400.818H706.509V411H705.276V406.446H699.847V411H698.614ZM710.548 411L708.221 403.364H709.454L711.105 409.21H711.184L712.815 403.364H714.068L715.679 409.19H715.758L717.409 403.364H718.642L716.315 411H715.162L713.491 405.134H713.372L711.702 411H710.548ZM723.792 400.341L720.511 412.531H719.437L722.719 400.341H723.792ZM728.484 411H725.342V400.818H728.624C729.611 400.818 730.456 401.022 731.159 401.43C731.862 401.834 732.4 402.416 732.775 403.175C733.149 403.93 733.337 404.835 733.337 405.889C733.337 406.95 733.148 407.863 732.77 408.629C732.392 409.391 731.842 409.978 731.119 410.388C730.397 410.796 729.518 411 728.484 411ZM726.575 409.906H728.405C729.247 409.906 729.944 409.744 730.498 409.419C731.051 409.094 731.464 408.632 731.736 408.032C732.008 407.432 732.143 406.718 732.143 405.889C732.143 405.067 732.009 404.36 731.741 403.766C731.472 403.17 731.071 402.712 730.538 402.394C730.004 402.073 729.339 401.912 728.544 401.912H726.575V409.906ZM738.447 411.159C737.712 411.159 737.077 410.997 736.543 410.672C736.013 410.344 735.604 409.886 735.315 409.3C735.03 408.71 734.888 408.024 734.888 407.241C734.888 406.459 735.03 405.77 735.315 405.173C735.604 404.573 736.005 404.106 736.518 403.771C737.036 403.433 737.639 403.264 738.328 403.264C738.726 403.264 739.119 403.33 739.506 403.463C739.894 403.596 740.247 403.811 740.565 404.109C740.884 404.404 741.137 404.795 741.326 405.283C741.515 405.77 741.609 406.37 741.609 407.082V407.58H735.723V406.565H740.416C740.416 406.134 740.33 405.75 740.158 405.412C739.989 405.074 739.747 404.807 739.432 404.612C739.12 404.416 738.752 404.318 738.328 404.318C737.861 404.318 737.456 404.434 737.115 404.666C736.777 404.895 736.517 405.193 736.335 405.561C736.152 405.929 736.061 406.323 736.061 406.744V407.42C736.061 407.997 736.161 408.486 736.359 408.887C736.562 409.285 736.842 409.588 737.2 409.797C737.558 410.002 737.973 410.105 738.447 410.105C738.756 410.105 739.034 410.062 739.283 409.976C739.535 409.886 739.752 409.754 739.934 409.578C740.116 409.399 740.257 409.177 740.357 408.912L741.49 409.23C741.371 409.615 741.17 409.953 740.888 410.244C740.607 410.533 740.259 410.758 739.844 410.92C739.43 411.08 738.964 411.159 738.447 411.159ZM748.803 405.074L747.749 405.372C747.683 405.196 747.585 405.026 747.456 404.86C747.33 404.691 747.158 404.552 746.939 404.442C746.72 404.333 746.44 404.278 746.099 404.278C745.631 404.278 745.242 404.386 744.93 404.602C744.622 404.814 744.468 405.084 744.468 405.412C744.468 405.704 744.574 405.934 744.786 406.103C744.998 406.272 745.33 406.413 745.781 406.526L746.914 406.804C747.597 406.97 748.106 407.223 748.44 407.565C748.775 407.903 748.942 408.339 748.942 408.872C748.942 409.31 748.817 409.701 748.565 410.045C748.316 410.39 747.968 410.662 747.521 410.861C747.073 411.06 746.553 411.159 745.96 411.159C745.181 411.159 744.536 410.99 744.026 410.652C743.515 410.314 743.192 409.82 743.056 409.17L744.17 408.892C744.276 409.303 744.476 409.611 744.771 409.817C745.07 410.022 745.459 410.125 745.94 410.125C746.487 410.125 746.921 410.009 747.242 409.777C747.567 409.542 747.729 409.26 747.729 408.932C747.729 408.667 747.637 408.445 747.451 408.266C747.265 408.083 746.98 407.947 746.596 407.858L745.323 407.56C744.624 407.394 744.11 407.137 743.782 406.789C743.457 406.438 743.295 405.999 743.295 405.472C743.295 405.041 743.416 404.66 743.658 404.328C743.903 403.997 744.236 403.737 744.657 403.548C745.081 403.359 745.562 403.264 746.099 403.264C746.854 403.264 747.448 403.43 747.879 403.761C748.313 404.093 748.621 404.53 748.803 405.074ZM750.709 411V403.364H751.882V411H750.709ZM751.305 402.091C751.077 402.091 750.879 402.013 750.714 401.857C750.551 401.701 750.47 401.514 750.47 401.295C750.47 401.077 750.551 400.889 750.714 400.734C750.879 400.578 751.077 400.5 751.305 400.5C751.534 400.5 751.729 400.578 751.892 400.734C752.058 400.889 752.14 401.077 752.14 401.295C752.14 401.514 752.058 401.701 751.892 401.857C751.729 402.013 751.534 402.091 751.305 402.091ZM757.113 414.023C756.547 414.023 756.059 413.95 755.652 413.804C755.244 413.661 754.904 413.473 754.632 413.237C754.364 413.005 754.15 412.757 753.991 412.491L754.926 411.835C755.032 411.974 755.166 412.134 755.328 412.312C755.491 412.495 755.713 412.652 755.995 412.785C756.28 412.921 756.653 412.989 757.113 412.989C757.73 412.989 758.239 412.839 758.64 412.541C759.041 412.243 759.241 411.776 759.241 411.139V409.588H759.142C759.056 409.727 758.933 409.9 758.774 410.105C758.618 410.307 758.393 410.488 758.098 410.647C757.806 410.803 757.412 410.881 756.914 410.881C756.298 410.881 755.744 410.735 755.254 410.443C754.767 410.152 754.381 409.727 754.096 409.17C753.814 408.614 753.673 407.937 753.673 407.142C753.673 406.36 753.81 405.679 754.086 405.099C754.361 404.515 754.743 404.065 755.234 403.746C755.725 403.425 756.291 403.264 756.934 403.264C757.431 403.264 757.826 403.347 758.118 403.513C758.413 403.675 758.638 403.861 758.794 404.07C758.953 404.275 759.075 404.444 759.162 404.577H759.281V403.364H760.414V411.219C760.414 411.875 760.265 412.409 759.967 412.82C759.672 413.234 759.274 413.537 758.774 413.729C758.277 413.925 757.723 414.023 757.113 414.023ZM757.074 409.827C757.544 409.827 757.942 409.719 758.267 409.504C758.592 409.288 758.838 408.978 759.007 408.574C759.176 408.17 759.261 407.686 759.261 407.122C759.261 406.572 759.178 406.086 759.012 405.665C758.847 405.245 758.601 404.915 758.277 404.676C757.952 404.437 757.551 404.318 757.074 404.318C756.576 404.318 756.162 404.444 755.831 404.696C755.502 404.948 755.256 405.286 755.09 405.71C754.927 406.134 754.846 406.605 754.846 407.122C754.846 407.652 754.929 408.121 755.095 408.529C755.264 408.933 755.512 409.252 755.841 409.484C756.172 409.712 756.583 409.827 757.074 409.827ZM763.735 406.406V411H762.562V403.364H763.696V404.557H763.795C763.974 404.169 764.246 403.857 764.61 403.622C764.975 403.384 765.446 403.264 766.022 403.264C766.539 403.264 766.992 403.37 767.38 403.582C767.767 403.791 768.069 404.109 768.284 404.537C768.5 404.961 768.608 405.498 768.608 406.148V411H767.434V406.227C767.434 405.627 767.279 405.16 766.967 404.825C766.655 404.487 766.228 404.318 765.684 404.318C765.31 404.318 764.975 404.399 764.68 404.562C764.388 404.724 764.158 404.961 763.989 405.273C763.82 405.584 763.735 405.962 763.735 406.406ZM769.711 401.912V400.818H777.348V401.912H774.146V411H772.913V401.912H769.711ZM781.086 411.159C780.397 411.159 779.792 410.995 779.272 410.667C778.755 410.339 778.35 409.88 778.059 409.29C777.77 408.7 777.626 408.01 777.626 407.222C777.626 406.426 777.77 405.732 778.059 405.138C778.35 404.545 778.755 404.085 779.272 403.756C779.792 403.428 780.397 403.264 781.086 403.264C781.776 403.264 782.379 403.428 782.896 403.756C783.416 404.085 783.821 404.545 784.109 405.138C784.401 405.732 784.547 406.426 784.547 407.222C784.547 408.01 784.401 408.7 784.109 409.29C783.821 409.88 783.416 410.339 782.896 410.667C782.379 410.995 781.776 411.159 781.086 411.159ZM781.086 410.105C781.61 410.105 782.041 409.971 782.379 409.702C782.717 409.434 782.967 409.081 783.13 408.643C783.292 408.206 783.373 407.732 783.373 407.222C783.373 406.711 783.292 406.236 783.13 405.795C782.967 405.354 782.717 404.998 782.379 404.726C782.041 404.454 781.61 404.318 781.086 404.318C780.563 404.318 780.132 404.454 779.794 404.726C779.456 404.998 779.205 405.354 779.043 405.795C778.881 406.236 778.799 406.711 778.799 407.222C778.799 407.732 778.881 408.206 779.043 408.643C779.205 409.081 779.456 409.434 779.794 409.702C780.132 409.971 780.563 410.105 781.086 410.105ZM789.44 411.159C788.75 411.159 788.146 410.995 787.625 410.667C787.108 410.339 786.704 409.88 786.412 409.29C786.124 408.7 785.98 408.01 785.98 407.222C785.98 406.426 786.124 405.732 786.412 405.138C786.704 404.545 787.108 404.085 787.625 403.756C788.146 403.428 788.75 403.264 789.44 403.264C790.129 403.264 790.732 403.428 791.249 403.756C791.77 404.085 792.174 404.545 792.463 405.138C792.754 405.732 792.9 406.426 792.9 407.222C792.9 408.01 792.754 408.7 792.463 409.29C792.174 409.88 791.77 410.339 791.249 410.667C790.732 410.995 790.129 411.159 789.44 411.159ZM789.44 410.105C789.963 410.105 790.394 409.971 790.732 409.702C791.07 409.434 791.321 409.081 791.483 408.643C791.646 408.206 791.727 407.732 791.727 407.222C791.727 406.711 791.646 406.236 791.483 405.795C791.321 405.354 791.07 404.998 790.732 404.726C790.394 404.454 789.963 404.318 789.44 404.318C788.916 404.318 788.485 404.454 788.147 404.726C787.809 404.998 787.559 405.354 787.396 405.795C787.234 406.236 787.153 406.711 787.153 407.222C787.153 407.732 787.234 408.206 787.396 408.643C787.559 409.081 787.809 409.434 788.147 409.702C788.485 409.971 788.916 410.105 789.44 410.105ZM795.864 400.818V411H794.691V400.818H795.864ZM803.422 405.074L802.368 405.372C802.302 405.196 802.204 405.026 802.075 404.86C801.949 404.691 801.777 404.552 801.558 404.442C801.339 404.333 801.059 404.278 800.718 404.278C800.251 404.278 799.861 404.386 799.55 404.602C799.241 404.814 799.087 405.084 799.087 405.412C799.087 405.704 799.193 405.934 799.405 406.103C799.617 406.272 799.949 406.413 800.4 406.526L801.533 406.804C802.216 406.97 802.725 407.223 803.059 407.565C803.394 407.903 803.562 408.339 803.562 408.872C803.562 409.31 803.436 409.701 803.184 410.045C802.935 410.39 802.587 410.662 802.14 410.861C801.692 411.06 801.172 411.159 800.579 411.159C799.8 411.159 799.155 410.99 798.645 410.652C798.134 410.314 797.811 409.82 797.675 409.17L798.789 408.892C798.895 409.303 799.095 409.611 799.39 409.817C799.689 410.022 800.078 410.125 800.559 410.125C801.106 410.125 801.54 410.009 801.861 409.777C802.186 409.542 802.349 409.26 802.349 408.932C802.349 408.667 802.256 408.445 802.07 408.266C801.885 408.083 801.599 407.947 801.215 407.858L799.942 407.56C799.243 407.394 798.729 407.137 798.401 406.789C798.076 406.438 797.914 405.999 797.914 405.472C797.914 405.041 798.035 404.66 798.277 404.328C798.522 403.997 798.855 403.737 799.276 403.548C799.7 403.359 800.181 403.264 800.718 403.264C801.474 403.264 802.067 403.43 802.498 403.761C802.932 404.093 803.24 404.53 803.422 405.074ZM809.703 406.088V407.182H805.248V406.088H809.703ZM811.633 400.818L814.656 409.389H814.775L817.798 400.818H819.09L815.352 411H814.079L810.34 400.818H811.633ZM820.517 411V403.364H821.691V411H820.517ZM821.114 402.091C820.885 402.091 820.688 402.013 820.522 401.857C820.36 401.701 820.279 401.514 820.279 401.295C820.279 401.077 820.36 400.889 820.522 400.734C820.688 400.578 820.885 400.5 821.114 400.5C821.343 400.5 821.538 400.578 821.7 400.734C821.866 400.889 821.949 401.077 821.949 401.295C821.949 401.514 821.866 401.701 821.7 401.857C821.538 402.013 821.343 402.091 821.114 402.091ZM829.249 405.074L828.195 405.372C828.128 405.196 828.031 405.026 827.901 404.86C827.775 404.691 827.603 404.552 827.384 404.442C827.165 404.333 826.885 404.278 826.544 404.278C826.077 404.278 825.687 404.386 825.376 404.602C825.067 404.814 824.913 405.084 824.913 405.412C824.913 405.704 825.019 405.934 825.232 406.103C825.444 406.272 825.775 406.413 826.226 406.526L827.359 406.804C828.042 406.97 828.551 407.223 828.886 407.565C829.22 407.903 829.388 408.339 829.388 408.872C829.388 409.31 829.262 409.701 829.01 410.045C828.761 410.39 828.413 410.662 827.966 410.861C827.518 411.06 826.998 411.159 826.405 411.159C825.626 411.159 824.981 410.99 824.471 410.652C823.96 410.314 823.637 409.82 823.501 409.17L824.615 408.892C824.721 409.303 824.922 409.611 825.217 409.817C825.515 410.022 825.904 410.125 826.385 410.125C826.932 410.125 827.366 410.009 827.688 409.777C828.012 409.542 828.175 409.26 828.175 408.932C828.175 408.667 828.082 408.445 827.896 408.266C827.711 408.083 827.426 407.947 827.041 407.858L825.768 407.56C825.069 407.394 824.555 407.137 824.227 406.789C823.902 406.438 823.74 405.999 823.74 405.472C823.74 405.041 823.861 404.66 824.103 404.328C824.348 403.997 824.681 403.737 825.102 403.548C825.527 403.359 826.007 403.264 826.544 403.264C827.3 403.264 827.893 403.43 828.324 403.761C828.758 404.093 829.066 404.53 829.249 405.074ZM835.966 407.878V403.364H837.14V411H835.966V409.707H835.887C835.708 410.095 835.43 410.425 835.052 410.697C834.674 410.965 834.197 411.099 833.62 411.099C833.143 411.099 832.718 410.995 832.347 410.786C831.976 410.574 831.684 410.256 831.472 409.832C831.26 409.404 831.154 408.866 831.154 408.216V403.364H832.327V408.136C832.327 408.693 832.483 409.137 832.795 409.469C833.109 409.8 833.51 409.966 833.998 409.966C834.289 409.966 834.586 409.891 834.888 409.742C835.193 409.593 835.448 409.364 835.653 409.056C835.862 408.748 835.966 408.355 835.966 407.878ZM841.536 411.179C841.052 411.179 840.613 411.088 840.218 410.906C839.824 410.72 839.511 410.453 839.279 410.105C839.047 409.754 838.931 409.33 838.931 408.832C838.931 408.395 839.017 408.04 839.189 407.768C839.362 407.493 839.592 407.278 839.88 407.122C840.169 406.966 840.487 406.85 840.835 406.774C841.186 406.695 841.539 406.632 841.894 406.585C842.358 406.526 842.734 406.481 843.022 406.451C843.314 406.418 843.526 406.363 843.659 406.287C843.795 406.211 843.863 406.078 843.863 405.889V405.849C843.863 405.359 843.728 404.978 843.46 404.706C843.195 404.434 842.792 404.298 842.252 404.298C841.692 404.298 841.252 404.421 840.934 404.666C840.616 404.911 840.392 405.173 840.263 405.452L839.15 405.054C839.348 404.59 839.614 404.229 839.945 403.97C840.28 403.708 840.644 403.526 841.039 403.423C841.436 403.317 841.828 403.264 842.212 403.264C842.457 403.264 842.739 403.294 843.057 403.354C843.379 403.41 843.689 403.528 843.987 403.707C844.288 403.886 844.539 404.156 844.738 404.517C844.936 404.878 845.036 405.362 845.036 405.969V411H843.863V409.966H843.803C843.723 410.132 843.591 410.309 843.405 410.498C843.22 410.687 842.973 410.848 842.664 410.98C842.356 411.113 841.98 411.179 841.536 411.179ZM841.715 410.125C842.179 410.125 842.57 410.034 842.888 409.852C843.21 409.669 843.452 409.434 843.614 409.146C843.78 408.857 843.863 408.554 843.863 408.236V407.162C843.813 407.222 843.703 407.276 843.534 407.326C843.369 407.372 843.176 407.414 842.958 407.45C842.742 407.483 842.532 407.513 842.326 407.54C842.124 407.563 841.96 407.583 841.834 407.599C841.529 407.639 841.244 407.704 840.979 407.793C840.717 407.879 840.505 408.01 840.343 408.186C840.184 408.358 840.104 408.594 840.104 408.892C840.104 409.3 840.255 409.608 840.556 409.817C840.861 410.022 841.248 410.125 841.715 410.125ZM848.351 400.818V411H847.177V400.818H848.351ZM854.875 406.088V407.182H850.42V406.088H854.875ZM857.098 411V400.818H863.243V401.912H858.331V405.352H862.925V406.446H858.331V409.906H863.323V411H857.098ZM868.19 411.159C867.553 411.159 866.992 410.998 866.504 410.677C866.017 410.352 865.636 409.895 865.361 409.305C865.086 408.711 864.948 408.01 864.948 407.202C864.948 406.4 865.086 405.704 865.361 405.114C865.636 404.524 866.019 404.068 866.509 403.746C867 403.425 867.567 403.264 868.21 403.264C868.707 403.264 869.1 403.347 869.388 403.513C869.68 403.675 869.902 403.861 870.054 404.07C870.21 404.275 870.331 404.444 870.417 404.577H870.517V400.818H871.69V411H870.556V409.827H870.417C870.331 409.966 870.208 410.142 870.049 410.354C869.89 410.562 869.663 410.75 869.368 410.915C869.073 411.078 868.68 411.159 868.19 411.159ZM868.349 410.105C868.82 410.105 869.217 409.982 869.542 409.737C869.867 409.489 870.114 409.146 870.283 408.708C870.452 408.267 870.536 407.759 870.536 407.182C870.536 406.612 870.454 406.113 870.288 405.685C870.122 405.254 869.877 404.92 869.552 404.681C869.227 404.439 868.826 404.318 868.349 404.318C867.852 404.318 867.437 404.446 867.106 404.701C866.778 404.953 866.531 405.296 866.365 405.73C866.203 406.161 866.122 406.645 866.122 407.182C866.122 407.725 866.204 408.219 866.37 408.663C866.539 409.104 866.788 409.455 867.116 409.717C867.447 409.976 867.858 410.105 868.349 410.105ZM874.002 411V403.364H875.175V411H874.002ZM874.598 402.091C874.369 402.091 874.172 402.013 874.007 401.857C873.844 401.701 873.763 401.514 873.763 401.295C873.763 401.077 873.844 400.889 874.007 400.734C874.172 400.578 874.369 400.5 874.598 400.5C874.827 400.5 875.022 400.578 875.185 400.734C875.351 400.889 875.433 401.077 875.433 401.295C875.433 401.514 875.351 401.701 875.185 401.857C875.022 402.013 874.827 402.091 874.598 402.091ZM880.645 403.364V404.358H876.688V403.364H880.645ZM877.841 401.534H879.014V408.812C879.014 409.144 879.062 409.393 879.158 409.558C879.258 409.721 879.384 409.83 879.536 409.886C879.692 409.939 879.856 409.966 880.028 409.966C880.158 409.966 880.264 409.959 880.347 409.946C880.429 409.929 880.496 409.916 880.545 409.906L880.784 410.96C880.705 410.99 880.594 411.02 880.451 411.05C880.308 411.083 880.128 411.099 879.909 411.099C879.578 411.099 879.253 411.028 878.935 410.886C878.62 410.743 878.358 410.526 878.149 410.234C877.944 409.943 877.841 409.575 877.841 409.131V401.534ZM885.43 411.159C884.741 411.159 884.136 410.995 883.615 410.667C883.098 410.339 882.694 409.88 882.402 409.29C882.114 408.7 881.97 408.01 881.97 407.222C881.97 406.426 882.114 405.732 882.402 405.138C882.694 404.545 883.098 404.085 883.615 403.756C884.136 403.428 884.741 403.264 885.43 403.264C886.119 403.264 886.723 403.428 887.24 403.756C887.76 404.085 888.164 404.545 888.453 405.138C888.744 405.732 888.89 406.426 888.89 407.222C888.89 408.01 888.744 408.7 888.453 409.29C888.164 409.88 887.76 410.339 887.24 410.667C886.723 410.995 886.119 411.159 885.43 411.159ZM885.43 410.105C885.954 410.105 886.385 409.971 886.723 409.702C887.061 409.434 887.311 409.081 887.473 408.643C887.636 408.206 887.717 407.732 887.717 407.222C887.717 406.711 887.636 406.236 887.473 405.795C887.311 405.354 887.061 404.998 886.723 404.726C886.385 404.454 885.954 404.318 885.43 404.318C884.906 404.318 884.475 404.454 884.137 404.726C883.799 404.998 883.549 405.354 883.387 405.795C883.224 406.236 883.143 406.711 883.143 407.222C883.143 407.732 883.224 408.206 883.387 408.643C883.549 409.081 883.799 409.434 884.137 409.702C884.475 409.971 884.906 410.105 885.43 410.105ZM890.681 411V403.364H891.815V404.517H891.894C892.034 404.139 892.285 403.833 892.65 403.597C893.015 403.362 893.426 403.244 893.883 403.244C893.969 403.244 894.077 403.246 894.206 403.249C894.335 403.253 894.433 403.258 894.499 403.264V404.457C894.46 404.447 894.369 404.433 894.226 404.413C894.087 404.389 893.939 404.378 893.784 404.378C893.412 404.378 893.081 404.456 892.789 404.612C892.501 404.764 892.272 404.976 892.103 405.248C891.937 405.516 891.855 405.823 891.855 406.168V411H890.681ZM897.422 408.136V408.077C897.428 407.444 897.494 406.94 897.62 406.565C897.746 406.191 897.925 405.888 898.157 405.656C898.389 405.424 898.668 405.21 898.993 405.014C899.188 404.895 899.364 404.754 899.52 404.592C899.675 404.426 899.798 404.235 899.887 404.02C899.98 403.804 900.027 403.566 900.027 403.304C900.027 402.979 899.95 402.697 899.798 402.459C899.645 402.22 899.442 402.036 899.186 401.907C898.931 401.778 898.648 401.713 898.336 401.713C898.065 401.713 897.803 401.769 897.551 401.882C897.299 401.995 897.088 402.172 896.919 402.414C896.75 402.656 896.653 402.973 896.626 403.364H895.373C895.4 402.8 895.546 402.318 895.811 401.917C896.079 401.516 896.432 401.209 896.87 400.997C897.31 400.785 897.799 400.679 898.336 400.679C898.92 400.679 899.427 400.795 899.858 401.027C900.292 401.259 900.627 401.577 900.862 401.982C901.1 402.386 901.22 402.847 901.22 403.364C901.22 403.728 901.163 404.058 901.051 404.353C900.941 404.648 900.782 404.911 900.574 405.143C900.368 405.375 900.119 405.581 899.828 405.76C899.536 405.942 899.302 406.134 899.127 406.337C898.951 406.536 898.824 406.772 898.744 407.048C898.664 407.323 898.621 407.666 898.615 408.077V408.136H897.422ZM898.058 411.08C897.813 411.08 897.602 410.992 897.426 410.816C897.251 410.64 897.163 410.43 897.163 410.185C897.163 409.939 897.251 409.729 897.426 409.553C897.602 409.378 897.813 409.29 898.058 409.29C898.303 409.29 898.514 409.378 898.689 409.553C898.865 409.729 898.953 409.939 898.953 410.185C898.953 410.347 898.911 410.496 898.828 410.632C898.749 410.768 898.641 410.877 898.505 410.96C898.373 411.04 898.224 411.08 898.058 411.08ZM904.159 406.406V411H902.986V403.364H904.119V404.557H904.219C904.398 404.169 904.67 403.857 905.034 403.622C905.399 403.384 905.869 403.264 906.446 403.264C906.963 403.264 907.416 403.37 907.803 403.582C908.191 403.791 908.493 404.109 908.708 404.537C908.924 404.961 909.031 405.498 909.031 406.148V411H907.858V406.227C907.858 405.627 907.702 405.16 907.391 404.825C907.079 404.487 906.652 404.318 906.108 404.318C905.734 404.318 905.399 404.399 905.104 404.562C904.812 404.724 904.582 404.961 904.413 405.273C904.244 405.584 904.159 405.962 904.159 406.406ZM914.278 411.159C913.588 411.159 912.983 410.995 912.463 410.667C911.946 410.339 911.542 409.88 911.25 409.29C910.962 408.7 910.817 408.01 910.817 407.222C910.817 406.426 910.962 405.732 911.25 405.138C911.542 404.545 911.946 404.085 912.463 403.756C912.983 403.428 913.588 403.264 914.278 403.264C914.967 403.264 915.57 403.428 916.087 403.756C916.608 404.085 917.012 404.545 917.3 405.138C917.592 405.732 917.738 406.426 917.738 407.222C917.738 408.01 917.592 408.7 917.3 409.29C917.012 409.88 916.608 410.339 916.087 410.667C915.57 410.995 914.967 411.159 914.278 411.159ZM914.278 410.105C914.801 410.105 915.232 409.971 915.57 409.702C915.908 409.434 916.159 409.081 916.321 408.643C916.483 408.206 916.565 407.732 916.565 407.222C916.565 406.711 916.483 406.236 916.321 405.795C916.159 405.354 915.908 404.998 915.57 404.726C915.232 404.454 914.801 404.318 914.278 404.318C913.754 404.318 913.323 404.454 912.985 404.726C912.647 404.998 912.397 405.354 912.234 405.795C912.072 406.236 911.991 406.711 911.991 407.222C911.991 407.732 912.072 408.206 912.234 408.643C912.397 409.081 912.647 409.434 912.985 409.702C913.323 409.971 913.754 410.105 914.278 410.105ZM922.412 411.159C921.776 411.159 921.214 410.998 920.727 410.677C920.24 410.352 919.859 409.895 919.584 409.305C919.309 408.711 919.171 408.01 919.171 407.202C919.171 406.4 919.309 405.704 919.584 405.114C919.859 404.524 920.242 404.068 920.732 403.746C921.223 403.425 921.789 403.264 922.432 403.264C922.93 403.264 923.322 403.347 923.611 403.513C923.902 403.675 924.124 403.861 924.277 404.07C924.433 404.275 924.554 404.444 924.64 404.577H924.739V400.818H925.912V411H924.779V409.827H924.64C924.554 409.966 924.431 410.142 924.272 410.354C924.113 410.562 923.886 410.75 923.591 410.915C923.296 411.078 922.903 411.159 922.412 411.159ZM922.572 410.105C923.042 410.105 923.44 409.982 923.765 409.737C924.09 409.489 924.336 409.146 924.506 408.708C924.675 408.267 924.759 407.759 924.759 407.182C924.759 406.612 924.676 406.113 924.51 405.685C924.345 405.254 924.099 404.92 923.775 404.681C923.45 404.439 923.049 404.318 922.572 404.318C922.074 404.318 921.66 404.446 921.329 404.701C921.001 404.953 920.754 405.296 920.588 405.73C920.425 406.161 920.344 406.645 920.344 407.182C920.344 407.725 920.427 408.219 920.593 408.663C920.762 409.104 921.01 409.455 921.339 409.717C921.67 409.976 922.081 410.105 922.572 410.105ZM931.426 411.159C930.69 411.159 930.055 410.997 929.522 410.672C928.992 410.344 928.582 409.886 928.294 409.3C928.009 408.71 927.866 408.024 927.866 407.241C927.866 406.459 928.009 405.77 928.294 405.173C928.582 404.573 928.983 404.106 929.497 403.771C930.014 403.433 930.617 403.264 931.307 403.264C931.704 403.264 932.097 403.33 932.485 403.463C932.873 403.596 933.226 403.811 933.544 404.109C933.862 404.404 934.116 404.795 934.305 405.283C934.493 405.77 934.588 406.37 934.588 407.082V407.58H928.702V406.565H933.395C933.395 406.134 933.309 405.75 933.136 405.412C932.967 405.074 932.725 404.807 932.41 404.612C932.099 404.416 931.731 404.318 931.307 404.318C930.839 404.318 930.435 404.434 930.094 404.666C929.756 404.895 929.495 405.193 929.313 405.561C929.131 405.929 929.04 406.323 929.04 406.744V407.42C929.04 407.997 929.139 408.486 929.338 408.887C929.54 409.285 929.82 409.588 930.178 409.797C930.536 410.002 930.952 410.105 931.426 410.105C931.734 410.105 932.013 410.062 932.261 409.976C932.513 409.886 932.73 409.754 932.912 409.578C933.095 409.399 933.236 409.177 933.335 408.912L934.469 409.23C934.349 409.615 934.149 409.953 933.867 410.244C933.585 410.533 933.237 410.758 932.823 410.92C932.409 411.08 931.943 411.159 931.426 411.159ZM940.748 406.088V407.182H936.293V406.088H940.748ZM942.812 411V403.364H943.985V411H942.812ZM943.409 402.091C943.18 402.091 942.983 402.013 942.817 401.857C942.655 401.701 942.574 401.514 942.574 401.295C942.574 401.077 942.655 400.889 942.817 400.734C942.983 400.578 943.18 400.5 943.409 400.5C943.637 400.5 943.833 400.578 943.995 400.734C944.161 400.889 944.244 401.077 944.244 401.295C944.244 401.514 944.161 401.701 943.995 401.857C943.833 402.013 943.637 402.091 943.409 402.091ZM949.018 411.159C948.382 411.159 947.82 410.998 947.333 410.677C946.845 410.352 946.464 409.895 946.189 409.305C945.914 408.711 945.776 408.01 945.776 407.202C945.776 406.4 945.914 405.704 946.189 405.114C946.464 404.524 946.847 404.068 947.338 403.746C947.828 403.425 948.395 403.264 949.038 403.264C949.535 403.264 949.928 403.347 950.216 403.513C950.508 403.675 950.73 403.861 950.882 404.07C951.038 404.275 951.159 404.444 951.245 404.577H951.345V400.818H952.518V411H951.384V409.827H951.245C951.159 409.966 951.036 410.142 950.877 410.354C950.718 410.562 950.491 410.75 950.196 410.915C949.901 411.078 949.508 411.159 949.018 411.159ZM949.177 410.105C949.648 410.105 950.045 409.982 950.37 409.737C950.695 409.489 950.942 409.146 951.111 408.708C951.28 408.267 951.365 407.759 951.365 407.182C951.365 406.612 951.282 406.113 951.116 405.685C950.95 405.254 950.705 404.92 950.38 404.681C950.055 404.439 949.654 404.318 949.177 404.318C948.68 404.318 948.266 404.446 947.934 404.701C947.606 404.953 947.359 405.296 947.193 405.73C947.031 406.161 946.95 406.645 946.95 407.182C946.95 407.725 947.033 408.219 947.198 408.663C947.367 409.104 947.616 409.455 947.944 409.717C948.276 409.976 948.686 410.105 949.177 410.105ZM955.307 406.088V405.014H961.432V406.088H955.307ZM955.307 409.031V407.957H961.432V409.031H955.307ZM967.479 411.139C966.822 411.139 966.237 411.027 965.724 410.801C965.213 410.576 964.807 410.263 964.506 409.862C964.207 409.457 964.045 408.988 964.018 408.455H965.271C965.298 408.783 965.411 409.066 965.609 409.305C965.808 409.54 966.068 409.722 966.39 409.852C966.711 409.981 967.068 410.045 967.459 410.045C967.896 410.045 968.284 409.969 968.622 409.817C968.96 409.664 969.225 409.452 969.418 409.18C969.61 408.909 969.706 408.594 969.706 408.236C969.706 407.861 969.613 407.531 969.428 407.246C969.242 406.958 968.97 406.733 968.612 406.57C968.254 406.408 967.817 406.327 967.3 406.327H966.484V405.233H967.3C967.704 405.233 968.059 405.16 968.364 405.014C968.672 404.868 968.912 404.663 969.085 404.398C969.26 404.133 969.348 403.821 969.348 403.463C969.348 403.118 969.272 402.818 969.119 402.563C968.967 402.308 968.751 402.109 968.473 401.967C968.198 401.824 967.873 401.753 967.499 401.753C967.147 401.753 966.816 401.817 966.504 401.947C966.196 402.073 965.944 402.257 965.749 402.499C965.553 402.737 965.447 403.026 965.43 403.364H964.237C964.257 402.83 964.418 402.363 964.719 401.962C965.021 401.557 965.415 401.242 965.903 401.017C966.393 400.792 966.932 400.679 967.518 400.679C968.148 400.679 968.688 400.807 969.139 401.062C969.59 401.314 969.936 401.647 970.178 402.061C970.42 402.475 970.541 402.923 970.541 403.403C970.541 403.977 970.39 404.466 970.089 404.87C969.79 405.274 969.384 405.554 968.871 405.71V405.79C969.514 405.896 970.016 406.169 970.377 406.61C970.738 407.048 970.919 407.589 970.919 408.236C970.919 408.789 970.768 409.286 970.467 409.727C970.168 410.165 969.761 410.509 969.244 410.761C968.727 411.013 968.138 411.139 967.479 411.139ZM976.393 411.139C975.737 411.139 975.152 411.027 974.638 410.801C974.127 410.576 973.721 410.263 973.42 409.862C973.121 409.457 972.959 408.988 972.933 408.455H974.185C974.212 408.783 974.325 409.066 974.523 409.305C974.722 409.54 974.982 409.722 975.304 409.852C975.625 409.981 975.982 410.045 976.373 410.045C976.81 410.045 977.198 409.969 977.536 409.817C977.874 409.664 978.139 409.452 978.332 409.18C978.524 408.909 978.62 408.594 978.62 408.236C978.62 407.861 978.527 407.531 978.342 407.246C978.156 406.958 977.884 406.733 977.526 406.57C977.168 406.408 976.731 406.327 976.214 406.327H975.398V405.233H976.214C976.618 405.233 976.973 405.16 977.278 405.014C977.586 404.868 977.826 404.663 977.999 404.398C978.174 404.133 978.262 403.821 978.262 403.463C978.262 403.118 978.186 402.818 978.033 402.563C977.881 402.308 977.665 402.109 977.387 401.967C977.112 401.824 976.787 401.753 976.413 401.753C976.061 401.753 975.73 401.817 975.418 401.947C975.11 402.073 974.858 402.257 974.663 402.499C974.467 402.737 974.361 403.026 974.344 403.364H973.151C973.171 402.83 973.332 402.363 973.634 401.962C973.935 401.557 974.33 401.242 974.817 401.017C975.307 400.792 975.846 400.679 976.433 400.679C977.062 400.679 977.603 400.807 978.053 401.062C978.504 401.314 978.85 401.647 979.092 402.061C979.334 402.475 979.455 402.923 979.455 403.403C979.455 403.977 979.304 404.466 979.003 404.87C978.705 405.274 978.299 405.554 977.785 405.71V405.79C978.428 405.896 978.93 406.169 979.291 406.61C979.652 407.048 979.833 407.589 979.833 408.236C979.833 408.789 979.682 409.286 979.381 409.727C979.082 410.165 978.675 410.509 978.158 410.761C977.641 411.013 977.052 411.139 976.393 411.139ZM982.185 411L986.739 401.991V401.912H981.489V400.818H988.011V401.972L983.477 411H982.185ZM994.259 405.362V406.456H989.805V405.362H994.259ZM999.685 411.139C999.267 411.133 998.849 411.053 998.432 410.901C998.014 410.748 997.633 410.491 997.288 410.13C996.944 409.765 996.667 409.273 996.458 408.653C996.249 408.03 996.145 407.248 996.145 406.307C996.145 405.405 996.229 404.607 996.398 403.911C996.567 403.211 996.813 402.623 997.134 402.146C997.456 401.665 997.844 401.3 998.298 401.052C998.755 400.803 999.27 400.679 999.844 400.679C1000.41 400.679 1000.92 400.793 1001.37 401.022C1001.81 401.247 1002.18 401.562 1002.46 401.967C1002.74 402.371 1002.92 402.837 1003.01 403.364H1001.79C1001.68 402.906 1001.46 402.527 1001.14 402.225C1000.81 401.924 1000.38 401.773 999.844 401.773C999.055 401.773 998.433 402.116 997.979 402.802C997.529 403.488 997.302 404.451 997.298 405.69H997.378C997.563 405.409 997.784 405.168 998.039 404.969C998.298 404.767 998.583 404.612 998.894 404.502C999.206 404.393 999.536 404.338 999.884 404.338C1000.47 404.338 1001 404.484 1001.48 404.776C1001.97 405.064 1002.36 405.463 1002.65 405.974C1002.94 406.481 1003.09 407.062 1003.09 407.719C1003.09 408.348 1002.94 408.925 1002.66 409.449C1002.38 409.969 1001.98 410.384 1001.47 410.692C1000.97 410.997 1000.37 411.146 999.685 411.139ZM999.685 410.045C1000.1 410.045 1000.48 409.941 1000.81 409.732C1001.14 409.523 1001.41 409.243 1001.6 408.892C1001.79 408.541 1001.89 408.15 1001.89 407.719C1001.89 407.298 1001.8 406.915 1001.61 406.57C1001.42 406.222 1001.17 405.946 1000.84 405.74C1000.51 405.535 1000.14 405.432 999.724 405.432C999.41 405.432 999.116 405.495 998.844 405.621C998.573 405.743 998.334 405.912 998.129 406.128C997.926 406.343 997.767 406.59 997.651 406.869C997.535 407.144 997.477 407.434 997.477 407.739C997.477 408.143 997.572 408.521 997.761 408.872C997.953 409.223 998.215 409.507 998.546 409.722C998.881 409.938 999.26 410.045 999.685 410.045ZM1008.36 411.139C1007.61 411.139 1006.97 410.935 1006.45 410.528C1005.92 410.117 1005.52 409.522 1005.24 408.743C1004.96 407.961 1004.82 407.016 1004.82 405.909C1004.82 404.809 1004.96 403.869 1005.24 403.09C1005.52 402.308 1005.93 401.711 1006.45 401.3C1006.98 400.886 1007.62 400.679 1008.36 400.679C1009.1 400.679 1009.74 400.886 1010.27 401.3C1010.8 401.711 1011.2 402.308 1011.48 403.09C1011.76 403.869 1011.9 404.809 1011.9 405.909C1011.9 407.016 1011.76 407.961 1011.48 408.743C1011.21 409.522 1010.8 410.117 1010.28 410.528C1009.75 410.935 1009.11 411.139 1008.36 411.139ZM1008.36 410.045C1009.1 410.045 1009.68 409.687 1010.09 408.972C1010.5 408.256 1010.71 407.235 1010.71 405.909C1010.71 405.027 1010.61 404.277 1010.42 403.657C1010.24 403.037 1009.97 402.565 1009.62 402.24C1009.27 401.915 1008.85 401.753 1008.36 401.753C1007.63 401.753 1007.05 402.116 1006.64 402.842C1006.22 403.564 1006.01 404.587 1006.01 405.909C1006.01 406.791 1006.11 407.54 1006.29 408.156C1006.48 408.773 1006.75 409.242 1007.09 409.563C1007.44 409.885 1007.87 410.045 1008.36 410.045ZM1017.05 411.139C1016.37 411.139 1015.77 411.018 1015.24 410.776C1014.72 410.531 1014.32 410.195 1014.02 409.767C1013.73 409.336 1013.59 408.846 1013.59 408.295C1013.59 407.865 1013.67 407.467 1013.84 407.102C1014.02 406.734 1014.25 406.428 1014.55 406.183C1014.85 405.934 1015.19 405.777 1015.56 405.71V405.651C1015.07 405.525 1014.69 405.251 1014.4 404.83C1014.11 404.406 1013.97 403.924 1013.97 403.384C1013.97 402.866 1014.1 402.404 1014.36 401.996C1014.63 401.589 1014.99 401.267 1015.46 401.032C1015.92 400.797 1016.46 400.679 1017.05 400.679C1017.64 400.679 1018.17 400.797 1018.63 401.032C1019.1 401.267 1019.46 401.589 1019.73 401.996C1019.99 402.404 1020.13 402.866 1020.13 403.384C1020.13 403.924 1019.98 404.406 1019.69 404.83C1019.4 405.251 1019.02 405.525 1018.54 405.651V405.71C1018.91 405.777 1019.24 405.934 1019.54 406.183C1019.83 406.428 1020.07 406.734 1020.24 407.102C1020.42 407.467 1020.51 407.865 1020.51 408.295C1020.51 408.846 1020.36 409.336 1020.06 409.767C1019.77 410.195 1019.37 410.531 1018.85 410.776C1018.33 411.018 1017.73 411.139 1017.05 411.139ZM1017.05 410.045C1017.51 410.045 1017.91 409.971 1018.24 409.822C1018.58 409.673 1018.84 409.462 1019.02 409.19C1019.2 408.919 1019.3 408.6 1019.3 408.236C1019.3 407.851 1019.2 407.512 1019 407.217C1018.8 406.922 1018.54 406.69 1018.2 406.521C1017.87 406.352 1017.48 406.267 1017.05 406.267C1016.62 406.267 1016.23 406.352 1015.89 406.521C1015.55 406.69 1015.28 406.922 1015.09 407.217C1014.9 407.512 1014.8 407.851 1014.8 408.236C1014.8 408.6 1014.89 408.919 1015.07 409.19C1015.25 409.462 1015.51 409.673 1015.85 409.822C1016.19 409.971 1016.59 410.045 1017.05 410.045ZM1017.05 405.213C1017.42 405.213 1017.74 405.14 1018.02 404.994C1018.31 404.848 1018.53 404.645 1018.69 404.383C1018.85 404.121 1018.94 403.814 1018.94 403.463C1018.94 403.118 1018.86 402.818 1018.7 402.563C1018.54 402.305 1018.32 402.106 1018.04 401.967C1017.75 401.824 1017.43 401.753 1017.05 401.753C1016.67 401.753 1016.34 401.824 1016.05 401.967C1015.77 402.106 1015.55 402.305 1015.39 402.563C1015.24 402.818 1015.16 403.118 1015.16 403.463C1015.16 403.814 1015.24 404.121 1015.4 404.383C1015.56 404.645 1015.78 404.848 1016.07 404.994C1016.35 405.14 1016.68 405.213 1017.05 405.213ZM1025.66 400.679C1026.08 400.682 1026.49 400.762 1026.91 400.918C1027.33 401.073 1027.71 401.332 1028.06 401.693C1028.4 402.051 1028.68 402.54 1028.89 403.16C1029.09 403.78 1029.2 404.557 1029.2 405.491C1029.2 406.396 1029.11 407.2 1028.94 407.903C1028.77 408.602 1028.53 409.192 1028.2 409.673C1027.89 410.153 1027.5 410.518 1027.04 410.766C1026.59 411.015 1026.07 411.139 1025.5 411.139C1024.93 411.139 1024.42 411.027 1023.97 410.801C1023.53 410.572 1023.16 410.256 1022.88 409.852C1022.6 409.444 1022.42 408.972 1022.34 408.435H1023.55C1023.66 408.902 1023.88 409.288 1024.2 409.593C1024.53 409.895 1024.96 410.045 1025.5 410.045C1026.29 410.045 1026.9 409.702 1027.36 409.016C1027.82 408.33 1028.05 407.361 1028.05 406.108H1027.97C1027.78 406.386 1027.56 406.627 1027.3 406.829C1027.05 407.031 1026.77 407.187 1026.45 407.296C1026.14 407.406 1025.81 407.46 1025.46 407.46C1024.88 407.46 1024.34 407.316 1023.85 407.028C1023.37 406.736 1022.98 406.337 1022.69 405.83C1022.4 405.319 1022.26 404.736 1022.26 404.08C1022.26 403.456 1022.4 402.886 1022.68 402.369C1022.96 401.849 1023.35 401.435 1023.86 401.126C1024.37 400.818 1024.97 400.669 1025.66 400.679ZM1025.66 401.773C1025.24 401.773 1024.86 401.877 1024.53 402.086C1024.2 402.291 1023.94 402.57 1023.74 402.921C1023.55 403.269 1023.45 403.655 1023.45 404.08C1023.45 404.504 1023.54 404.89 1023.73 405.238C1023.92 405.583 1024.18 405.858 1024.5 406.063C1024.83 406.265 1025.2 406.366 1025.62 406.366C1025.93 406.366 1026.23 406.305 1026.5 406.183C1026.77 406.057 1027.01 405.886 1027.21 405.67C1027.42 405.452 1027.58 405.205 1027.69 404.93C1027.81 404.651 1027.87 404.361 1027.87 404.06C1027.87 403.662 1027.77 403.289 1027.58 402.941C1027.39 402.593 1027.13 402.311 1026.79 402.096C1026.46 401.88 1026.08 401.773 1025.66 401.773ZM1034.06 411.139C1033.39 411.139 1032.81 411.017 1032.33 410.771C1031.84 410.526 1031.47 410.19 1031.21 409.762C1030.95 409.335 1030.82 408.846 1030.82 408.295C1030.82 407.871 1030.91 407.495 1031.08 407.167C1031.27 406.835 1031.52 406.529 1031.83 406.247C1032.16 405.962 1032.53 405.677 1032.94 405.392L1034.41 404.298C1034.7 404.109 1034.93 403.907 1035.11 403.692C1035.28 403.476 1035.37 403.195 1035.37 402.847C1035.37 402.588 1035.26 402.338 1035.03 402.096C1034.8 401.854 1034.5 401.733 1034.14 401.733C1033.88 401.733 1033.65 401.799 1033.45 401.932C1033.25 402.061 1033.1 402.227 1032.99 402.429C1032.88 402.628 1032.82 402.833 1032.82 403.045C1032.82 403.284 1032.89 403.526 1033.02 403.771C1033.15 404.013 1033.32 404.262 1033.52 404.517C1033.73 404.769 1033.94 405.027 1034.16 405.293L1038.83 411H1037.42L1033.56 406.347C1033.2 405.916 1032.88 405.525 1032.59 405.173C1032.29 404.822 1032.06 404.476 1031.89 404.134C1031.72 403.793 1031.63 403.423 1031.63 403.026C1031.63 402.568 1031.73 402.167 1031.93 401.822C1032.14 401.474 1032.43 401.204 1032.79 401.012C1033.17 400.817 1033.6 400.719 1034.1 400.719C1034.61 400.719 1035.05 400.818 1035.41 401.017C1035.78 401.213 1036.07 401.473 1036.26 401.798C1036.46 402.119 1036.56 402.469 1036.56 402.847C1036.56 403.334 1036.44 403.756 1036.2 404.114C1035.96 404.472 1035.63 404.805 1035.21 405.114L1033.18 406.625C1032.72 406.963 1032.41 407.291 1032.25 407.609C1032.09 407.928 1032.01 408.156 1032.01 408.295C1032.01 408.614 1032.09 408.91 1032.26 409.185C1032.42 409.46 1032.66 409.683 1032.96 409.852C1033.26 410.021 1033.61 410.105 1034.02 410.105C1034.4 410.105 1034.78 410.024 1035.14 409.862C1035.51 409.696 1035.84 409.457 1036.13 409.146C1036.43 408.834 1036.66 408.46 1036.84 408.022C1037.01 407.585 1037.1 407.092 1037.1 406.545H1038.23C1038.23 407.222 1038.16 407.773 1038 408.201C1037.84 408.629 1037.67 408.963 1037.47 409.205C1037.28 409.447 1037.12 409.628 1037 409.747C1036.96 409.797 1036.92 409.847 1036.89 409.896C1036.86 409.946 1036.82 409.996 1036.78 410.045C1036.45 410.413 1036.04 410.688 1035.54 410.871C1035.04 411.05 1034.54 411.139 1034.06 411.139ZM1043.45 403.364V404.358H1039.49V403.364H1043.45ZM1040.65 401.534H1041.82V408.812C1041.82 409.144 1041.87 409.393 1041.96 409.558C1042.06 409.721 1042.19 409.83 1042.34 409.886C1042.5 409.939 1042.66 409.966 1042.83 409.966C1042.96 409.966 1043.07 409.959 1043.15 409.946C1043.23 409.929 1043.3 409.916 1043.35 409.906L1043.59 410.96C1043.51 410.99 1043.4 411.02 1043.26 411.05C1043.11 411.083 1042.93 411.099 1042.71 411.099C1042.38 411.099 1042.06 411.028 1041.74 410.886C1041.42 410.743 1041.16 410.526 1040.95 410.234C1040.75 409.943 1040.65 409.575 1040.65 409.131V401.534ZM1045.69 406.088V405.014H1051.82V406.088H1045.69ZM1045.69 409.031V407.957H1051.82V409.031H1045.69ZM1057.66 400.679C1058.08 400.682 1058.5 400.762 1058.92 400.918C1059.34 401.073 1059.72 401.332 1060.06 401.693C1060.41 402.051 1060.68 402.54 1060.89 403.16C1061.1 403.78 1061.2 404.557 1061.2 405.491C1061.2 406.396 1061.12 407.2 1060.95 407.903C1060.78 408.602 1060.53 409.192 1060.21 409.673C1059.89 410.153 1059.5 410.518 1059.05 410.766C1058.59 411.015 1058.08 411.139 1057.51 411.139C1056.94 411.139 1056.43 411.027 1055.98 410.801C1055.54 410.572 1055.17 410.256 1054.89 409.852C1054.6 409.444 1054.42 408.972 1054.34 408.435H1055.56C1055.67 408.902 1055.88 409.288 1056.21 409.593C1056.54 409.895 1056.97 410.045 1057.51 410.045C1058.29 410.045 1058.91 409.702 1059.36 409.016C1059.82 408.33 1060.05 407.361 1060.05 406.108H1059.97C1059.79 406.386 1059.57 406.627 1059.31 406.829C1059.05 407.031 1058.77 407.187 1058.46 407.296C1058.15 407.406 1057.82 407.46 1057.47 407.46C1056.88 407.46 1056.35 407.316 1055.86 407.028C1055.38 406.736 1054.99 406.337 1054.7 405.83C1054.41 405.319 1054.26 404.736 1054.26 404.08C1054.26 403.456 1054.4 402.886 1054.68 402.369C1054.96 401.849 1055.36 401.435 1055.86 401.126C1056.38 400.818 1056.98 400.669 1057.66 400.679ZM1057.66 401.773C1057.25 401.773 1056.87 401.877 1056.54 402.086C1056.2 402.291 1055.94 402.57 1055.75 402.921C1055.55 403.269 1055.46 403.655 1055.46 404.08C1055.46 404.504 1055.55 404.89 1055.74 405.238C1055.92 405.583 1056.18 405.858 1056.51 406.063C1056.83 406.265 1057.21 406.366 1057.62 406.366C1057.94 406.366 1058.23 406.305 1058.5 406.183C1058.78 406.057 1059.01 405.886 1059.22 405.67C1059.42 405.452 1059.58 405.205 1059.7 404.93C1059.81 404.651 1059.87 404.361 1059.87 404.06C1059.87 403.662 1059.78 403.289 1059.58 402.941C1059.39 402.593 1059.13 402.311 1058.8 402.096C1058.47 401.88 1058.09 401.773 1057.66 401.773ZM1063.34 411V400.818H1066.9C1067.61 400.818 1068.19 400.941 1068.65 401.186C1069.11 401.428 1069.46 401.754 1069.68 402.165C1069.91 402.573 1070.02 403.026 1070.02 403.523C1070.02 403.96 1069.94 404.321 1069.79 404.607C1069.63 404.892 1069.43 405.117 1069.18 405.283C1068.93 405.448 1068.66 405.571 1068.37 405.651V405.75C1068.68 405.77 1068.99 405.879 1069.31 406.078C1069.62 406.277 1069.89 406.562 1070.1 406.933C1070.31 407.304 1070.42 407.759 1070.42 408.295C1070.42 408.806 1070.3 409.265 1070.07 409.673C1069.84 410.08 1069.47 410.403 1068.97 410.642C1068.47 410.881 1067.82 411 1067.02 411H1063.34ZM1064.57 409.906H1067.02C1067.82 409.906 1068.39 409.75 1068.73 409.439C1069.07 409.124 1069.24 408.743 1069.24 408.295C1069.24 407.951 1069.16 407.633 1068.98 407.341C1068.81 407.046 1068.56 406.811 1068.23 406.635C1067.91 406.456 1067.52 406.366 1067.08 406.366H1064.57V409.906ZM1064.57 405.293H1066.86C1067.23 405.293 1067.56 405.22 1067.86 405.074C1068.16 404.928 1068.4 404.723 1068.58 404.457C1068.76 404.192 1068.85 403.881 1068.85 403.523C1068.85 403.075 1068.69 402.696 1068.38 402.384C1068.07 402.069 1067.57 401.912 1066.9 401.912H1064.57V405.293ZM1072.44 411V400.818H1075.88C1076.68 400.818 1077.34 400.962 1077.84 401.251C1078.35 401.536 1078.73 401.922 1078.98 402.409C1079.22 402.896 1079.34 403.44 1079.34 404.04C1079.34 404.64 1079.22 405.185 1078.98 405.675C1078.73 406.166 1078.36 406.557 1077.85 406.849C1077.35 407.137 1076.7 407.281 1075.9 407.281H1073.44V406.188H1075.86C1076.41 406.188 1076.85 406.093 1077.18 405.904C1077.51 405.715 1077.75 405.46 1077.9 405.138C1078.06 404.814 1078.13 404.447 1078.13 404.04C1078.13 403.632 1078.06 403.268 1077.9 402.946C1077.75 402.625 1077.51 402.373 1077.18 402.19C1076.84 402.005 1076.4 401.912 1075.84 401.912H1073.68V411H1072.44ZM1082.03 411.08C1081.78 411.08 1081.57 410.992 1081.4 410.816C1081.22 410.64 1081.13 410.43 1081.13 410.185C1081.13 409.939 1081.22 409.729 1081.4 409.553C1081.57 409.378 1081.78 409.29 1082.03 409.29C1082.27 409.29 1082.48 409.378 1082.66 409.553C1082.83 409.729 1082.92 409.939 1082.92 410.185C1082.92 410.347 1082.88 410.496 1082.8 410.632C1082.72 410.768 1082.61 410.877 1082.47 410.96C1082.34 411.04 1082.19 411.08 1082.03 411.08ZM1085.84 411.08C1085.6 411.08 1085.39 410.992 1085.21 410.816C1085.04 410.64 1084.95 410.43 1084.95 410.185C1084.95 409.939 1085.04 409.729 1085.21 409.553C1085.39 409.378 1085.6 409.29 1085.84 409.29C1086.09 409.29 1086.3 409.378 1086.48 409.553C1086.65 409.729 1086.74 409.939 1086.74 410.185C1086.74 410.347 1086.7 410.496 1086.62 410.632C1086.54 410.768 1086.43 410.877 1086.29 410.96C1086.16 411.04 1086.01 411.08 1085.84 411.08ZM1089.66 411.08C1089.42 411.08 1089.21 410.992 1089.03 410.816C1088.86 410.64 1088.77 410.43 1088.77 410.185C1088.77 409.939 1088.86 409.729 1089.03 409.553C1089.21 409.378 1089.42 409.29 1089.66 409.29C1089.91 409.29 1090.12 409.378 1090.29 409.553C1090.47 409.729 1090.56 409.939 1090.56 410.185C1090.56 410.347 1090.52 410.496 1090.43 410.632C1090.35 410.768 1090.25 410.877 1090.11 410.96C1089.98 411.04 1089.83 411.08 1089.66 411.08Z" fill="#525252"/>
<rect x="1124" y="382" width="116" height="48" rx="8" fill="#E5E5E5"/>
<rect x="1124.5" y="382.5" width="115" height="47" rx="7.5" stroke="#555555" stroke-opacity="0.3"/>
<path d="M1139.01 412V400.364H1143.6C1144.48 400.364 1145.24 400.532 1145.86 400.869C1146.48 401.203 1146.95 401.667 1147.28 402.261C1147.61 402.852 1147.77 403.534 1147.77 404.307C1147.77 405.08 1147.61 405.761 1147.27 406.352C1146.94 406.943 1146.46 407.403 1145.82 407.733C1145.2 408.062 1144.43 408.227 1143.54 408.227H1140.61V406.256H1143.14C1143.62 406.256 1144.01 406.174 1144.31 406.011C1144.62 405.845 1144.85 405.616 1145.01 405.324C1145.16 405.028 1145.24 404.689 1145.24 404.307C1145.24 403.92 1145.16 403.583 1145.01 403.295C1144.85 403.004 1144.62 402.778 1144.31 402.619C1144 402.456 1143.61 402.375 1143.13 402.375H1141.47V412H1139.01ZM1149.33 412V403.273H1151.67V404.795H1151.76C1151.92 404.254 1152.19 403.845 1152.56 403.568C1152.94 403.288 1153.37 403.148 1153.86 403.148C1153.98 403.148 1154.11 403.155 1154.25 403.17C1154.39 403.186 1154.51 403.206 1154.62 403.233V405.381C1154.51 405.347 1154.35 405.316 1154.15 405.29C1153.95 405.263 1153.76 405.25 1153.6 405.25C1153.24 405.25 1152.92 405.328 1152.64 405.483C1152.37 405.634 1152.15 405.847 1151.98 406.119C1151.83 406.392 1151.75 406.706 1151.75 407.062V412H1149.33ZM1159.41 412.17C1158.53 412.17 1157.76 411.983 1157.12 411.608C1156.48 411.229 1155.98 410.703 1155.64 410.028C1155.29 409.35 1155.11 408.564 1155.11 407.67C1155.11 406.769 1155.29 405.981 1155.64 405.307C1155.98 404.629 1156.48 404.102 1157.12 403.727C1157.76 403.348 1158.53 403.159 1159.41 403.159C1160.29 403.159 1161.05 403.348 1161.69 403.727C1162.34 404.102 1162.83 404.629 1163.18 405.307C1163.53 405.981 1163.7 406.769 1163.7 407.67C1163.7 408.564 1163.53 409.35 1163.18 410.028C1162.83 410.703 1162.34 411.229 1161.69 411.608C1161.05 411.983 1160.29 412.17 1159.41 412.17ZM1159.42 410.295C1159.82 410.295 1160.16 410.182 1160.43 409.955C1160.7 409.723 1160.9 409.409 1161.03 409.011C1161.17 408.614 1161.24 408.161 1161.24 407.653C1161.24 407.146 1161.17 406.693 1161.03 406.295C1160.9 405.898 1160.7 405.583 1160.43 405.352C1160.16 405.121 1159.82 405.006 1159.42 405.006C1159.02 405.006 1158.67 405.121 1158.4 405.352C1158.13 405.583 1157.92 405.898 1157.78 406.295C1157.64 406.693 1157.57 407.146 1157.57 407.653C1157.57 408.161 1157.64 408.614 1157.78 409.011C1157.92 409.409 1158.13 409.723 1158.4 409.955C1158.67 410.182 1159.02 410.295 1159.42 410.295ZM1169.22 412.17C1168.33 412.17 1167.56 411.981 1166.91 411.602C1166.27 411.22 1165.78 410.689 1165.44 410.011C1165.1 409.333 1164.93 408.553 1164.93 407.67C1164.93 406.777 1165.1 405.992 1165.44 405.318C1165.79 404.64 1166.29 404.112 1166.93 403.733C1167.57 403.35 1168.33 403.159 1169.21 403.159C1169.97 403.159 1170.64 403.297 1171.21 403.574C1171.78 403.85 1172.23 404.239 1172.57 404.739C1172.9 405.239 1173.09 405.826 1173.12 406.5H1170.84C1170.77 406.064 1170.6 405.714 1170.32 405.449C1170.05 405.18 1169.69 405.045 1169.25 405.045C1168.88 405.045 1168.55 405.148 1168.27 405.352C1167.99 405.553 1167.77 405.847 1167.62 406.233C1167.46 406.619 1167.39 407.087 1167.39 407.636C1167.39 408.193 1167.46 408.667 1167.61 409.057C1167.77 409.447 1167.99 409.744 1168.27 409.949C1168.55 410.153 1168.88 410.256 1169.25 410.256C1169.53 410.256 1169.77 410.199 1169.99 410.085C1170.22 409.972 1170.4 409.807 1170.55 409.591C1170.69 409.371 1170.79 409.108 1170.84 408.801H1173.12C1173.08 409.468 1172.9 410.055 1172.57 410.562C1172.25 411.066 1171.81 411.46 1171.24 411.744C1170.67 412.028 1170 412.17 1169.22 412.17ZM1178.65 412.17C1177.75 412.17 1176.98 411.989 1176.33 411.625C1175.68 411.258 1175.19 410.739 1174.84 410.068C1174.49 409.394 1174.32 408.597 1174.32 407.676C1174.32 406.778 1174.49 405.991 1174.84 405.312C1175.19 404.634 1175.68 404.106 1176.31 403.727C1176.95 403.348 1177.69 403.159 1178.55 403.159C1179.13 403.159 1179.66 403.252 1180.16 403.438C1180.66 403.619 1181.09 403.894 1181.46 404.261C1181.84 404.629 1182.13 405.091 1182.34 405.648C1182.55 406.201 1182.65 406.848 1182.65 407.591V408.256H1175.28V406.756H1180.37C1180.37 406.407 1180.3 406.098 1180.15 405.83C1179.99 405.561 1179.78 405.35 1179.52 405.199C1179.25 405.044 1178.94 404.966 1178.59 404.966C1178.22 404.966 1177.9 405.051 1177.61 405.222C1177.33 405.388 1177.11 405.614 1176.95 405.898C1176.79 406.178 1176.71 406.491 1176.71 406.835V408.261C1176.71 408.693 1176.79 409.066 1176.95 409.381C1177.11 409.695 1177.34 409.938 1177.63 410.108C1177.93 410.278 1178.28 410.364 1178.69 410.364C1178.96 410.364 1179.2 410.326 1179.42 410.25C1179.65 410.174 1179.84 410.061 1180 409.909C1180.16 409.758 1180.28 409.572 1180.36 409.352L1182.6 409.5C1182.49 410.038 1182.25 410.508 1181.9 410.909C1181.55 411.307 1181.1 411.617 1180.55 411.841C1180 412.061 1179.37 412.17 1178.65 412.17ZM1191.49 405.761L1189.28 405.898C1189.24 405.708 1189.16 405.538 1189.03 405.386C1188.91 405.231 1188.74 405.108 1188.54 405.017C1188.34 404.922 1188.1 404.875 1187.82 404.875C1187.44 404.875 1187.13 404.955 1186.87 405.114C1186.61 405.269 1186.48 405.477 1186.48 405.739C1186.48 405.947 1186.56 406.123 1186.73 406.267C1186.9 406.411 1187.18 406.527 1187.59 406.614L1189.17 406.932C1190.02 407.106 1190.65 407.386 1191.07 407.773C1191.48 408.159 1191.69 408.667 1191.69 409.295C1191.69 409.867 1191.52 410.369 1191.19 410.801C1190.85 411.233 1190.39 411.57 1189.81 411.812C1189.23 412.051 1188.56 412.17 1187.81 412.17C1186.65 412.17 1185.73 411.93 1185.04 411.449C1184.36 410.964 1183.96 410.305 1183.85 409.472L1186.23 409.347C1186.3 409.699 1186.47 409.968 1186.75 410.153C1187.03 410.335 1187.38 410.426 1187.81 410.426C1188.24 410.426 1188.58 410.345 1188.83 410.182C1189.1 410.015 1189.23 409.801 1189.23 409.54C1189.23 409.32 1189.13 409.14 1188.95 409C1188.77 408.856 1188.49 408.746 1188.11 408.67L1186.6 408.369C1185.75 408.199 1185.11 407.903 1184.7 407.483C1184.28 407.062 1184.08 406.527 1184.08 405.875C1184.08 405.314 1184.23 404.831 1184.53 404.426C1184.84 404.021 1185.27 403.708 1185.82 403.489C1186.38 403.269 1187.03 403.159 1187.78 403.159C1188.88 403.159 1189.75 403.392 1190.38 403.858C1191.02 404.324 1191.39 404.958 1191.49 405.761ZM1200.48 405.761L1198.26 405.898C1198.22 405.708 1198.14 405.538 1198.02 405.386C1197.89 405.231 1197.73 405.108 1197.52 405.017C1197.32 404.922 1197.08 404.875 1196.8 404.875C1196.43 404.875 1196.11 404.955 1195.85 405.114C1195.59 405.269 1195.47 405.477 1195.47 405.739C1195.47 405.947 1195.55 406.123 1195.72 406.267C1195.88 406.411 1196.17 406.527 1196.57 406.614L1198.15 406.932C1199 407.106 1199.63 407.386 1200.05 407.773C1200.47 408.159 1200.68 408.667 1200.68 409.295C1200.68 409.867 1200.51 410.369 1200.17 410.801C1199.84 411.233 1199.38 411.57 1198.8 411.812C1198.22 412.051 1197.55 412.17 1196.79 412.17C1195.63 412.17 1194.71 411.93 1194.03 411.449C1193.35 410.964 1192.95 410.305 1192.83 409.472L1195.21 409.347C1195.28 409.699 1195.46 409.968 1195.73 410.153C1196.01 410.335 1196.36 410.426 1196.8 410.426C1197.22 410.426 1197.56 410.345 1197.82 410.182C1198.08 410.015 1198.21 409.801 1198.22 409.54C1198.21 409.32 1198.12 409.14 1197.94 409C1197.76 408.856 1197.48 408.746 1197.1 408.67L1195.59 408.369C1194.73 408.199 1194.1 407.903 1193.68 407.483C1193.27 407.062 1193.06 406.527 1193.06 405.875C1193.06 405.314 1193.21 404.831 1193.52 404.426C1193.82 404.021 1194.25 403.708 1194.81 403.489C1195.36 403.269 1196.02 403.159 1196.76 403.159C1197.86 403.159 1198.73 403.392 1199.36 403.858C1200 404.324 1200.37 404.958 1200.48 405.761ZM1202.2 412V403.273H1204.62V412H1202.2ZM1203.42 402.148C1203.06 402.148 1202.75 402.028 1202.49 401.79C1202.24 401.547 1202.11 401.258 1202.11 400.92C1202.11 400.587 1202.24 400.301 1202.49 400.062C1202.75 399.82 1203.06 399.699 1203.42 399.699C1203.78 399.699 1204.08 399.82 1204.34 400.062C1204.59 400.301 1204.72 400.587 1204.72 400.92C1204.72 401.258 1204.59 401.547 1204.34 401.79C1204.08 402.028 1203.78 402.148 1203.42 402.148ZM1208.98 406.955V412H1206.56V403.273H1208.87V404.812H1208.97C1209.16 404.305 1209.49 403.903 1209.94 403.608C1210.39 403.309 1210.95 403.159 1211.59 403.159C1212.2 403.159 1212.73 403.292 1213.18 403.557C1213.63 403.822 1213.98 404.201 1214.23 404.693C1214.48 405.182 1214.61 405.765 1214.61 406.443V412H1212.18V406.875C1212.19 406.341 1212.05 405.924 1211.78 405.625C1211.5 405.322 1211.12 405.17 1210.63 405.17C1210.31 405.17 1210.02 405.241 1209.77 405.381C1209.52 405.521 1209.33 405.725 1209.19 405.994C1209.05 406.259 1208.98 406.58 1208.98 406.955ZM1220.44 415.455C1219.66 415.455 1218.99 415.347 1218.43 415.131C1217.87 414.919 1217.43 414.629 1217.1 414.261C1216.77 413.894 1216.55 413.481 1216.46 413.023L1218.69 412.722C1218.76 412.896 1218.87 413.059 1219.02 413.21C1219.17 413.362 1219.36 413.483 1219.6 413.574C1219.85 413.669 1220.15 413.716 1220.5 413.716C1221.03 413.716 1221.46 413.587 1221.8 413.33C1222.15 413.076 1222.32 412.65 1222.32 412.051V410.455H1222.22C1222.11 410.697 1221.95 410.926 1221.74 411.142C1221.53 411.358 1221.26 411.534 1220.92 411.67C1220.59 411.807 1220.19 411.875 1219.73 411.875C1219.07 411.875 1218.48 411.723 1217.94 411.42C1217.4 411.114 1216.98 410.646 1216.66 410.017C1216.35 409.384 1216.19 408.585 1216.19 407.619C1216.19 406.631 1216.35 405.805 1216.67 405.142C1216.99 404.479 1217.42 403.983 1217.96 403.653C1218.49 403.324 1219.08 403.159 1219.72 403.159C1220.21 403.159 1220.62 403.242 1220.95 403.409C1221.28 403.572 1221.54 403.777 1221.75 404.023C1221.95 404.265 1222.11 404.504 1222.22 404.739H1222.31V403.273H1224.71V412.085C1224.71 412.828 1224.53 413.449 1224.17 413.949C1223.8 414.449 1223.3 414.824 1222.65 415.074C1222.01 415.328 1221.28 415.455 1220.44 415.455ZM1220.5 410.057C1220.89 410.057 1221.22 409.96 1221.48 409.767C1221.76 409.57 1221.97 409.29 1222.11 408.926C1222.26 408.559 1222.33 408.119 1222.33 407.608C1222.33 407.097 1222.26 406.653 1222.12 406.278C1221.97 405.9 1221.76 405.606 1221.49 405.398C1221.22 405.189 1220.89 405.085 1220.5 405.085C1220.1 405.085 1219.76 405.193 1219.49 405.409C1219.22 405.621 1219.01 405.917 1218.87 406.295C1218.73 406.674 1218.66 407.112 1218.66 407.608C1218.66 408.112 1218.73 408.547 1218.87 408.915C1219.01 409.278 1219.22 409.561 1219.49 409.761C1219.76 409.958 1220.1 410.057 1220.5 410.057Z" fill="#898989"/>
<defs>
<filter id="filter0_d_360_10625" x="208" y="395" width="25.9971" height="25.9976" filterUnits="userSpaceOnUse" color-interpolation-filters="sRGB">
<feFlood flood-opacity="0" result="BackgroundImageFix"/>
<feColorMatrix in="SourceAlpha" type="matrix" values="0 0 0 0 0 0 0 0 0 0 0 0 0 0 0 0 0 0 127 0" result="hardAlpha"/>
<feOffset dy="2"/>
<feGaussianBlur stdDeviation="2"/>
<feComposite in2="hardAlpha" operator="out"/>
<feColorMatrix type="matrix" values="0 0 0 0 0 0 0 0 0 0 0 0 0 0 0 0 0 0 0.25 0"/>
<feBlend mode="normal" in2="BackgroundImageFix" result="effect1_dropShadow_360_10625"/>
<feBlend mode="normal" in="SourceGraphic" in2="effect1_dropShadow_360_10625" result="shape"/>
</filter>
</defs>
</svg>
