<svg width="1440" height="812" viewBox="0 0 1440 812" fill="none" xmlns="http://www.w3.org/2000/svg">
<rect width="1440" height="812" fill="#F2F2F2"/>
<path d="M8.5 12C8.5 10.067 10.067 8.5 12 8.5H70C71.933 8.5 73.5 10.067 73.5 12V52C73.5 53.933 71.933 55.5 70 55.5H12C10.067 55.5 8.5 53.933 8.5 52V12Z" fill="white"/>
<path d="M8.5 12C8.5 10.067 10.067 8.5 12 8.5H70C71.933 8.5 73.5 10.067 73.5 12V52C73.5 53.933 71.933 55.5 70 55.5H12C10.067 55.5 8.5 53.933 8.5 52V12Z" stroke="#E5E5E5"/>
<g filter="url(#filter0_d_359_9532)">
<path d="M24.904 37.563C24.9572 37.8019 25.0821 38.0189 25.2621 38.1847C25.4421 38.3506 25.6685 38.4574 25.911 38.491C26.1535 38.5245 26.4004 38.4831 26.6186 38.3722C26.8369 38.2614 27.016 38.0865 27.132 37.871L29.222 34.778L34.129 39.685C34.2281 39.7841 34.3457 39.8627 34.4752 39.9163C34.6046 39.9699 34.7434 39.9975 34.8835 39.9975C35.0236 39.9975 35.1624 39.9699 35.2918 39.9163C35.4213 39.8627 35.5389 39.7841 35.638 39.685L36.685 38.638C36.7841 38.5389 36.8627 38.4213 36.9163 38.2918C36.9699 38.1624 36.9975 38.0236 36.9975 37.8835C36.9975 37.7434 36.9699 37.6046 36.9163 37.4752C36.8627 37.3457 36.7841 37.2281 36.685 37.129L31.778 32.222L34.891 30.132C35.1065 30.0159 35.2814 29.8367 35.3921 29.6184C35.5029 29.4001 35.5442 29.1531 35.5106 28.9106C35.477 28.6682 35.37 28.4418 35.204 28.2618C35.038 28.0819 34.821 27.957 34.582 27.904L21 24L24.904 37.563Z" fill="white"/>
<path d="M24.904 37.563C24.9572 37.8019 25.0821 38.0189 25.2621 38.1847C25.4421 38.3506 25.6685 38.4574 25.911 38.491C26.1535 38.5245 26.4004 38.4831 26.6186 38.3722C26.8369 38.2614 27.016 38.0865 27.132 37.871L29.222 34.778L34.129 39.685C34.2281 39.7841 34.3457 39.8627 34.4752 39.9163C34.6046 39.9699 34.7434 39.9975 34.8835 39.9975C35.0236 39.9975 35.1624 39.9699 35.2918 39.9163C35.4213 39.8627 35.5389 39.7841 35.638 39.685L36.685 38.638C36.7841 38.5389 36.8627 38.4213 36.9163 38.2918C36.9699 38.1624 36.9975 38.0236 36.9975 37.8835C36.9975 37.7434 36.9699 37.6046 36.9163 37.4752C36.8627 37.3457 36.7841 37.2281 36.685 37.129L31.778 32.222L34.891 30.132C35.1065 30.0159 35.2814 29.8367 35.3921 29.6184C35.5029 29.4001 35.5442 29.1531 35.5106 28.9106C35.477 28.6682 35.37 28.4418 35.204 28.2618C35.038 28.0819 34.821 27.957 34.582 27.904L21 24L24.904 37.563Z" stroke="black" stroke-width="2" stroke-linecap="round" stroke-linejoin="round"/>
</g>
<g opacity="0.5">
<path d="M48 30L53 35L58 30H48Z" fill="#555555"/>
</g>
<path d="M82.5 12C82.5 10.067 84.067 8.5 86 8.5H1304C1305.93 8.5 1307.5 10.067 1307.5 12V52C1307.5 53.933 1305.93 55.5 1304 55.5H86C84.067 55.5 82.5 53.933 82.5 52V12Z" fill="white"/>
<path d="M82.5 12C82.5 10.067 84.067 8.5 86 8.5H1304C1305.93 8.5 1307.5 10.067 1307.5 12V52C1307.5 53.933 1305.93 55.5 1304 55.5H86C84.067 55.5 82.5 53.933 82.5 52V12Z" stroke="#E5E5E5"/>
<rect x="90" y="16" width="1210" height="32" rx="4" fill="#F0F0F0" fill-opacity="0.6"/>
<g opacity="0.5">
<path d="M107.999 23.6666C103.399 23.6666 99.666 27.4 99.666 32C99.666 36.6 103.399 40.3333 107.999 40.3333C112.599 40.3333 116.333 36.6 116.333 32C116.333 27.4 112.599 23.6666 107.999 23.6666ZM107.999 38.6666C104.324 38.6666 101.333 35.675 101.333 32C101.333 28.325 104.324 25.3333 107.999 25.3333C111.674 25.3333 114.666 28.325 114.666 32C114.666 35.675 111.674 38.6666 107.999 38.6666ZM111.824 28.3166L106.333 33.8083L104.174 31.6583L102.999 32.8333L106.333 36.1666L112.999 29.5L111.824 28.3166Z" fill="#07750B"/>
</g>
<path opacity="0.5" d="M128.247 32.4062V37H127.074V26.8182H128.247V30.5568H128.347C128.526 30.1624 128.794 29.8492 129.152 29.6172C129.513 29.3819 129.994 29.2642 130.594 29.2642C131.114 29.2642 131.57 29.3686 131.961 29.5774C132.352 29.7829 132.655 30.0994 132.871 30.527C133.089 30.9512 133.199 31.4915 133.199 32.1477V37H132.026V32.2273C132.026 31.6207 131.868 31.1518 131.553 30.8203C131.242 30.4856 130.809 30.3182 130.256 30.3182C129.871 30.3182 129.527 30.3994 129.222 30.5618C128.92 30.7242 128.681 30.9612 128.506 31.2727C128.333 31.5843 128.247 31.9621 128.247 32.4062ZM138.666 29.3636V30.358H134.709V29.3636H138.666ZM135.862 27.5341H137.036V34.8125C137.036 35.1439 137.084 35.3925 137.18 35.5582C137.279 35.7206 137.405 35.83 137.558 35.8864C137.713 35.9394 137.878 35.9659 138.05 35.9659C138.179 35.9659 138.285 35.9593 138.368 35.946C138.451 35.9295 138.517 35.9162 138.567 35.9062L138.806 36.9602C138.726 36.9901 138.615 37.0199 138.472 37.0497C138.33 37.0829 138.149 37.0994 137.931 37.0994C137.599 37.0994 137.274 37.0282 136.956 36.8857C136.641 36.7431 136.379 36.526 136.171 36.2344C135.965 35.9427 135.862 35.5748 135.862 35.1307V27.5341ZM143.752 29.3636V30.358H139.795V29.3636H143.752ZM140.948 27.5341H142.122V34.8125C142.122 35.1439 142.17 35.3925 142.266 35.5582C142.365 35.7206 142.491 35.83 142.644 35.8864C142.799 35.9394 142.963 35.9659 143.136 35.9659C143.265 35.9659 143.371 35.9593 143.454 35.946C143.537 35.9295 143.603 35.9162 143.653 35.9062L143.892 36.9602C143.812 36.9901 143.701 37.0199 143.558 37.0497C143.416 37.0829 143.235 37.0994 143.017 37.0994C142.685 37.0994 142.36 37.0282 142.042 36.8857C141.727 36.7431 141.465 36.526 141.257 36.2344C141.051 35.9427 140.948 35.5748 140.948 35.1307V27.5341ZM145.517 39.8636V29.3636H146.651V30.5767H146.79C146.876 30.4441 146.995 30.2751 147.148 30.0696C147.304 29.8608 147.526 29.6752 147.814 29.5128C148.106 29.3471 148.5 29.2642 148.997 29.2642C149.64 29.2642 150.207 29.425 150.698 29.7464C151.188 30.0679 151.571 30.5237 151.846 31.1136C152.121 31.7036 152.259 32.3996 152.259 33.2017C152.259 34.0104 152.121 34.7114 151.846 35.3047C151.571 35.8946 151.19 36.352 150.703 36.6768C150.215 36.9983 149.654 37.1591 149.017 37.1591C148.527 37.1591 148.134 37.0779 147.839 36.9155C147.544 36.7498 147.317 36.5625 147.158 36.3537C146.999 36.1416 146.876 35.9659 146.79 35.8267H146.691V39.8636H145.517ZM146.671 33.1818C146.671 33.7585 146.755 34.2673 146.924 34.7081C147.093 35.1456 147.34 35.4886 147.665 35.7372C147.99 35.9825 148.387 36.1051 148.858 36.1051C149.349 36.1051 149.758 35.9759 150.086 35.7173C150.418 35.4555 150.666 35.1042 150.832 34.6634C151.001 34.2192 151.085 33.7254 151.085 33.1818C151.085 32.6449 151.003 32.161 150.837 31.7301C150.674 31.2959 150.427 30.9529 150.096 30.701C149.768 30.4458 149.355 30.3182 148.858 30.3182C148.381 30.3182 147.98 30.4392 147.655 30.6811C147.33 30.9197 147.085 31.2545 146.919 31.6854C146.753 32.1129 146.671 32.6117 146.671 33.1818ZM159.458 31.0739L158.404 31.3722C158.337 31.1965 158.24 31.0258 158.11 30.8601C157.984 30.6911 157.812 30.5518 157.593 30.4425C157.374 30.3331 157.094 30.2784 156.753 30.2784C156.286 30.2784 155.896 30.3861 155.585 30.6016C155.276 30.8137 155.122 31.0838 155.122 31.4119C155.122 31.7036 155.228 31.9339 155.441 32.103C155.653 32.272 155.984 32.4129 156.435 32.5256L157.568 32.804C158.251 32.9697 158.76 33.2232 159.095 33.5646C159.429 33.9027 159.597 34.3385 159.597 34.8722C159.597 35.3097 159.471 35.7008 159.219 36.0455C158.97 36.3902 158.622 36.6619 158.175 36.8608C157.727 37.0597 157.207 37.1591 156.614 37.1591C155.835 37.1591 155.19 36.9901 154.68 36.652C154.169 36.3139 153.846 35.8201 153.71 35.1705L154.824 34.892C154.93 35.303 155.131 35.6113 155.426 35.8168C155.724 36.0223 156.113 36.125 156.594 36.125C157.141 36.125 157.575 36.009 157.896 35.777C158.221 35.5417 158.384 35.2599 158.384 34.9318C158.384 34.6667 158.291 34.4446 158.105 34.2656C157.92 34.0833 157.635 33.9474 157.25 33.858L155.977 33.5597C155.278 33.3939 154.764 33.1371 154.436 32.7891C154.111 32.4377 153.949 31.9986 153.949 31.4716C153.949 31.0407 154.07 30.6596 154.312 30.3281C154.557 29.9967 154.89 29.7365 155.311 29.5476C155.735 29.3587 156.216 29.2642 156.753 29.2642C157.509 29.2642 158.102 29.4299 158.533 29.7614C158.967 30.0928 159.275 30.5303 159.458 31.0739ZM162.218 37.0795C161.973 37.0795 161.762 36.9917 161.587 36.8161C161.411 36.6404 161.323 36.4299 161.323 36.1847C161.323 35.9394 161.411 35.7289 161.587 35.5533C161.762 35.3776 161.973 35.2898 162.218 35.2898C162.463 35.2898 162.674 35.3776 162.849 35.5533C163.025 35.7289 163.113 35.9394 163.113 36.1847C163.113 36.3471 163.071 36.4962 162.989 36.6321C162.909 36.768 162.801 36.8774 162.665 36.9602C162.533 37.0398 162.384 37.0795 162.218 37.0795ZM162.218 31.4119C161.973 31.4119 161.762 31.3241 161.587 31.1484C161.411 30.9728 161.323 30.7623 161.323 30.517C161.323 30.2718 161.411 30.0613 161.587 29.8857C161.762 29.71 161.973 29.6222 162.218 29.6222C162.463 29.6222 162.674 29.71 162.849 29.8857C163.025 30.0613 163.113 30.2718 163.113 30.517C163.113 30.6795 163.071 30.8286 162.989 30.9645C162.909 31.1004 162.801 31.2098 162.665 31.2926C162.533 31.3722 162.384 31.4119 162.218 31.4119ZM168.818 26.3409L165.537 38.5312H164.463L167.744 26.3409H168.818ZM173.808 26.3409L170.527 38.5312H169.453L172.734 26.3409H173.808ZM176.929 37L174.602 29.3636H175.835L177.486 35.2102H177.565L179.196 29.3636H180.449L182.06 35.1903H182.139L183.79 29.3636H185.023L182.696 37H181.543L179.872 31.1335H179.753L178.082 37H176.929ZM188.304 37L185.977 29.3636H187.21L188.861 35.2102H188.94L190.571 29.3636H191.824L193.435 35.1903H193.514L195.165 29.3636H196.398L194.071 37H192.918L191.247 31.1335H191.128L189.457 37H188.304ZM199.679 37L197.352 29.3636H198.585L200.236 35.2102H200.315L201.946 29.3636H203.199L204.81 35.1903H204.889L206.54 29.3636H207.773L205.446 37H204.293L202.622 31.1335H202.503L200.832 37H199.679ZM209.14 37.0795C208.895 37.0795 208.684 36.9917 208.509 36.8161C208.333 36.6404 208.245 36.4299 208.245 36.1847C208.245 35.9394 208.333 35.7289 208.509 35.5533C208.684 35.3776 208.895 35.2898 209.14 35.2898C209.385 35.2898 209.596 35.3776 209.771 35.5533C209.947 35.7289 210.035 35.9394 210.035 36.1847C210.035 36.3471 209.993 36.4962 209.911 36.6321C209.831 36.768 209.723 36.8774 209.587 36.9602C209.455 37.0398 209.306 37.0795 209.14 37.0795ZM215.541 29.3636V30.358H211.424V29.3636H215.541ZM212.657 37V28.3097C212.657 27.8722 212.76 27.5076 212.966 27.2159C213.171 26.9242 213.438 26.7055 213.766 26.5597C214.094 26.4138 214.44 26.3409 214.805 26.3409C215.093 26.3409 215.329 26.3641 215.511 26.4105C215.693 26.4569 215.829 26.5 215.919 26.5398L215.581 27.554C215.521 27.5341 215.438 27.5092 215.332 27.4794C215.229 27.4496 215.093 27.4347 214.924 27.4347C214.537 27.4347 214.257 27.5324 214.084 27.728C213.915 27.9235 213.831 28.2102 213.831 28.5881V37H212.657ZM217.185 37V29.3636H218.358V37H217.185ZM217.782 28.0909C217.553 28.0909 217.356 28.013 217.19 27.8572C217.028 27.7015 216.947 27.5142 216.947 27.2955C216.947 27.0767 217.028 26.8894 217.19 26.7337C217.356 26.5779 217.553 26.5 217.782 26.5C218.01 26.5 218.206 26.5779 218.368 26.7337C218.534 26.8894 218.617 27.0767 218.617 27.2955C218.617 27.5142 218.534 27.7015 218.368 27.8572C218.206 28.013 218.01 28.0909 217.782 28.0909ZM223.59 40.0227C223.023 40.0227 222.536 39.9498 222.128 39.804C221.721 39.6615 221.381 39.4725 221.109 39.2372C220.841 39.0052 220.627 38.7566 220.468 38.4915L221.402 37.8352C221.508 37.9744 221.643 38.1335 221.805 38.3125C221.967 38.4948 222.19 38.6522 222.471 38.7848C222.756 38.9207 223.129 38.9886 223.59 38.9886C224.206 38.9886 224.715 38.8395 225.116 38.5412C225.517 38.2429 225.718 37.7756 225.718 37.1392V35.5881H225.618C225.532 35.7273 225.409 35.8996 225.25 36.1051C225.095 36.3073 224.869 36.4879 224.574 36.647C224.283 36.8028 223.888 36.8807 223.391 36.8807C222.775 36.8807 222.221 36.7348 221.73 36.4432C221.243 36.1515 220.857 35.7273 220.572 35.1705C220.29 34.6136 220.15 33.9375 220.15 33.142C220.15 32.3598 220.287 31.6787 220.562 31.0987C220.837 30.5154 221.22 30.0646 221.711 29.7464C222.201 29.425 222.768 29.2642 223.411 29.2642C223.908 29.2642 224.302 29.3471 224.594 29.5128C224.889 29.6752 225.114 29.8608 225.27 30.0696C225.429 30.2751 225.552 30.4441 225.638 30.5767H225.757V29.3636H226.891V37.2188C226.891 37.875 226.742 38.4086 226.444 38.8196C226.149 39.2339 225.751 39.5372 225.25 39.7294C224.753 39.925 224.2 40.0227 223.59 40.0227ZM223.55 35.8267C224.021 35.8267 224.418 35.719 224.743 35.5036C225.068 35.2881 225.315 34.9782 225.484 34.5739C225.653 34.1695 225.738 33.6856 225.738 33.1222C225.738 32.572 225.655 32.0864 225.489 31.6655C225.323 31.2446 225.078 30.9148 224.753 30.6761C224.428 30.4375 224.027 30.3182 223.55 30.3182C223.053 30.3182 222.639 30.4441 222.307 30.696C221.979 30.9479 221.732 31.286 221.566 31.7102C221.404 32.1345 221.323 32.6051 221.323 33.1222C221.323 33.6525 221.406 34.1214 221.571 34.5291C221.74 34.9335 221.989 35.2517 222.317 35.4837C222.649 35.7124 223.06 35.8267 223.55 35.8267ZM229.039 37V29.3636H230.172V30.5568H230.272C230.431 30.1491 230.688 29.8326 231.042 29.6072C231.397 29.3786 231.823 29.2642 232.32 29.2642C232.824 29.2642 233.243 29.3786 233.578 29.6072C233.916 29.8326 234.179 30.1491 234.368 30.5568H234.448C234.643 30.1624 234.937 29.8492 235.328 29.6172C235.719 29.3819 236.188 29.2642 236.735 29.2642C237.417 29.2642 237.976 29.478 238.41 29.9055C238.844 30.3298 239.061 30.991 239.061 31.8892V37H237.888V31.8892C237.888 31.3258 237.734 30.9231 237.426 30.6811C237.118 30.4392 236.755 30.3182 236.337 30.3182C235.8 30.3182 235.384 30.4806 235.089 30.8054C234.794 31.1269 234.647 31.5346 234.647 32.0284V37H233.453V31.7699C233.453 31.3357 233.313 30.986 233.031 30.7209C232.749 30.4524 232.386 30.3182 231.942 30.3182C231.637 30.3182 231.352 30.3994 231.087 30.5618C230.825 30.7242 230.613 30.9496 230.451 31.2379C230.292 31.523 230.212 31.8527 230.212 32.2273V37H229.039ZM243.454 37.179C242.97 37.179 242.531 37.0878 242.136 36.9055C241.742 36.7199 241.429 36.4531 241.197 36.1051C240.965 35.7538 240.849 35.3295 240.849 34.8324C240.849 34.3949 240.935 34.0402 241.107 33.7685C241.28 33.4934 241.51 33.2779 241.798 33.1222C242.087 32.9664 242.405 32.8504 242.753 32.7741C243.104 32.6946 243.457 32.6316 243.812 32.5852C244.276 32.5256 244.652 32.4808 244.94 32.451C245.232 32.4179 245.444 32.3632 245.577 32.2869C245.713 32.2107 245.781 32.0781 245.781 31.8892V31.8494C245.781 31.3589 245.646 30.9777 245.378 30.706C245.113 30.4342 244.71 30.2983 244.17 30.2983C243.61 30.2983 243.17 30.4209 242.852 30.6662C242.534 30.9115 242.31 31.1733 242.181 31.4517L241.067 31.054C241.266 30.59 241.531 30.2287 241.863 29.9702C242.198 29.7083 242.562 29.526 242.957 29.4233C243.354 29.3172 243.746 29.2642 244.13 29.2642C244.375 29.2642 244.657 29.294 244.975 29.3537C245.297 29.41 245.607 29.5277 245.905 29.7067C246.206 29.8857 246.457 30.1558 246.656 30.517C246.854 30.8783 246.954 31.3622 246.954 31.9688V37H245.781V35.9659H245.721C245.641 36.1316 245.509 36.3089 245.323 36.4979C245.138 36.6868 244.891 36.8475 244.582 36.9801C244.274 37.1127 243.898 37.179 243.454 37.179ZM243.633 36.125C244.097 36.125 244.488 36.0339 244.806 35.8516C245.128 35.6693 245.37 35.4339 245.532 35.1456C245.698 34.8572 245.781 34.554 245.781 34.2358V33.1619C245.731 33.2216 245.621 33.2763 245.452 33.326C245.287 33.3724 245.094 33.4138 244.876 33.4503C244.66 33.4834 244.45 33.5133 244.244 33.5398C244.042 33.563 243.878 33.5829 243.752 33.5994C243.447 33.6392 243.162 33.7038 242.897 33.7933C242.635 33.8795 242.423 34.0104 242.261 34.1861C242.102 34.3584 242.022 34.5937 242.022 34.892C242.022 35.2997 242.173 35.608 242.474 35.8168C242.779 36.0223 243.165 36.125 243.633 36.125ZM249.95 37.0795C249.705 37.0795 249.495 36.9917 249.319 36.8161C249.143 36.6404 249.056 36.4299 249.056 36.1847C249.056 35.9394 249.143 35.7289 249.319 35.5533C249.495 35.3776 249.705 35.2898 249.95 35.2898C250.196 35.2898 250.406 35.3776 250.582 35.5533C250.758 35.7289 250.845 35.9394 250.845 36.1847C250.845 36.3471 250.804 36.4962 250.721 36.6321C250.642 36.768 250.534 36.8774 250.398 36.9602C250.265 37.0398 250.116 37.0795 249.95 37.0795ZM256.053 37.1591C255.337 37.1591 254.721 36.9901 254.204 36.652C253.687 36.3139 253.289 35.8482 253.01 35.255C252.732 34.6617 252.593 33.9839 252.593 33.2216C252.593 32.446 252.735 31.7616 253.02 31.1683C253.309 30.5717 253.71 30.1061 254.224 29.7713C254.741 29.4332 255.344 29.2642 256.033 29.2642C256.57 29.2642 257.054 29.3636 257.485 29.5625C257.916 29.7614 258.269 30.0398 258.544 30.3977C258.819 30.7557 258.99 31.1733 259.056 31.6506H257.883C257.793 31.3026 257.594 30.9943 257.286 30.7259C256.981 30.4541 256.57 30.3182 256.053 30.3182C255.596 30.3182 255.195 30.4375 254.85 30.6761C254.509 30.9115 254.242 31.2446 254.05 31.6754C253.861 32.103 253.766 32.6051 253.766 33.1818C253.766 33.7718 253.859 34.2855 254.045 34.723C254.233 35.1605 254.499 35.5002 254.84 35.7422C255.185 35.9841 255.589 36.1051 256.053 36.1051C256.358 36.1051 256.635 36.0521 256.883 35.946C257.132 35.84 257.342 35.6875 257.515 35.4886C257.687 35.2898 257.81 35.0511 257.883 34.7727H259.056C258.99 35.2235 258.826 35.6295 258.564 35.9908C258.305 36.3487 257.962 36.6338 257.535 36.8459C257.11 37.0547 256.617 37.1591 256.053 37.1591ZM263.873 37.1591C263.184 37.1591 262.579 36.995 262.059 36.6669C261.542 36.3388 261.137 35.8797 260.846 35.2898C260.557 34.6998 260.413 34.0104 260.413 33.2216C260.413 32.4261 260.557 31.7318 260.846 31.1385C261.137 30.5452 261.542 30.0845 262.059 29.7564C262.579 29.4283 263.184 29.2642 263.873 29.2642C264.563 29.2642 265.166 29.4283 265.683 29.7564C266.203 30.0845 266.608 30.5452 266.896 31.1385C267.188 31.7318 267.334 32.4261 267.334 33.2216C267.334 34.0104 267.188 34.6998 266.896 35.2898C266.608 35.8797 266.203 36.3388 265.683 36.6669C265.166 36.995 264.563 37.1591 263.873 37.1591ZM263.873 36.1051C264.397 36.1051 264.828 35.9709 265.166 35.7024C265.504 35.4339 265.754 35.081 265.917 34.6435C266.079 34.206 266.16 33.732 266.16 33.2216C266.16 32.7112 266.079 32.2356 265.917 31.7947C265.754 31.3539 265.504 30.9976 265.166 30.7259C264.828 30.4541 264.397 30.3182 263.873 30.3182C263.35 30.3182 262.919 30.4541 262.581 30.7259C262.243 30.9976 261.992 31.3539 261.83 31.7947C261.668 32.2356 261.586 32.7112 261.586 33.2216C261.586 33.732 261.668 34.206 261.83 34.6435C261.992 35.081 262.243 35.4339 262.581 35.7024C262.919 35.9709 263.35 36.1051 263.873 36.1051ZM269.125 37V29.3636H270.258V30.5568H270.358C270.517 30.1491 270.774 29.8326 271.128 29.6072C271.483 29.3786 271.909 29.2642 272.406 29.2642C272.91 29.2642 273.329 29.3786 273.664 29.6072C274.002 29.8326 274.265 30.1491 274.454 30.5568H274.534C274.729 30.1624 275.023 29.8492 275.414 29.6172C275.805 29.3819 276.274 29.2642 276.821 29.2642C277.503 29.2642 278.062 29.478 278.496 29.9055C278.93 30.3298 279.147 30.991 279.147 31.8892V37H277.974V31.8892C277.974 31.3258 277.82 30.9231 277.512 30.6811C277.203 30.4392 276.841 30.3182 276.423 30.3182C275.886 30.3182 275.47 30.4806 275.175 30.8054C274.88 31.1269 274.733 31.5346 274.733 32.0284V37H273.539V31.7699C273.539 31.3357 273.399 30.986 273.117 30.7209C272.835 30.4524 272.472 30.3182 272.028 30.3182C271.723 30.3182 271.438 30.3994 271.173 30.5618C270.911 30.7242 270.699 30.9496 270.537 31.2379C270.377 31.523 270.298 31.8527 270.298 32.2273V37H269.125ZM284.892 26.3409L281.611 38.5312H280.537L283.818 26.3409H284.892ZM289.166 37.1591C288.53 37.1591 287.968 36.9983 287.481 36.6768C286.994 36.352 286.613 35.8946 286.338 35.3047C286.062 34.7114 285.925 34.0104 285.925 33.2017C285.925 32.3996 286.062 31.7036 286.338 31.1136C286.613 30.5237 286.995 30.0679 287.486 29.7464C287.977 29.425 288.543 29.2642 289.186 29.2642C289.683 29.2642 290.076 29.3471 290.365 29.5128C290.656 29.6752 290.878 29.8608 291.031 30.0696C291.186 30.2751 291.307 30.4441 291.394 30.5767H291.493V26.8182H292.666V37H291.533V35.8267H291.394C291.307 35.9659 291.185 36.1416 291.026 36.3537C290.867 36.5625 290.64 36.7498 290.345 36.9155C290.05 37.0779 289.657 37.1591 289.166 37.1591ZM289.325 36.1051C289.796 36.1051 290.194 35.9825 290.519 35.7372C290.843 35.4886 291.09 35.1456 291.259 34.7081C291.428 34.2673 291.513 33.7585 291.513 33.1818C291.513 32.6117 291.43 32.1129 291.264 31.6854C291.099 31.2545 290.853 30.9197 290.529 30.6811C290.204 30.4392 289.803 30.3182 289.325 30.3182C288.828 30.3182 288.414 30.4458 288.083 30.701C287.754 30.9529 287.508 31.2959 287.342 31.7301C287.179 32.161 287.098 32.6449 287.098 33.1818C287.098 33.7254 287.181 34.2192 287.347 34.6634C287.516 35.1042 287.764 35.4555 288.093 35.7173C288.424 35.9759 288.835 36.1051 289.325 36.1051ZM298.18 37.1591C297.444 37.1591 296.809 36.9967 296.276 36.6719C295.745 36.3438 295.336 35.8864 295.048 35.2997C294.763 34.7098 294.62 34.0237 294.62 33.2415C294.62 32.4593 294.763 31.7699 295.048 31.1733C295.336 30.5734 295.737 30.1061 296.251 29.7713C296.768 29.4332 297.371 29.2642 298.061 29.2642C298.458 29.2642 298.851 29.3305 299.239 29.4631C299.627 29.5956 299.98 29.8111 300.298 30.1094C300.616 30.4044 300.869 30.7955 301.058 31.2827C301.247 31.7699 301.342 32.3698 301.342 33.0824V33.5795H295.455V32.5653H300.149C300.149 32.1345 300.062 31.75 299.89 31.4119C299.721 31.0739 299.479 30.8071 299.164 30.6115C298.853 30.416 298.485 30.3182 298.061 30.3182C297.593 30.3182 297.189 30.4342 296.847 30.6662C296.509 30.8949 296.249 31.1932 296.067 31.5611C295.885 31.929 295.794 32.3234 295.794 32.7443V33.4205C295.794 33.9972 295.893 34.486 296.092 34.8871C296.294 35.2848 296.574 35.5881 296.932 35.7969C297.29 36.0024 297.706 36.1051 298.18 36.1051C298.488 36.1051 298.767 36.062 299.015 35.9759C299.267 35.8864 299.484 35.7538 299.666 35.5781C299.849 35.3991 299.99 35.1771 300.089 34.9119L301.222 35.2301C301.103 35.6146 300.903 35.9527 300.621 36.2443C300.339 36.5327 299.991 36.758 299.577 36.9205C299.163 37.0795 298.697 37.1591 298.18 37.1591ZM308.536 31.0739L307.482 31.3722C307.415 31.1965 307.318 31.0258 307.188 30.8601C307.062 30.6911 306.89 30.5518 306.671 30.4425C306.453 30.3331 306.173 30.2784 305.831 30.2784C305.364 30.2784 304.974 30.3861 304.663 30.6016C304.355 30.8137 304.2 31.0838 304.2 31.4119C304.2 31.7036 304.307 31.9339 304.519 32.103C304.731 32.272 305.062 32.4129 305.513 32.5256L306.646 32.804C307.329 32.9697 307.838 33.2232 308.173 33.5646C308.508 33.9027 308.675 34.3385 308.675 34.8722C308.675 35.3097 308.549 35.7008 308.297 36.0455C308.048 36.3902 307.7 36.6619 307.253 36.8608C306.806 37.0597 306.285 37.1591 305.692 37.1591C304.913 37.1591 304.268 36.9901 303.758 36.652C303.248 36.3139 302.924 35.8201 302.789 35.1705L303.902 34.892C304.008 35.303 304.209 35.6113 304.504 35.8168C304.802 36.0223 305.191 36.125 305.672 36.125C306.219 36.125 306.653 36.009 306.975 35.777C307.299 35.5417 307.462 35.2599 307.462 34.9318C307.462 34.6667 307.369 34.4446 307.183 34.2656C306.998 34.0833 306.713 33.9474 306.328 33.858L305.056 33.5597C304.356 33.3939 303.843 33.1371 303.514 32.7891C303.19 32.4377 303.027 31.9986 303.027 31.4716C303.027 31.0407 303.148 30.6596 303.39 30.3281C303.635 29.9967 303.968 29.7365 304.389 29.5476C304.814 29.3587 305.294 29.2642 305.831 29.2642C306.587 29.2642 307.18 29.4299 307.611 29.7614C308.045 30.0928 308.353 30.5303 308.536 31.0739ZM310.441 37V29.3636H311.614V37H310.441ZM311.038 28.0909C310.809 28.0909 310.612 28.013 310.446 27.8572C310.284 27.7015 310.202 27.5142 310.202 27.2955C310.202 27.0767 310.284 26.8894 310.446 26.7337C310.612 26.5779 310.809 26.5 311.038 26.5C311.266 26.5 311.462 26.5779 311.624 26.7337C311.79 26.8894 311.873 27.0767 311.873 27.2955C311.873 27.5142 311.79 27.7015 311.624 27.8572C311.462 28.013 311.266 28.0909 311.038 28.0909ZM316.846 40.0227C316.279 40.0227 315.792 39.9498 315.384 39.804C314.976 39.6615 314.637 39.4725 314.365 39.2372C314.096 39.0052 313.883 38.7566 313.724 38.4915L314.658 37.8352C314.764 37.9744 314.898 38.1335 315.061 38.3125C315.223 38.4948 315.445 38.6522 315.727 38.7848C316.012 38.9207 316.385 38.9886 316.846 38.9886C317.462 38.9886 317.971 38.8395 318.372 38.5412C318.773 38.2429 318.974 37.7756 318.974 37.1392V35.5881H318.874C318.788 35.7273 318.665 35.8996 318.506 36.1051C318.35 36.3073 318.125 36.4879 317.83 36.647C317.538 36.8028 317.144 36.8807 316.647 36.8807C316.03 36.8807 315.477 36.7348 314.986 36.4432C314.499 36.1515 314.113 35.7273 313.828 35.1705C313.546 34.6136 313.405 33.9375 313.405 33.142C313.405 32.3598 313.543 31.6787 313.818 31.0987C314.093 30.5154 314.476 30.0646 314.966 29.7464C315.457 29.425 316.024 29.2642 316.667 29.2642C317.164 29.2642 317.558 29.3471 317.85 29.5128C318.145 29.6752 318.37 29.8608 318.526 30.0696C318.685 30.2751 318.808 30.4441 318.894 30.5767H319.013V29.3636H320.147V37.2188C320.147 37.875 319.998 38.4086 319.699 38.8196C319.404 39.2339 319.007 39.5372 318.506 39.7294C318.009 39.925 317.456 40.0227 316.846 40.0227ZM316.806 35.8267C317.277 35.8267 317.674 35.719 317.999 35.5036C318.324 35.2881 318.571 34.9782 318.74 34.5739C318.909 34.1695 318.993 33.6856 318.993 33.1222C318.993 32.572 318.911 32.0864 318.745 31.6655C318.579 31.2446 318.334 30.9148 318.009 30.6761C317.684 30.4375 317.283 30.3182 316.806 30.3182C316.309 30.3182 315.894 30.4441 315.563 30.696C315.235 30.9479 314.988 31.286 314.822 31.7102C314.66 32.1345 314.579 32.6051 314.579 33.1222C314.579 33.6525 314.662 34.1214 314.827 34.5291C314.996 34.9335 315.245 35.2517 315.573 35.4837C315.904 35.7124 316.315 35.8267 316.806 35.8267ZM323.468 32.4062V37H322.295V29.3636H323.428V30.5568H323.528C323.706 30.169 323.978 29.8575 324.343 29.6222C324.707 29.3835 325.178 29.2642 325.755 29.2642C326.272 29.2642 326.724 29.3703 327.112 29.5824C327.5 29.7912 327.801 30.1094 328.017 30.5369C328.232 30.9612 328.34 31.4981 328.34 32.1477V37H327.167V32.2273C327.167 31.6274 327.011 31.16 326.699 30.8253C326.388 30.4872 325.96 30.3182 325.417 30.3182C325.042 30.3182 324.707 30.3994 324.412 30.5618C324.121 30.7242 323.89 30.9612 323.721 31.2727C323.552 31.5843 323.468 31.9621 323.468 32.4062ZM334.083 26.3409L330.802 38.5312H329.728L333.01 26.3409H334.083ZM338.676 37.1591C337.94 37.1591 337.305 36.9967 336.772 36.6719C336.242 36.3438 335.832 35.8864 335.544 35.2997C335.259 34.7098 335.116 34.0237 335.116 33.2415C335.116 32.4593 335.259 31.7699 335.544 31.1733C335.832 30.5734 336.233 30.1061 336.747 29.7713C337.264 29.4332 337.867 29.2642 338.557 29.2642C338.954 29.2642 339.347 29.3305 339.735 29.4631C340.123 29.5956 340.476 29.8111 340.794 30.1094C341.112 30.4044 341.366 30.7955 341.555 31.2827C341.743 31.7699 341.838 32.3698 341.838 33.0824V33.5795H335.952V32.5653H340.645C340.645 32.1345 340.559 31.75 340.386 31.4119C340.217 31.0739 339.975 30.8071 339.66 30.6115C339.349 30.416 338.981 30.3182 338.557 30.3182C338.089 30.3182 337.685 30.4342 337.344 30.6662C337.006 30.8949 336.745 31.1932 336.563 31.5611C336.381 31.929 336.29 32.3234 336.29 32.7443V33.4205C336.29 33.9972 336.389 34.486 336.588 34.8871C336.79 35.2848 337.07 35.5881 337.428 35.7969C337.786 36.0024 338.202 36.1051 338.676 36.1051C338.984 36.1051 339.263 36.062 339.511 35.9759C339.763 35.8864 339.98 35.7538 340.162 35.5781C340.345 35.3991 340.486 35.1771 340.585 34.9119L341.719 35.2301C341.599 35.6146 341.399 35.9527 341.117 36.2443C340.835 36.5327 340.487 36.758 340.073 36.9205C339.659 37.0795 339.193 37.1591 338.676 37.1591ZM343.404 37V36.1051L347.739 30.5369V30.4574H343.543V29.3636H349.251V30.2983L345.035 35.8267V35.9062H349.39V37H343.404ZM351.953 26.8182L354.578 31.054H354.657L357.282 26.8182H358.734L355.532 31.9091L358.734 37H357.282L354.657 32.8438H354.578L351.953 37H350.501L353.782 31.9091L350.501 26.8182H351.953ZM367.135 30C367.025 29.6652 366.881 29.3653 366.702 29.1001C366.526 28.8317 366.316 28.603 366.071 28.4141C365.829 28.2251 365.554 28.081 365.245 27.9815C364.937 27.8821 364.599 27.8324 364.231 27.8324C363.628 27.8324 363.079 27.9882 362.586 28.2997C362.092 28.6113 361.699 29.0703 361.407 29.6768C361.116 30.2834 360.97 31.0275 360.97 31.9091C360.97 32.7907 361.117 33.5348 361.412 34.1413C361.707 34.7479 362.107 35.2069 362.61 35.5185C363.114 35.83 363.681 35.9858 364.311 35.9858C364.894 35.9858 365.408 35.8615 365.852 35.6129C366.299 35.361 366.647 35.0064 366.896 34.549C367.148 34.0883 367.274 33.5464 367.274 32.9233L367.652 33.0028H364.589V31.9091H368.467V33.0028C368.467 33.8414 368.288 34.5705 367.93 35.1903C367.575 35.8101 367.085 36.2907 366.458 36.6321C365.835 36.9702 365.119 37.1392 364.311 37.1392C363.409 37.1392 362.617 36.9271 361.934 36.5028C361.255 36.0786 360.725 35.4754 360.343 34.6932C359.966 33.911 359.777 32.983 359.777 31.9091C359.777 31.1037 359.884 30.3795 360.1 29.7365C360.319 29.0902 360.627 28.54 361.025 28.0859C361.422 27.6319 361.893 27.2839 362.436 27.0419C362.98 26.8 363.578 26.679 364.231 26.679C364.768 26.679 365.269 26.7602 365.733 26.9226C366.2 27.0817 366.616 27.3087 366.98 27.6037C367.348 27.8954 367.655 28.245 367.9 28.6527C368.145 29.0571 368.315 29.5062 368.407 30H367.135ZM370.201 37V36.1051L374.536 30.5369V30.4574H370.34V29.3636H376.047V30.2983L371.831 35.8267V35.9062H376.187V37H370.201ZM378.57 26.8182L381.593 35.3892H381.713L384.735 26.8182H386.028L382.289 37H381.017L377.278 26.8182H378.57ZM389.826 40.0227C389.259 40.0227 388.772 39.9498 388.365 39.804C387.957 39.6615 387.617 39.4725 387.345 39.2372C387.077 39.0052 386.863 38.7566 386.704 38.4915L387.639 37.8352C387.745 37.9744 387.879 38.1335 388.041 38.3125C388.204 38.4948 388.426 38.6522 388.708 38.7848C388.993 38.9207 389.365 38.9886 389.826 38.9886C390.443 38.9886 390.951 38.8395 391.352 38.5412C391.753 38.2429 391.954 37.7756 391.954 37.1392V35.5881H391.855C391.768 35.7273 391.646 35.8996 391.487 36.1051C391.331 36.3073 391.106 36.4879 390.811 36.647C390.519 36.8028 390.124 36.8807 389.627 36.8807C389.011 36.8807 388.457 36.7348 387.967 36.4432C387.48 36.1515 387.093 35.7273 386.808 35.1705C386.527 34.6136 386.386 33.9375 386.386 33.142C386.386 32.3598 386.523 31.6787 386.798 31.0987C387.074 30.5154 387.456 30.0646 387.947 29.7464C388.437 29.425 389.004 29.2642 389.647 29.2642C390.144 29.2642 390.539 29.3471 390.83 29.5128C391.125 29.6752 391.351 29.8608 391.507 30.0696C391.666 30.2751 391.788 30.4441 391.874 30.5767H391.994V29.3636H393.127V37.2188C393.127 37.875 392.978 38.4086 392.68 38.8196C392.385 39.2339 391.987 39.5372 391.487 39.7294C390.99 39.925 390.436 40.0227 389.826 40.0227ZM389.786 35.8267C390.257 35.8267 390.655 35.719 390.98 35.5036C391.304 35.2881 391.551 34.9782 391.72 34.5739C391.889 34.1695 391.974 33.6856 391.974 33.1222C391.974 32.572 391.891 32.0864 391.725 31.6655C391.56 31.2446 391.314 30.9148 390.99 30.6761C390.665 30.4375 390.264 30.3182 389.786 30.3182C389.289 30.3182 388.875 30.4441 388.544 30.696C388.215 30.9479 387.968 31.286 387.803 31.7102C387.64 32.1345 387.559 32.6051 387.559 33.1222C387.559 33.6525 387.642 34.1214 387.808 34.5291C387.977 34.9335 388.225 35.2517 388.553 35.4837C388.885 35.7124 389.296 35.8267 389.786 35.8267ZM402.116 26.8182H403.349V33.5597C403.349 34.2557 403.185 34.8771 402.857 35.424C402.532 35.9676 402.073 36.3968 401.48 36.7116C400.886 37.0232 400.19 37.179 399.392 37.179C398.593 37.179 397.897 37.0232 397.303 36.7116C396.71 36.3968 396.249 35.9676 395.921 35.424C395.597 34.8771 395.434 34.2557 395.434 33.5597V26.8182H396.667V33.4602C396.667 33.9574 396.776 34.3999 396.995 34.7876C397.214 35.1721 397.526 35.4754 397.93 35.6974C398.338 35.9162 398.825 36.0256 399.392 36.0256C399.958 36.0256 400.445 35.9162 400.853 35.6974C401.261 35.4754 401.572 35.1721 401.788 34.7876C402.007 34.3999 402.116 33.9574 402.116 33.4602V26.8182ZM405.811 37V26.8182H407.044V35.9062H411.777V37H405.811ZM413.686 37V26.8182H414.919V31.8693H415.038L419.612 26.8182H421.223L416.947 31.4119L421.223 37H419.732L416.192 32.267L414.919 33.6989V37H413.686ZM427.309 39.8636V35.8267H427.21C427.124 35.9659 427.001 36.1416 426.842 36.3537C426.683 36.5625 426.456 36.7498 426.161 36.9155C425.866 37.0779 425.473 37.1591 424.983 37.1591C424.346 37.1591 423.785 36.9983 423.297 36.6768C422.81 36.352 422.429 35.8946 422.154 35.3047C421.879 34.7114 421.741 34.0104 421.741 33.2017C421.741 32.3996 421.879 31.7036 422.154 31.1136C422.429 30.5237 422.812 30.0679 423.302 29.7464C423.793 29.425 424.36 29.2642 425.003 29.2642C425.5 29.2642 425.893 29.3471 426.181 29.5128C426.473 29.6752 426.695 29.8608 426.847 30.0696C427.003 30.2751 427.124 30.4441 427.21 30.5767H427.349V29.3636H428.483V39.8636H427.309ZM425.142 36.1051C425.613 36.1051 426.01 35.9825 426.335 35.7372C426.66 35.4886 426.907 35.1456 427.076 34.7081C427.245 34.2673 427.329 33.7585 427.329 33.1818C427.329 32.6117 427.247 32.1129 427.081 31.6854C426.915 31.2545 426.67 30.9197 426.345 30.6811C426.02 30.4392 425.619 30.3182 425.142 30.3182C424.645 30.3182 424.23 30.4458 423.899 30.701C423.571 30.9529 423.324 31.2959 423.158 31.7301C422.996 32.161 422.915 32.6449 422.915 33.1818C422.915 33.7254 422.997 34.2192 423.163 34.6634C423.332 35.1042 423.581 35.4555 423.909 35.7173C424.24 35.9759 424.651 36.1051 425.142 36.1051ZM430.79 37V26.8182H432.023V31.8693H432.142L436.716 26.8182H438.327L434.051 31.4119L438.327 37H436.835L433.295 32.267L432.023 33.6989V37H430.79ZM439.922 37V26.8182H443.363C444.162 26.8182 444.814 26.9624 445.322 27.2507C445.832 27.5357 446.21 27.9219 446.455 28.4091C446.7 28.8963 446.823 29.4399 446.823 30.0398C446.823 30.6397 446.7 31.1849 446.455 31.6754C446.213 32.166 445.839 32.5571 445.331 32.8487C444.824 33.1371 444.175 33.2812 443.383 33.2812H440.917V32.1875H443.343C443.89 32.1875 444.329 32.093 444.66 31.9041C444.992 31.7152 445.232 31.46 445.381 31.1385C445.534 30.8137 445.61 30.4474 445.61 30.0398C445.61 29.6321 445.534 29.2675 445.381 28.946C445.232 28.6245 444.99 28.3726 444.655 28.1903C444.321 28.0047 443.876 27.9119 443.323 27.9119H441.155V37H439.922ZM448.65 39.8636V29.3636H449.784V30.5767H449.923C450.009 30.4441 450.128 30.2751 450.281 30.0696C450.436 29.8608 450.659 29.6752 450.947 29.5128C451.239 29.3471 451.633 29.2642 452.13 29.2642C452.773 29.2642 453.34 29.425 453.83 29.7464C454.321 30.0679 454.704 30.5237 454.979 31.1136C455.254 31.7036 455.392 32.3996 455.392 33.2017C455.392 34.0104 455.254 34.7114 454.979 35.3047C454.704 35.8946 454.323 36.352 453.835 36.6768C453.348 36.9983 452.786 37.1591 452.15 37.1591C451.66 37.1591 451.267 37.0779 450.972 36.9155C450.677 36.7498 450.45 36.5625 450.291 36.3537C450.132 36.1416 450.009 35.9659 449.923 35.8267H449.823V39.8636H448.65ZM449.803 33.1818C449.803 33.7585 449.888 34.2673 450.057 34.7081C450.226 35.1456 450.473 35.4886 450.798 35.7372C451.123 35.9825 451.52 36.1051 451.991 36.1051C452.481 36.1051 452.891 35.9759 453.219 35.7173C453.55 35.4555 453.799 35.1042 453.965 34.6634C454.134 34.2192 454.218 33.7254 454.218 33.1818C454.218 32.6449 454.135 32.161 453.97 31.7301C453.807 31.2959 453.56 30.9529 453.229 30.701C452.901 30.4458 452.488 30.3182 451.991 30.3182C451.514 30.3182 451.113 30.4392 450.788 30.6811C450.463 30.9197 450.218 31.2545 450.052 31.6854C449.886 32.1129 449.803 32.6117 449.803 33.1818ZM458.355 32.4062V37H457.181V29.3636H458.315V30.5568H458.414C458.593 30.169 458.865 29.8575 459.23 29.6222C459.594 29.3835 460.065 29.2642 460.642 29.2642C461.159 29.2642 461.611 29.3703 461.999 29.5824C462.387 29.7912 462.688 30.1094 462.904 30.5369C463.119 30.9612 463.227 31.4981 463.227 32.1477V37H462.053V32.2273C462.053 31.6274 461.898 31.16 461.586 30.8253C461.275 30.4872 460.847 30.3182 460.303 30.3182C459.929 30.3182 459.594 30.3994 459.299 30.5618C459.008 30.7242 458.777 30.9612 458.608 31.2727C458.439 31.5843 458.355 31.9621 458.355 32.4062ZM465.152 37V36.1051L469.487 30.5369V30.4574H465.291V29.3636H470.999V30.2983L466.783 35.8267V35.9062H471.138V37H465.152ZM473.104 37V26.8182H476.544C477.343 26.8182 477.996 26.9624 478.503 27.2507C479.014 27.5357 479.391 27.9219 479.637 28.4091C479.882 28.8963 480.005 29.4399 480.005 30.0398C480.005 30.6397 479.882 31.1849 479.637 31.6754C479.395 32.166 479.02 32.5571 478.513 32.8487C478.006 33.1371 477.356 33.2812 476.564 33.2812H474.098V32.1875H476.525C477.071 32.1875 477.511 32.093 477.842 31.9041C478.173 31.7152 478.414 31.46 478.563 31.1385C478.715 30.8137 478.792 30.4474 478.792 30.0398C478.792 29.6321 478.715 29.2675 478.563 28.946C478.414 28.6245 478.172 28.3726 477.837 28.1903C477.502 28.0047 477.058 27.9119 476.505 27.9119H474.337V37H473.104ZM481.434 27.9119V26.8182H489.07V27.9119H485.869V37H484.636V27.9119H481.434ZM493.599 26.8182H494.832V34.0966C494.832 34.7462 494.713 35.2981 494.474 35.7521C494.236 36.2062 493.899 36.5509 493.465 36.7862C493.031 37.0215 492.519 37.1392 491.929 37.1392C491.372 37.1392 490.877 37.0381 490.442 36.8359C490.008 36.6304 489.667 36.3388 489.418 35.9609C489.17 35.5831 489.045 35.134 489.045 34.6136H490.259C490.259 34.902 490.33 35.1539 490.472 35.3693C490.618 35.5814 490.817 35.7472 491.069 35.8665C491.321 35.9858 491.607 36.0455 491.929 36.0455C492.284 36.0455 492.585 35.9709 492.834 35.8217C493.082 35.6726 493.271 35.4538 493.401 35.1655C493.533 34.8738 493.599 34.5175 493.599 34.0966V26.8182ZM496.428 26.8182H497.84L500.664 31.571H500.783L503.607 26.8182H505.019L501.34 32.804V37H500.107V32.804L496.428 26.8182ZM506.614 37V26.8182H507.847V31.3523H513.276V26.8182H514.509V37H513.276V32.446H507.847V37H506.614ZM518.548 37L516.221 29.3636H517.454L519.105 35.2102H519.184L520.815 29.3636H522.068L523.679 35.1903H523.758L525.409 29.3636H526.642L524.315 37H523.162L521.491 31.1335H521.372L519.702 37H518.548ZM531.792 26.3409L528.511 38.5312H527.437L530.719 26.3409H531.792ZM536.484 37H533.342V26.8182H536.624C537.611 26.8182 538.456 27.022 539.159 27.4297C539.862 27.834 540.4 28.4157 540.775 29.1747C541.149 29.9304 541.337 30.8352 541.337 31.8892C541.337 32.9498 541.148 33.8629 540.77 34.6286C540.392 35.3909 539.842 35.9775 539.119 36.3885C538.397 36.7962 537.518 37 536.484 37ZM534.575 35.9062H536.405C537.247 35.9062 537.944 35.7438 538.498 35.419C539.051 35.0942 539.464 34.6319 539.736 34.032C540.008 33.4321 540.143 32.7178 540.143 31.8892C540.143 31.0672 540.009 30.3596 539.741 29.7663C539.472 29.1697 539.071 28.7124 538.538 28.3942C538.004 28.0727 537.339 27.9119 536.544 27.9119H534.575V35.9062ZM546.447 37.1591C545.712 37.1591 545.077 36.9967 544.543 36.6719C544.013 36.3438 543.604 35.8864 543.315 35.2997C543.03 34.7098 542.888 34.0237 542.888 33.2415C542.888 32.4593 543.03 31.7699 543.315 31.1733C543.604 30.5734 544.005 30.1061 544.518 29.7713C545.036 29.4332 545.639 29.2642 546.328 29.2642C546.726 29.2642 547.119 29.3305 547.506 29.4631C547.894 29.5956 548.247 29.8111 548.565 30.1094C548.884 30.4044 549.137 30.7955 549.326 31.2827C549.515 31.7699 549.609 32.3698 549.609 33.0824V33.5795H543.723V32.5653H548.416C548.416 32.1345 548.33 31.75 548.158 31.4119C547.989 31.0739 547.747 30.8071 547.432 30.6115C547.12 30.416 546.752 30.3182 546.328 30.3182C545.861 30.3182 545.456 30.4342 545.115 30.6662C544.777 30.8949 544.517 31.1932 544.335 31.5611C544.152 31.929 544.061 32.3234 544.061 32.7443V33.4205C544.061 33.9972 544.161 34.486 544.359 34.8871C544.562 35.2848 544.842 35.5881 545.2 35.7969C545.558 36.0024 545.973 36.1051 546.447 36.1051C546.756 36.1051 547.034 36.062 547.283 35.9759C547.535 35.8864 547.752 35.7538 547.934 35.5781C548.116 35.3991 548.257 35.1771 548.357 34.9119L549.49 35.2301C549.371 35.6146 549.17 35.9527 548.888 36.2443C548.607 36.5327 548.259 36.758 547.844 36.9205C547.43 37.0795 546.964 37.1591 546.447 37.1591ZM556.803 31.0739L555.749 31.3722C555.683 31.1965 555.585 31.0258 555.456 30.8601C555.33 30.6911 555.158 30.5518 554.939 30.4425C554.72 30.3331 554.44 30.2784 554.099 30.2784C553.631 30.2784 553.242 30.3861 552.93 30.6016C552.622 30.8137 552.468 31.0838 552.468 31.4119C552.468 31.7036 552.574 31.9339 552.786 32.103C552.998 32.272 553.33 32.4129 553.781 32.5256L554.914 32.804C555.597 32.9697 556.106 33.2232 556.44 33.5646C556.775 33.9027 556.942 34.3385 556.942 34.8722C556.942 35.3097 556.817 35.7008 556.565 36.0455C556.316 36.3902 555.968 36.6619 555.521 36.8608C555.073 37.0597 554.553 37.1591 553.96 37.1591C553.181 37.1591 552.536 36.9901 552.026 36.652C551.515 36.3139 551.192 35.8201 551.056 35.1705L552.17 34.892C552.276 35.303 552.476 35.6113 552.771 35.8168C553.07 36.0223 553.459 36.125 553.94 36.125C554.487 36.125 554.921 36.009 555.242 35.777C555.567 35.5417 555.729 35.2599 555.729 34.9318C555.729 34.6667 555.637 34.4446 555.451 34.2656C555.265 34.0833 554.98 33.9474 554.596 33.858L553.323 33.5597C552.624 33.3939 552.11 33.1371 551.782 32.7891C551.457 32.4377 551.295 31.9986 551.295 31.4716C551.295 31.0407 551.416 30.6596 551.658 30.3281C551.903 29.9967 552.236 29.7365 552.657 29.5476C553.081 29.3587 553.562 29.2642 554.099 29.2642C554.854 29.2642 555.448 29.4299 555.879 29.7614C556.313 30.0928 556.621 30.5303 556.803 31.0739ZM558.709 37V29.3636H559.882V37H558.709ZM559.305 28.0909C559.077 28.0909 558.879 28.013 558.714 27.8572C558.551 27.7015 558.47 27.5142 558.47 27.2955C558.47 27.0767 558.551 26.8894 558.714 26.7337C558.879 26.5779 559.077 26.5 559.305 26.5C559.534 26.5 559.729 26.5779 559.892 26.7337C560.058 26.8894 560.14 27.0767 560.14 27.2955C560.14 27.5142 560.058 27.7015 559.892 27.8572C559.729 28.013 559.534 28.0909 559.305 28.0909ZM565.113 40.0227C564.547 40.0227 564.059 39.9498 563.652 39.804C563.244 39.6615 562.904 39.4725 562.632 39.2372C562.364 39.0052 562.15 38.7566 561.991 38.4915L562.926 37.8352C563.032 37.9744 563.166 38.1335 563.328 38.3125C563.491 38.4948 563.713 38.6522 563.995 38.7848C564.28 38.9207 564.653 38.9886 565.113 38.9886C565.73 38.9886 566.239 38.8395 566.64 38.5412C567.041 38.2429 567.241 37.7756 567.241 37.1392V35.5881H567.142C567.056 35.7273 566.933 35.8996 566.774 36.1051C566.618 36.3073 566.393 36.4879 566.098 36.647C565.806 36.8028 565.412 36.8807 564.914 36.8807C564.298 36.8807 563.744 36.7348 563.254 36.4432C562.767 36.1515 562.381 35.7273 562.096 35.1705C561.814 34.6136 561.673 33.9375 561.673 33.142C561.673 32.3598 561.81 31.6787 562.086 31.0987C562.361 30.5154 562.743 30.0646 563.234 29.7464C563.725 29.425 564.291 29.2642 564.934 29.2642C565.431 29.2642 565.826 29.3471 566.118 29.5128C566.413 29.6752 566.638 29.8608 566.794 30.0696C566.953 30.2751 567.075 30.4441 567.162 30.5767H567.281V29.3636H568.414V37.2188C568.414 37.875 568.265 38.4086 567.967 38.8196C567.672 39.2339 567.274 39.5372 566.774 39.7294C566.277 39.925 565.723 40.0227 565.113 40.0227ZM565.074 35.8267C565.544 35.8267 565.942 35.719 566.267 35.5036C566.592 35.2881 566.838 34.9782 567.007 34.5739C567.176 34.1695 567.261 33.6856 567.261 33.1222C567.261 32.572 567.178 32.0864 567.012 31.6655C566.847 31.2446 566.601 30.9148 566.277 30.6761C565.952 30.4375 565.551 30.3182 565.074 30.3182C564.576 30.3182 564.162 30.4441 563.831 30.696C563.502 30.9479 563.256 31.286 563.09 31.7102C562.927 32.1345 562.846 32.6051 562.846 33.1222C562.846 33.6525 562.929 34.1214 563.095 34.5291C563.264 34.9335 563.512 35.2517 563.841 35.4837C564.172 35.7124 564.583 35.8267 565.074 35.8267ZM571.735 32.4062V37H570.562V29.3636H571.696V30.5568H571.795C571.974 30.169 572.246 29.8575 572.61 29.6222C572.975 29.3835 573.446 29.2642 574.022 29.2642C574.539 29.2642 574.992 29.3703 575.38 29.5824C575.767 29.7912 576.069 30.1094 576.284 30.5369C576.5 30.9612 576.608 31.4981 576.608 32.1477V37H575.434V32.2273C575.434 31.6274 575.279 31.16 574.967 30.8253C574.655 30.4872 574.228 30.3182 573.684 30.3182C573.31 30.3182 572.975 30.3994 572.68 30.5618C572.388 30.7242 572.158 30.9612 571.989 31.2727C571.82 31.5843 571.735 31.9621 571.735 32.4062ZM577.711 27.9119V26.8182H585.348V27.9119H582.146V37H580.913V27.9119H577.711ZM589.086 37.1591C588.397 37.1591 587.792 36.995 587.272 36.6669C586.755 36.3388 586.35 35.8797 586.059 35.2898C585.77 34.6998 585.626 34.0104 585.626 33.2216C585.626 32.4261 585.77 31.7318 586.059 31.1385C586.35 30.5452 586.755 30.0845 587.272 29.7564C587.792 29.4283 588.397 29.2642 589.086 29.2642C589.776 29.2642 590.379 29.4283 590.896 29.7564C591.416 30.0845 591.821 30.5452 592.109 31.1385C592.401 31.7318 592.547 32.4261 592.547 33.2216C592.547 34.0104 592.401 34.6998 592.109 35.2898C591.821 35.8797 591.416 36.3388 590.896 36.6669C590.379 36.995 589.776 37.1591 589.086 37.1591ZM589.086 36.1051C589.61 36.1051 590.041 35.9709 590.379 35.7024C590.717 35.4339 590.967 35.081 591.13 34.6435C591.292 34.206 591.373 33.732 591.373 33.2216C591.373 32.7112 591.292 32.2356 591.13 31.7947C590.967 31.3539 590.717 30.9976 590.379 30.7259C590.041 30.4541 589.61 30.3182 589.086 30.3182C588.563 30.3182 588.132 30.4541 587.794 30.7259C587.456 30.9976 587.205 31.3539 587.043 31.7947C586.881 32.2356 586.799 32.7112 586.799 33.2216C586.799 33.732 586.881 34.206 587.043 34.6435C587.205 35.081 587.456 35.4339 587.794 35.7024C588.132 35.9709 588.563 36.1051 589.086 36.1051ZM597.44 37.1591C596.75 37.1591 596.146 36.995 595.625 36.6669C595.108 36.3388 594.704 35.8797 594.412 35.2898C594.124 34.6998 593.98 34.0104 593.98 33.2216C593.98 32.4261 594.124 31.7318 594.412 31.1385C594.704 30.5452 595.108 30.0845 595.625 29.7564C596.146 29.4283 596.75 29.2642 597.44 29.2642C598.129 29.2642 598.732 29.4283 599.249 29.7564C599.77 30.0845 600.174 30.5452 600.463 31.1385C600.754 31.7318 600.9 32.4261 600.9 33.2216C600.9 34.0104 600.754 34.6998 600.463 35.2898C600.174 35.8797 599.77 36.3388 599.249 36.6669C598.732 36.995 598.129 37.1591 597.44 37.1591ZM597.44 36.1051C597.963 36.1051 598.394 35.9709 598.732 35.7024C599.07 35.4339 599.321 35.081 599.483 34.6435C599.646 34.206 599.727 33.732 599.727 33.2216C599.727 32.7112 599.646 32.2356 599.483 31.7947C599.321 31.3539 599.07 30.9976 598.732 30.7259C598.394 30.4541 597.963 30.3182 597.44 30.3182C596.916 30.3182 596.485 30.4541 596.147 30.7259C595.809 30.9976 595.559 31.3539 595.396 31.7947C595.234 32.2356 595.153 32.7112 595.153 33.2216C595.153 33.732 595.234 34.206 595.396 34.6435C595.559 35.081 595.809 35.4339 596.147 35.7024C596.485 35.9709 596.916 36.1051 597.44 36.1051ZM603.864 26.8182V37H602.691V26.8182H603.864ZM611.422 31.0739L610.368 31.3722C610.302 31.1965 610.204 31.0258 610.075 30.8601C609.949 30.6911 609.777 30.5518 609.558 30.4425C609.339 30.3331 609.059 30.2784 608.718 30.2784C608.251 30.2784 607.861 30.3861 607.55 30.6016C607.241 30.8137 607.087 31.0838 607.087 31.4119C607.087 31.7036 607.193 31.9339 607.405 32.103C607.617 32.272 607.949 32.4129 608.4 32.5256L609.533 32.804C610.216 32.9697 610.725 33.2232 611.059 33.5646C611.394 33.9027 611.562 34.3385 611.562 34.8722C611.562 35.3097 611.436 35.7008 611.184 36.0455C610.935 36.3902 610.587 36.6619 610.14 36.8608C609.692 37.0597 609.172 37.1591 608.579 37.1591C607.8 37.1591 607.155 36.9901 606.645 36.652C606.134 36.3139 605.811 35.8201 605.675 35.1705L606.789 34.892C606.895 35.303 607.095 35.6113 607.39 35.8168C607.689 36.0223 608.078 36.125 608.559 36.125C609.106 36.125 609.54 36.009 609.861 35.777C610.186 35.5417 610.349 35.2599 610.349 34.9318C610.349 34.6667 610.256 34.4446 610.07 34.2656C609.885 34.0833 609.599 33.9474 609.215 33.858L607.942 33.5597C607.243 33.3939 606.729 33.1371 606.401 32.7891C606.076 32.4377 605.914 31.9986 605.914 31.4716C605.914 31.0407 606.035 30.6596 606.277 30.3281C606.522 29.9967 606.855 29.7365 607.276 29.5476C607.7 29.3587 608.181 29.2642 608.718 29.2642C609.474 29.2642 610.067 29.4299 610.498 29.7614C610.932 30.0928 611.24 30.5303 611.422 31.0739ZM617.703 32.0881V33.1818H613.248V32.0881H617.703ZM619.633 26.8182L622.656 35.3892H622.775L625.798 26.8182H627.09L623.352 37H622.079L618.34 26.8182H619.633ZM628.517 37V29.3636H629.691V37H628.517ZM629.114 28.0909C628.885 28.0909 628.688 28.013 628.522 27.8572C628.36 27.7015 628.279 27.5142 628.279 27.2955C628.279 27.0767 628.36 26.8894 628.522 26.7337C628.688 26.5779 628.885 26.5 629.114 26.5C629.343 26.5 629.538 26.5779 629.7 26.7337C629.866 26.8894 629.949 27.0767 629.949 27.2955C629.949 27.5142 629.866 27.7015 629.7 27.8572C629.538 28.013 629.343 28.0909 629.114 28.0909ZM637.249 31.0739L636.195 31.3722C636.128 31.1965 636.031 31.0258 635.901 30.8601C635.775 30.6911 635.603 30.5518 635.384 30.4425C635.165 30.3331 634.885 30.2784 634.544 30.2784C634.077 30.2784 633.687 30.3861 633.376 30.6016C633.067 30.8137 632.913 31.0838 632.913 31.4119C632.913 31.7036 633.019 31.9339 633.232 32.103C633.444 32.272 633.775 32.4129 634.226 32.5256L635.359 32.804C636.042 32.9697 636.551 33.2232 636.886 33.5646C637.22 33.9027 637.388 34.3385 637.388 34.8722C637.388 35.3097 637.262 35.7008 637.01 36.0455C636.761 36.3902 636.413 36.6619 635.966 36.8608C635.518 37.0597 634.998 37.1591 634.405 37.1591C633.626 37.1591 632.981 36.9901 632.471 36.652C631.96 36.3139 631.637 35.8201 631.501 35.1705L632.615 34.892C632.721 35.303 632.922 35.6113 633.217 35.8168C633.515 36.0223 633.904 36.125 634.385 36.125C634.932 36.125 635.366 36.009 635.688 35.777C636.012 35.5417 636.175 35.2599 636.175 34.9318C636.175 34.6667 636.082 34.4446 635.896 34.2656C635.711 34.0833 635.426 33.9474 635.041 33.858L633.768 33.5597C633.069 33.3939 632.555 33.1371 632.227 32.7891C631.902 32.4377 631.74 31.9986 631.74 31.4716C631.74 31.0407 631.861 30.6596 632.103 30.3281C632.348 29.9967 632.681 29.7365 633.102 29.5476C633.527 29.3587 634.007 29.2642 634.544 29.2642C635.3 29.2642 635.893 29.4299 636.324 29.7614C636.758 30.0928 637.066 30.5303 637.249 31.0739ZM643.966 33.8778V29.3636H645.14V37H643.966V35.7074H643.887C643.708 36.0952 643.43 36.425 643.052 36.6967C642.674 36.9652 642.197 37.0994 641.62 37.0994C641.143 37.0994 640.718 36.995 640.347 36.7862C639.976 36.5741 639.684 36.2559 639.472 35.8317C639.26 35.4041 639.154 34.8655 639.154 34.2159V29.3636H640.327V34.1364C640.327 34.6932 640.483 35.1373 640.795 35.4688C641.109 35.8002 641.51 35.9659 641.998 35.9659C642.289 35.9659 642.586 35.8913 642.888 35.7422C643.193 35.593 643.448 35.3643 643.653 35.0561C643.862 34.7479 643.966 34.3551 643.966 33.8778ZM649.536 37.179C649.052 37.179 648.613 37.0878 648.218 36.9055C647.824 36.7199 647.511 36.4531 647.279 36.1051C647.047 35.7538 646.931 35.3295 646.931 34.8324C646.931 34.3949 647.017 34.0402 647.189 33.7685C647.362 33.4934 647.592 33.2779 647.88 33.1222C648.169 32.9664 648.487 32.8504 648.835 32.7741C649.186 32.6946 649.539 32.6316 649.894 32.5852C650.358 32.5256 650.734 32.4808 651.022 32.451C651.314 32.4179 651.526 32.3632 651.659 32.2869C651.795 32.2107 651.863 32.0781 651.863 31.8892V31.8494C651.863 31.3589 651.728 30.9777 651.46 30.706C651.195 30.4342 650.792 30.2983 650.252 30.2983C649.692 30.2983 649.252 30.4209 648.934 30.6662C648.616 30.9115 648.392 31.1733 648.263 31.4517L647.15 31.054C647.348 30.59 647.614 30.2287 647.945 29.9702C648.28 29.7083 648.644 29.526 649.039 29.4233C649.436 29.3172 649.828 29.2642 650.212 29.2642C650.457 29.2642 650.739 29.294 651.057 29.3537C651.379 29.41 651.689 29.5277 651.987 29.7067C652.288 29.8857 652.539 30.1558 652.738 30.517C652.936 30.8783 653.036 31.3622 653.036 31.9688V37H651.863V35.9659H651.803C651.723 36.1316 651.591 36.3089 651.405 36.4979C651.22 36.6868 650.973 36.8475 650.664 36.9801C650.356 37.1127 649.98 37.179 649.536 37.179ZM649.715 36.125C650.179 36.125 650.57 36.0339 650.888 35.8516C651.21 35.6693 651.452 35.4339 651.614 35.1456C651.78 34.8572 651.863 34.554 651.863 34.2358V33.1619C651.813 33.2216 651.703 33.2763 651.534 33.326C651.369 33.3724 651.176 33.4138 650.958 33.4503C650.742 33.4834 650.532 33.5133 650.326 33.5398C650.124 33.563 649.96 33.5829 649.834 33.5994C649.529 33.6392 649.244 33.7038 648.979 33.7933C648.717 33.8795 648.505 34.0104 648.343 34.1861C648.184 34.3584 648.104 34.5937 648.104 34.892C648.104 35.2997 648.255 35.608 648.556 35.8168C648.861 36.0223 649.248 36.125 649.715 36.125ZM656.351 26.8182V37H655.177V26.8182H656.351ZM662.875 32.0881V33.1818H658.42V32.0881H662.875ZM665.098 37V26.8182H671.243V27.9119H666.331V31.3523H670.925V32.446H666.331V35.9062H671.323V37H665.098ZM676.19 37.1591C675.553 37.1591 674.992 36.9983 674.504 36.6768C674.017 36.352 673.636 35.8946 673.361 35.3047C673.086 34.7114 672.948 34.0104 672.948 33.2017C672.948 32.3996 673.086 31.7036 673.361 31.1136C673.636 30.5237 674.019 30.0679 674.509 29.7464C675 29.425 675.567 29.2642 676.21 29.2642C676.707 29.2642 677.1 29.3471 677.388 29.5128C677.68 29.6752 677.902 29.8608 678.054 30.0696C678.21 30.2751 678.331 30.4441 678.417 30.5767H678.517V26.8182H679.69V37H678.556V35.8267H678.417C678.331 35.9659 678.208 36.1416 678.049 36.3537C677.89 36.5625 677.663 36.7498 677.368 36.9155C677.073 37.0779 676.68 37.1591 676.19 37.1591ZM676.349 36.1051C676.82 36.1051 677.217 35.9825 677.542 35.7372C677.867 35.4886 678.114 35.1456 678.283 34.7081C678.452 34.2673 678.536 33.7585 678.536 33.1818C678.536 32.6117 678.454 32.1129 678.288 31.6854C678.122 31.2545 677.877 30.9197 677.552 30.6811C677.227 30.4392 676.826 30.3182 676.349 30.3182C675.852 30.3182 675.437 30.4458 675.106 30.701C674.778 30.9529 674.531 31.2959 674.365 31.7301C674.203 32.161 674.122 32.6449 674.122 33.1818C674.122 33.7254 674.204 34.2192 674.37 34.6634C674.539 35.1042 674.788 35.4555 675.116 35.7173C675.447 35.9759 675.858 36.1051 676.349 36.1051ZM682.002 37V29.3636H683.175V37H682.002ZM682.598 28.0909C682.369 28.0909 682.172 28.013 682.007 27.8572C681.844 27.7015 681.763 27.5142 681.763 27.2955C681.763 27.0767 681.844 26.8894 682.007 26.7337C682.172 26.5779 682.369 26.5 682.598 26.5C682.827 26.5 683.022 26.5779 683.185 26.7337C683.351 26.8894 683.433 27.0767 683.433 27.2955C683.433 27.5142 683.351 27.7015 683.185 27.8572C683.022 28.013 682.827 28.0909 682.598 28.0909ZM688.645 29.3636V30.358H684.688V29.3636H688.645ZM685.841 27.5341H687.014V34.8125C687.014 35.1439 687.062 35.3925 687.158 35.5582C687.258 35.7206 687.384 35.83 687.536 35.8864C687.692 35.9394 687.856 35.9659 688.028 35.9659C688.158 35.9659 688.264 35.9593 688.347 35.946C688.429 35.9295 688.496 35.9162 688.545 35.9062L688.784 36.9602C688.705 36.9901 688.594 37.0199 688.451 37.0497C688.308 37.0829 688.128 37.0994 687.909 37.0994C687.578 37.0994 687.253 37.0282 686.935 36.8857C686.62 36.7431 686.358 36.526 686.149 36.2344C685.944 35.9427 685.841 35.5748 685.841 35.1307V27.5341ZM693.43 37.1591C692.741 37.1591 692.136 36.995 691.615 36.6669C691.098 36.3388 690.694 35.8797 690.402 35.2898C690.114 34.6998 689.97 34.0104 689.97 33.2216C689.97 32.4261 690.114 31.7318 690.402 31.1385C690.694 30.5452 691.098 30.0845 691.615 29.7564C692.136 29.4283 692.741 29.2642 693.43 29.2642C694.119 29.2642 694.723 29.4283 695.24 29.7564C695.76 30.0845 696.164 30.5452 696.453 31.1385C696.744 31.7318 696.89 32.4261 696.89 33.2216C696.89 34.0104 696.744 34.6998 696.453 35.2898C696.164 35.8797 695.76 36.3388 695.24 36.6669C694.723 36.995 694.119 37.1591 693.43 37.1591ZM693.43 36.1051C693.954 36.1051 694.385 35.9709 694.723 35.7024C695.061 35.4339 695.311 35.081 695.473 34.6435C695.636 34.206 695.717 33.732 695.717 33.2216C695.717 32.7112 695.636 32.2356 695.473 31.7947C695.311 31.3539 695.061 30.9976 694.723 30.7259C694.385 30.4541 693.954 30.3182 693.43 30.3182C692.906 30.3182 692.475 30.4541 692.137 30.7259C691.799 30.9976 691.549 31.3539 691.387 31.7947C691.224 32.2356 691.143 32.7112 691.143 33.2216C691.143 33.732 691.224 34.206 691.387 34.6435C691.549 35.081 691.799 35.4339 692.137 35.7024C692.475 35.9709 692.906 36.1051 693.43 36.1051ZM698.681 37V29.3636H699.815V30.517H699.894C700.034 30.1392 700.285 29.8326 700.65 29.5973C701.015 29.362 701.426 29.2443 701.883 29.2443C701.969 29.2443 702.077 29.246 702.206 29.2493C702.335 29.2526 702.433 29.2576 702.499 29.2642V30.4574C702.46 30.4474 702.369 30.4325 702.226 30.4126C702.087 30.3894 701.939 30.3778 701.784 30.3778C701.412 30.3778 701.081 30.4557 700.789 30.6115C700.501 30.764 700.272 30.9761 700.103 31.2479C699.937 31.5163 699.855 31.8229 699.855 32.1676V37H698.681ZM705.422 34.1364V34.0767C705.428 33.4437 705.494 32.9399 705.62 32.5653C705.746 32.1908 705.925 31.8875 706.157 31.6555C706.389 31.4235 706.668 31.2098 706.993 31.0142C707.188 30.8949 707.364 30.754 707.52 30.5916C707.675 30.4259 707.798 30.2353 707.887 30.0199C707.98 29.8045 708.027 29.5658 708.027 29.304C708.027 28.9792 707.95 28.6974 707.798 28.4588C707.645 28.2202 707.442 28.0362 707.186 27.907C706.931 27.7777 706.648 27.7131 706.336 27.7131C706.065 27.7131 705.803 27.7694 705.551 27.8821C705.299 27.9948 705.088 28.1721 704.919 28.4141C704.75 28.656 704.653 28.9725 704.626 29.3636H703.373C703.4 28.8002 703.546 28.3179 703.811 27.9169C704.079 27.5159 704.432 27.2093 704.87 26.9972C705.31 26.785 705.799 26.679 706.336 26.679C706.92 26.679 707.427 26.795 707.858 27.027C708.292 27.259 708.627 27.5772 708.862 27.9815C709.1 28.3859 709.22 28.8466 709.22 29.3636C709.22 29.7282 709.163 30.058 709.051 30.353C708.941 30.648 708.782 30.9115 708.574 31.1435C708.368 31.3755 708.119 31.581 707.828 31.7599C707.536 31.9422 707.302 32.1345 707.127 32.3366C706.951 32.5355 706.824 32.7725 706.744 33.0476C706.664 33.3227 706.621 33.6657 706.615 34.0767V34.1364H705.422ZM706.058 37.0795C705.813 37.0795 705.602 36.9917 705.426 36.8161C705.251 36.6404 705.163 36.4299 705.163 36.1847C705.163 35.9394 705.251 35.7289 705.426 35.5533C705.602 35.3776 705.813 35.2898 706.058 35.2898C706.303 35.2898 706.514 35.3776 706.689 35.5533C706.865 35.7289 706.953 35.9394 706.953 36.1847C706.953 36.3471 706.911 36.4962 706.828 36.6321C706.749 36.768 706.641 36.8774 706.505 36.9602C706.373 37.0398 706.224 37.0795 706.058 37.0795ZM712.159 32.4062V37H710.986V29.3636H712.119V30.5568H712.219C712.398 30.169 712.67 29.8575 713.034 29.6222C713.399 29.3835 713.869 29.2642 714.446 29.2642C714.963 29.2642 715.416 29.3703 715.803 29.5824C716.191 29.7912 716.493 30.1094 716.708 30.5369C716.924 30.9612 717.031 31.4981 717.031 32.1477V37H715.858V32.2273C715.858 31.6274 715.702 31.16 715.391 30.8253C715.079 30.4872 714.652 30.3182 714.108 30.3182C713.734 30.3182 713.399 30.3994 713.104 30.5618C712.812 30.7242 712.582 30.9612 712.413 31.2727C712.244 31.5843 712.159 31.9621 712.159 32.4062ZM722.278 37.1591C721.588 37.1591 720.983 36.995 720.463 36.6669C719.946 36.3388 719.542 35.8797 719.25 35.2898C718.962 34.6998 718.817 34.0104 718.817 33.2216C718.817 32.4261 718.962 31.7318 719.25 31.1385C719.542 30.5452 719.946 30.0845 720.463 29.7564C720.983 29.4283 721.588 29.2642 722.278 29.2642C722.967 29.2642 723.57 29.4283 724.087 29.7564C724.608 30.0845 725.012 30.5452 725.3 31.1385C725.592 31.7318 725.738 32.4261 725.738 33.2216C725.738 34.0104 725.592 34.6998 725.3 35.2898C725.012 35.8797 724.608 36.3388 724.087 36.6669C723.57 36.995 722.967 37.1591 722.278 37.1591ZM722.278 36.1051C722.801 36.1051 723.232 35.9709 723.57 35.7024C723.908 35.4339 724.159 35.081 724.321 34.6435C724.483 34.206 724.565 33.732 724.565 33.2216C724.565 32.7112 724.483 32.2356 724.321 31.7947C724.159 31.3539 723.908 30.9976 723.57 30.7259C723.232 30.4541 722.801 30.3182 722.278 30.3182C721.754 30.3182 721.323 30.4541 720.985 30.7259C720.647 30.9976 720.397 31.3539 720.234 31.7947C720.072 32.2356 719.991 32.7112 719.991 33.2216C719.991 33.732 720.072 34.206 720.234 34.6435C720.397 35.081 720.647 35.4339 720.985 35.7024C721.323 35.9709 721.754 36.1051 722.278 36.1051ZM730.412 37.1591C729.776 37.1591 729.214 36.9983 728.727 36.6768C728.24 36.352 727.859 35.8946 727.584 35.3047C727.309 34.7114 727.171 34.0104 727.171 33.2017C727.171 32.3996 727.309 31.7036 727.584 31.1136C727.859 30.5237 728.242 30.0679 728.732 29.7464C729.223 29.425 729.789 29.2642 730.432 29.2642C730.93 29.2642 731.322 29.3471 731.611 29.5128C731.902 29.6752 732.124 29.8608 732.277 30.0696C732.433 30.2751 732.554 30.4441 732.64 30.5767H732.739V26.8182H733.912V37H732.779V35.8267H732.64C732.554 35.9659 732.431 36.1416 732.272 36.3537C732.113 36.5625 731.886 36.7498 731.591 36.9155C731.296 37.0779 730.903 37.1591 730.412 37.1591ZM730.572 36.1051C731.042 36.1051 731.44 35.9825 731.765 35.7372C732.09 35.4886 732.336 35.1456 732.506 34.7081C732.675 34.2673 732.759 33.7585 732.759 33.1818C732.759 32.6117 732.676 32.1129 732.51 31.6854C732.345 31.2545 732.099 30.9197 731.775 30.6811C731.45 30.4392 731.049 30.3182 730.572 30.3182C730.074 30.3182 729.66 30.4458 729.329 30.701C729.001 30.9529 728.754 31.2959 728.588 31.7301C728.425 32.161 728.344 32.6449 728.344 33.1818C728.344 33.7254 728.427 34.2192 728.593 34.6634C728.762 35.1042 729.01 35.4555 729.339 35.7173C729.67 35.9759 730.081 36.1051 730.572 36.1051ZM739.426 37.1591C738.69 37.1591 738.055 36.9967 737.522 36.6719C736.992 36.3438 736.582 35.8864 736.294 35.2997C736.009 34.7098 735.866 34.0237 735.866 33.2415C735.866 32.4593 736.009 31.7699 736.294 31.1733C736.582 30.5734 736.983 30.1061 737.497 29.7713C738.014 29.4332 738.617 29.2642 739.307 29.2642C739.704 29.2642 740.097 29.3305 740.485 29.4631C740.873 29.5956 741.226 29.8111 741.544 30.1094C741.862 30.4044 742.116 30.7955 742.305 31.2827C742.493 31.7699 742.588 32.3698 742.588 33.0824V33.5795H736.702V32.5653H741.395C741.395 32.1345 741.309 31.75 741.136 31.4119C740.967 31.0739 740.725 30.8071 740.41 30.6115C740.099 30.416 739.731 30.3182 739.307 30.3182C738.839 30.3182 738.435 30.4342 738.094 30.6662C737.756 30.8949 737.495 31.1932 737.313 31.5611C737.131 31.929 737.04 32.3234 737.04 32.7443V33.4205C737.04 33.9972 737.139 34.486 737.338 34.8871C737.54 35.2848 737.82 35.5881 738.178 35.7969C738.536 36.0024 738.952 36.1051 739.426 36.1051C739.734 36.1051 740.013 36.062 740.261 35.9759C740.513 35.8864 740.73 35.7538 740.912 35.5781C741.095 35.3991 741.236 35.1771 741.335 34.9119L742.469 35.2301C742.349 35.6146 742.149 35.9527 741.867 36.2443C741.585 36.5327 741.237 36.758 740.823 36.9205C740.409 37.0795 739.943 37.1591 739.426 37.1591ZM748.748 32.0881V33.1818H744.293V32.0881H748.748ZM750.812 37V29.3636H751.985V37H750.812ZM751.409 28.0909C751.18 28.0909 750.983 28.013 750.817 27.8572C750.655 27.7015 750.574 27.5142 750.574 27.2955C750.574 27.0767 750.655 26.8894 750.817 26.7337C750.983 26.5779 751.18 26.5 751.409 26.5C751.637 26.5 751.833 26.5779 751.995 26.7337C752.161 26.8894 752.244 27.0767 752.244 27.2955C752.244 27.5142 752.161 27.7015 751.995 27.8572C751.833 28.013 751.637 28.0909 751.409 28.0909ZM757.018 37.1591C756.382 37.1591 755.82 36.9983 755.333 36.6768C754.845 36.352 754.464 35.8946 754.189 35.3047C753.914 34.7114 753.776 34.0104 753.776 33.2017C753.776 32.3996 753.914 31.7036 754.189 31.1136C754.464 30.5237 754.847 30.0679 755.338 29.7464C755.828 29.425 756.395 29.2642 757.038 29.2642C757.535 29.2642 757.928 29.3471 758.216 29.5128C758.508 29.6752 758.73 29.8608 758.882 30.0696C759.038 30.2751 759.159 30.4441 759.245 30.5767H759.345V26.8182H760.518V37H759.384V35.8267H759.245C759.159 35.9659 759.036 36.1416 758.877 36.3537C758.718 36.5625 758.491 36.7498 758.196 36.9155C757.901 37.0779 757.508 37.1591 757.018 37.1591ZM757.177 36.1051C757.648 36.1051 758.045 35.9825 758.37 35.7372C758.695 35.4886 758.942 35.1456 759.111 34.7081C759.28 34.2673 759.365 33.7585 759.365 33.1818C759.365 32.6117 759.282 32.1129 759.116 31.6854C758.95 31.2545 758.705 30.9197 758.38 30.6811C758.055 30.4392 757.654 30.3182 757.177 30.3182C756.68 30.3182 756.266 30.4458 755.934 30.701C755.606 30.9529 755.359 31.2959 755.193 31.7301C755.031 32.161 754.95 32.6449 754.95 33.1818C754.95 33.7254 755.033 34.2192 755.198 34.6634C755.367 35.1042 755.616 35.4555 755.944 35.7173C756.276 35.9759 756.686 36.1051 757.177 36.1051ZM763.307 32.0881V31.0142H769.432V32.0881H763.307ZM763.307 35.0312V33.9574H769.432V35.0312H763.307ZM775.479 37.1392C774.822 37.1392 774.237 37.0265 773.724 36.8011C773.213 36.5758 772.807 36.2625 772.506 35.8615C772.207 35.4571 772.045 34.9882 772.018 34.4545H773.271C773.298 34.7827 773.411 35.0661 773.609 35.3047C773.808 35.54 774.068 35.7223 774.39 35.8516C774.711 35.9808 775.068 36.0455 775.459 36.0455C775.896 36.0455 776.284 35.9692 776.622 35.8168C776.96 35.6643 777.225 35.4522 777.418 35.1804C777.61 34.9086 777.706 34.5938 777.706 34.2358C777.706 33.8613 777.613 33.5315 777.428 33.2464C777.242 32.9581 776.97 32.7327 776.612 32.5703C776.254 32.4079 775.817 32.3267 775.3 32.3267H774.484V31.233H775.3C775.704 31.233 776.059 31.16 776.364 31.0142C776.672 30.8684 776.912 30.6629 777.085 30.3977C777.26 30.1326 777.348 29.821 777.348 29.4631C777.348 29.1184 777.272 28.8184 777.119 28.5632C776.967 28.308 776.751 28.1091 776.473 27.9666C776.198 27.8241 775.873 27.7528 775.499 27.7528C775.147 27.7528 774.816 27.8175 774.504 27.9467C774.196 28.0727 773.944 28.2566 773.749 28.4986C773.553 28.7372 773.447 29.0256 773.43 29.3636H772.237C772.257 28.83 772.418 28.3627 772.719 27.9616C773.021 27.5573 773.415 27.2424 773.903 27.017C774.393 26.7917 774.932 26.679 775.518 26.679C776.148 26.679 776.688 26.8066 777.139 27.0618C777.59 27.3137 777.936 27.6468 778.178 28.0611C778.42 28.4754 778.541 28.9228 778.541 29.4034C778.541 29.9768 778.39 30.4657 778.089 30.87C777.79 31.2744 777.384 31.5545 776.871 31.7102V31.7898C777.514 31.8958 778.016 32.1693 778.377 32.6101C778.738 33.0476 778.919 33.5895 778.919 34.2358C778.919 34.7893 778.768 35.2865 778.467 35.7273C778.168 36.1648 777.761 36.5095 777.244 36.7614C776.727 37.0133 776.138 37.1392 775.479 37.1392ZM784.393 37.1392C783.737 37.1392 783.152 37.0265 782.638 36.8011C782.127 36.5758 781.721 36.2625 781.42 35.8615C781.121 35.4571 780.959 34.9882 780.933 34.4545H782.185C782.212 34.7827 782.325 35.0661 782.523 35.3047C782.722 35.54 782.982 35.7223 783.304 35.8516C783.625 35.9808 783.982 36.0455 784.373 36.0455C784.81 36.0455 785.198 35.9692 785.536 35.8168C785.874 35.6643 786.139 35.4522 786.332 35.1804C786.524 34.9086 786.62 34.5938 786.62 34.2358C786.62 33.8613 786.527 33.5315 786.342 33.2464C786.156 32.9581 785.884 32.7327 785.526 32.5703C785.168 32.4079 784.731 32.3267 784.214 32.3267H783.398V31.233H784.214C784.618 31.233 784.973 31.16 785.278 31.0142C785.586 30.8684 785.826 30.6629 785.999 30.3977C786.174 30.1326 786.262 29.821 786.262 29.4631C786.262 29.1184 786.186 28.8184 786.033 28.5632C785.881 28.308 785.665 28.1091 785.387 27.9666C785.112 27.8241 784.787 27.7528 784.413 27.7528C784.061 27.7528 783.73 27.8175 783.418 27.9467C783.11 28.0727 782.858 28.2566 782.663 28.4986C782.467 28.7372 782.361 29.0256 782.344 29.3636H781.151C781.171 28.83 781.332 28.3627 781.634 27.9616C781.935 27.5573 782.33 27.2424 782.817 27.017C783.307 26.7917 783.846 26.679 784.433 26.679C785.062 26.679 785.603 26.8066 786.053 27.0618C786.504 27.3137 786.85 27.6468 787.092 28.0611C787.334 28.4754 787.455 28.9228 787.455 29.4034C787.455 29.9768 787.304 30.4657 787.003 30.87C786.705 31.2744 786.299 31.5545 785.785 31.7102V31.7898C786.428 31.8958 786.93 32.1693 787.291 32.6101C787.652 33.0476 787.833 33.5895 787.833 34.2358C787.833 34.7893 787.682 35.2865 787.381 35.7273C787.082 36.1648 786.675 36.5095 786.158 36.7614C785.641 37.0133 785.052 37.1392 784.393 37.1392ZM790.185 37L794.739 27.9915V27.9119H789.489V26.8182H796.011V27.9716L791.477 37H790.185ZM802.259 31.3622V32.456H797.805V31.3622H802.259ZM807.685 37.1392C807.267 37.1326 806.849 37.053 806.432 36.9006C806.014 36.7481 805.633 36.4912 805.288 36.13C804.944 35.7654 804.667 35.2732 804.458 34.6534C804.249 34.0303 804.145 33.2481 804.145 32.3068C804.145 31.4053 804.229 30.6065 804.398 29.9105C804.567 29.2112 804.813 28.6229 805.134 28.1456C805.456 27.665 805.844 27.3004 806.298 27.0518C806.755 26.8033 807.27 26.679 807.844 26.679C808.414 26.679 808.921 26.7933 809.365 27.022C809.813 27.2474 810.177 27.5623 810.459 27.9666C810.741 28.371 810.923 28.8366 811.006 29.3636H809.793C809.68 28.9062 809.461 28.5268 809.136 28.2251C808.812 27.9235 808.381 27.7727 807.844 27.7727C807.055 27.7727 806.433 28.1158 805.979 28.8018C805.529 29.4879 805.302 30.4508 805.298 31.6903H805.378C805.563 31.4086 805.784 31.1683 806.039 30.9695C806.298 30.7673 806.583 30.6115 806.894 30.5021C807.206 30.3928 807.536 30.3381 807.884 30.3381C808.467 30.3381 809 30.4839 809.484 30.7756C809.968 31.0639 810.356 31.4633 810.648 31.9737C810.939 32.4808 811.085 33.0625 811.085 33.7188C811.085 34.3485 810.944 34.9252 810.663 35.4489C810.381 35.9692 809.985 36.3835 809.474 36.6918C808.967 36.9967 808.371 37.1458 807.685 37.1392ZM807.685 36.0455C808.102 36.0455 808.477 35.9411 808.808 35.7322C809.143 35.5234 809.406 35.2434 809.599 34.892C809.794 34.5407 809.892 34.1496 809.892 33.7188C809.892 33.2978 809.798 32.915 809.609 32.5703C809.423 32.2223 809.166 31.9455 808.838 31.7401C808.513 31.5346 808.142 31.4318 807.724 31.4318C807.41 31.4318 807.116 31.4948 806.844 31.6207C806.573 31.7434 806.334 31.9124 806.129 32.1278C805.926 32.3433 805.767 32.5902 805.651 32.8686C805.535 33.1437 805.477 33.4337 805.477 33.7386C805.477 34.143 805.572 34.5208 805.761 34.8722C805.953 35.2235 806.215 35.5069 806.546 35.7223C806.881 35.9377 807.26 36.0455 807.685 36.0455ZM816.361 37.1392C815.612 37.1392 814.974 36.9354 814.447 36.5277C813.92 36.1167 813.518 35.5218 813.239 34.7429C812.961 33.9607 812.822 33.0161 812.822 31.9091C812.822 30.8087 812.961 29.8691 813.239 29.0902C813.521 28.308 813.925 27.7114 814.452 27.3004C814.983 26.8861 815.619 26.679 816.361 26.679C817.104 26.679 817.738 26.8861 818.265 27.3004C818.796 27.7114 819.2 28.308 819.479 29.0902C819.76 29.8691 819.901 30.8087 819.901 31.9091C819.901 33.0161 819.762 33.9607 819.483 34.7429C819.205 35.5218 818.802 36.1167 818.275 36.5277C817.748 36.9354 817.11 37.1392 816.361 37.1392ZM816.361 36.0455C817.104 36.0455 817.68 35.6875 818.091 34.9716C818.502 34.2557 818.708 33.2348 818.708 31.9091C818.708 31.0275 818.613 30.2768 818.425 29.657C818.239 29.0372 817.97 28.5649 817.619 28.2401C817.271 27.9152 816.852 27.7528 816.361 27.7528C815.626 27.7528 815.05 28.1158 814.636 28.8416C814.222 29.5642 814.015 30.5866 814.015 31.9091C814.015 32.7907 814.108 33.5398 814.293 34.1562C814.479 34.7727 814.746 35.2417 815.094 35.5632C815.445 35.8847 815.867 36.0455 816.361 36.0455ZM825.052 37.1392C824.369 37.1392 823.766 37.0182 823.242 36.7763C822.722 36.531 822.316 36.1946 822.024 35.767C821.732 35.3362 821.588 34.8456 821.591 34.2955C821.588 33.8646 821.673 33.4669 821.845 33.1023C822.017 32.7344 822.253 32.4278 822.551 32.1825C822.853 31.9339 823.189 31.7765 823.56 31.7102V31.6506C823.073 31.5246 822.685 31.2512 822.397 30.8303C822.108 30.406 821.966 29.9238 821.969 29.3835C821.966 28.8665 822.097 28.4041 822.362 27.9964C822.627 27.5888 822.992 27.2673 823.456 27.032C823.923 26.7966 824.455 26.679 825.052 26.679C825.642 26.679 826.169 26.7966 826.633 27.032C827.097 27.2673 827.461 27.5888 827.726 27.9964C827.995 28.4041 828.131 28.8665 828.134 29.3835C828.131 29.9238 827.983 30.406 827.692 30.8303C827.403 31.2512 827.02 31.5246 826.543 31.6506V31.7102C826.911 31.7765 827.242 31.9339 827.537 32.1825C827.832 32.4278 828.068 32.7344 828.243 33.1023C828.419 33.4669 828.509 33.8646 828.512 34.2955C828.509 34.8456 828.359 35.3362 828.064 35.767C827.773 36.1946 827.367 36.531 826.846 36.7763C826.329 37.0182 825.731 37.1392 825.052 37.1392ZM825.052 36.0455C825.512 36.0455 825.91 35.9709 826.245 35.8217C826.58 35.6726 826.838 35.4621 827.02 35.1903C827.203 34.9186 827.296 34.6004 827.299 34.2358C827.296 33.8513 827.196 33.5116 827.001 33.2166C826.805 32.9216 826.538 32.6896 826.2 32.5206C825.865 32.3516 825.483 32.267 825.052 32.267C824.617 32.267 824.23 32.3516 823.888 32.5206C823.55 32.6896 823.283 32.9216 823.088 33.2166C822.896 33.5116 822.801 33.8513 822.805 34.2358C822.801 34.6004 822.889 34.9186 823.068 35.1903C823.25 35.4621 823.51 35.6726 823.849 35.8217C824.187 35.9709 824.588 36.0455 825.052 36.0455ZM825.052 31.2131C825.416 31.2131 825.739 31.1402 826.021 30.9943C826.306 30.8485 826.53 30.6446 826.692 30.3828C826.855 30.121 826.938 29.8144 826.941 29.4631C826.938 29.1184 826.856 28.8184 826.697 28.5632C826.538 28.3047 826.318 28.1058 826.036 27.9666C825.754 27.8241 825.426 27.7528 825.052 27.7528C824.671 27.7528 824.337 27.8241 824.052 27.9666C823.767 28.1058 823.547 28.3047 823.391 28.5632C823.235 28.8184 823.159 29.1184 823.162 29.4631C823.159 29.8144 823.237 30.121 823.396 30.3828C823.559 30.6446 823.782 30.8485 824.067 30.9943C824.352 31.1402 824.68 31.2131 825.052 31.2131ZM833.659 26.679C834.076 26.6823 834.494 26.7618 834.912 26.9176C835.329 27.0734 835.71 27.3319 836.055 27.6932C836.4 28.0511 836.676 28.54 836.885 29.1598C837.094 29.7796 837.199 30.5568 837.199 31.4915C837.199 32.3963 837.112 33.2 836.94 33.9027C836.771 34.602 836.526 35.192 836.204 35.6726C835.886 36.1532 835.498 36.5178 835.041 36.7663C834.587 37.0149 834.073 37.1392 833.5 37.1392C832.93 37.1392 832.421 37.0265 831.973 36.8011C831.529 36.5724 831.165 36.2559 830.88 35.8516C830.598 35.4439 830.417 34.9716 830.338 34.4347H831.551C831.66 34.902 831.877 35.2881 832.202 35.593C832.53 35.8946 832.963 36.0455 833.5 36.0455C834.285 36.0455 834.905 35.7024 835.359 35.0163C835.816 34.3303 836.045 33.3608 836.045 32.108H835.966C835.78 32.3864 835.56 32.6267 835.304 32.8288C835.049 33.031 834.766 33.1868 834.454 33.2962C834.143 33.4055 833.811 33.4602 833.46 33.4602C832.877 33.4602 832.341 33.3161 831.854 33.0277C831.37 32.736 830.982 32.3366 830.691 31.8295C830.402 31.3191 830.258 30.7358 830.258 30.0795C830.258 29.4564 830.397 28.8864 830.676 28.3693C830.958 27.849 831.352 27.4347 831.859 27.1264C832.369 26.8182 832.969 26.669 833.659 26.679ZM833.659 27.7727C833.241 27.7727 832.865 27.8771 832.53 28.0859C832.199 28.2914 831.935 28.5698 831.74 28.9212C831.547 29.2692 831.451 29.6553 831.451 30.0795C831.451 30.5038 831.544 30.8899 831.73 31.2379C831.919 31.5826 832.176 31.8577 832.5 32.0632C832.828 32.2654 833.201 32.3665 833.619 32.3665C833.934 32.3665 834.227 32.3052 834.499 32.1825C834.771 32.0566 835.008 31.8859 835.21 31.6705C835.415 31.4517 835.576 31.2048 835.692 30.9297C835.808 30.6513 835.866 30.3613 835.866 30.0597C835.866 29.6619 835.77 29.2891 835.578 28.9411C835.389 28.593 835.127 28.3113 834.792 28.0959C834.461 27.8804 834.083 27.7727 833.659 27.7727ZM842.057 37.1392C841.387 37.1392 840.811 37.0166 840.327 36.7713C839.843 36.526 839.47 36.1896 839.208 35.7621C838.946 35.3345 838.816 34.8456 838.816 34.2955C838.816 33.8712 838.905 33.495 839.084 33.1669C839.266 32.8355 839.517 32.5289 839.835 32.2472C840.156 31.9621 840.526 31.6771 840.943 31.392L842.415 30.2983C842.703 30.1094 842.934 29.9072 843.106 29.6918C843.282 29.4763 843.369 29.1946 843.369 28.8466C843.369 28.5881 843.255 28.3378 843.026 28.0959C842.801 27.8539 842.504 27.733 842.137 27.733C841.878 27.733 841.649 27.7992 841.45 27.9318C841.255 28.0611 841.101 28.2268 840.988 28.429C840.879 28.6278 840.824 28.8333 840.824 29.0455C840.824 29.2841 840.889 29.526 841.018 29.7713C841.151 30.0133 841.318 30.2618 841.52 30.517C841.726 30.7689 841.938 31.0275 842.156 31.2926L846.83 37H845.418L841.56 32.3466C841.202 31.9157 840.877 31.5246 840.585 31.1733C840.294 30.822 840.062 30.4756 839.889 30.1342C839.717 29.7929 839.631 29.4233 839.631 29.0256C839.631 28.5682 839.732 28.1671 839.934 27.8224C840.14 27.4744 840.426 27.2043 840.794 27.0121C841.165 26.8165 841.6 26.7188 842.097 26.7188C842.607 26.7188 843.046 26.8182 843.414 27.017C843.782 27.2126 844.066 27.4728 844.264 27.7976C844.463 28.1191 844.563 28.4688 844.563 28.8466C844.563 29.3338 844.442 29.7564 844.2 30.1143C843.958 30.4723 843.628 30.8054 843.21 31.1136L841.182 32.625C840.725 32.9631 840.415 33.2912 840.252 33.6094C840.09 33.9276 840.009 34.1562 840.009 34.2955C840.009 34.6136 840.092 34.9103 840.257 35.1854C840.423 35.4605 840.657 35.6825 840.958 35.8516C841.26 36.0206 841.613 36.1051 842.017 36.1051C842.402 36.1051 842.776 36.0239 843.141 35.8615C843.505 35.6958 843.835 35.4571 844.13 35.1456C844.428 34.834 844.664 34.4595 844.836 34.022C845.012 33.5845 845.1 33.0923 845.1 32.5455H846.233C846.233 33.2216 846.155 33.7734 845.999 34.201C845.844 34.6286 845.668 34.9633 845.472 35.2053C845.277 35.4472 845.119 35.6278 845 35.7472C844.96 35.7969 844.924 35.8466 844.891 35.8963C844.858 35.946 844.821 35.9957 844.781 36.0455C844.453 36.4134 844.039 36.6884 843.539 36.8707C843.038 37.0497 842.544 37.1392 842.057 37.1392ZM851.45 29.3636V30.358H847.492V29.3636H851.45ZM848.646 27.5341H849.819V34.8125C849.819 35.1439 849.867 35.3925 849.963 35.5582C850.063 35.7206 850.188 35.83 850.341 35.8864C850.497 35.9394 850.661 35.9659 850.833 35.9659C850.962 35.9659 851.068 35.9593 851.151 35.946C851.234 35.9295 851.3 35.9162 851.35 35.9062L851.589 36.9602C851.509 36.9901 851.398 37.0199 851.256 37.0497C851.113 37.0829 850.933 37.0994 850.714 37.0994C850.382 37.0994 850.058 37.0282 849.739 36.8857C849.424 36.7431 849.163 36.526 848.954 36.2344C848.748 35.9427 848.646 35.5748 848.646 35.1307V27.5341ZM853.692 32.0881V31.0142H859.817V32.0881H853.692ZM853.692 35.0312V33.9574H859.817V35.0312H853.692ZM865.665 26.679C866.082 26.6823 866.5 26.7618 866.917 26.9176C867.335 27.0734 867.716 27.3319 868.061 27.6932C868.406 28.0511 868.682 28.54 868.891 29.1598C869.1 29.7796 869.204 30.5568 869.204 31.4915C869.204 32.3963 869.118 33.2 868.946 33.9027C868.777 34.602 868.532 35.192 868.21 35.6726C867.892 36.1532 867.504 36.5178 867.047 36.7663C866.593 37.0149 866.079 37.1392 865.506 37.1392C864.935 37.1392 864.427 37.0265 863.979 36.8011C863.535 36.5724 863.171 36.2559 862.885 35.8516C862.604 35.4439 862.423 34.9716 862.344 34.4347H863.557C863.666 34.902 863.883 35.2881 864.208 35.593C864.536 35.8946 864.969 36.0455 865.506 36.0455C866.291 36.0455 866.911 35.7024 867.365 35.0163C867.822 34.3303 868.051 33.3608 868.051 32.108H867.971C867.786 32.3864 867.565 32.6267 867.31 32.8288C867.055 33.031 866.772 33.1868 866.46 33.2962C866.148 33.4055 865.817 33.4602 865.466 33.4602C864.882 33.4602 864.347 33.3161 863.86 33.0277C863.376 32.736 862.988 32.3366 862.697 31.8295C862.408 31.3191 862.264 30.7358 862.264 30.0795C862.264 29.4564 862.403 28.8864 862.682 28.3693C862.963 27.849 863.358 27.4347 863.865 27.1264C864.375 26.8182 864.975 26.669 865.665 26.679ZM865.665 27.7727C865.247 27.7727 864.871 27.8771 864.536 28.0859C864.205 28.2914 863.941 28.5698 863.746 28.9212C863.553 29.2692 863.457 29.6553 863.457 30.0795C863.457 30.5038 863.55 30.8899 863.736 31.2379C863.925 31.5826 864.181 31.8577 864.506 32.0632C864.834 32.2654 865.207 32.3665 865.625 32.3665C865.94 32.3665 866.233 32.3052 866.505 32.1825C866.777 32.0566 867.014 31.8859 867.216 31.6705C867.421 31.4517 867.582 31.2048 867.698 30.9297C867.814 30.6513 867.872 30.3613 867.872 30.0597C867.872 29.6619 867.776 29.2891 867.584 28.9411C867.395 28.593 867.133 28.3113 866.798 28.0959C866.467 27.8804 866.089 27.7727 865.665 27.7727ZM871.338 37V26.8182H874.898C875.607 26.8182 876.192 26.9408 876.653 27.1861C877.114 27.428 877.457 27.7545 877.682 28.1655C877.908 28.5732 878.02 29.0256 878.02 29.5227C878.02 29.9602 877.942 30.3215 877.787 30.6065C877.634 30.8916 877.432 31.117 877.18 31.2827C876.931 31.4484 876.661 31.571 876.37 31.6506V31.75C876.681 31.7699 876.994 31.8793 877.309 32.0781C877.624 32.277 877.888 32.562 878.1 32.9332C878.312 33.3045 878.418 33.7585 878.418 34.2955C878.418 34.8059 878.302 35.2649 878.07 35.6726C877.838 36.0803 877.472 36.4034 876.971 36.642C876.471 36.8807 875.819 37 875.017 37H871.338ZM872.571 35.9062H875.017C875.823 35.9062 876.395 35.7505 876.733 35.4389C877.074 35.1241 877.245 34.7429 877.245 34.2955C877.245 33.9508 877.157 33.6326 876.981 33.3409C876.806 33.0459 876.555 32.8106 876.23 32.6349C875.906 32.456 875.521 32.3665 875.077 32.3665H872.571V35.9062ZM872.571 31.2926H874.858C875.23 31.2926 875.564 31.2197 875.863 31.0739C876.164 30.928 876.403 30.7225 876.578 30.4574C876.757 30.1922 876.847 29.8807 876.847 29.5227C876.847 29.0753 876.691 28.6958 876.38 28.3842C876.068 28.0694 875.574 27.9119 874.898 27.9119H872.571V31.2926ZM880.444 37V26.8182H883.884C884.683 26.8182 885.336 26.9624 885.843 27.2507C886.353 27.5357 886.731 27.9219 886.977 28.4091C887.222 28.8963 887.344 29.4399 887.344 30.0398C887.344 30.6397 887.222 31.1849 886.977 31.6754C886.735 32.166 886.36 32.5571 885.853 32.8487C885.346 33.1371 884.696 33.2812 883.904 33.2812H881.438V32.1875H883.864C884.411 32.1875 884.85 32.093 885.182 31.9041C885.513 31.7152 885.754 31.46 885.903 31.1385C886.055 30.8137 886.131 30.4474 886.131 30.0398C886.131 29.6321 886.055 29.2675 885.903 28.946C885.754 28.6245 885.512 28.3726 885.177 28.1903C884.842 28.0047 884.398 27.9119 883.844 27.9119H881.677V37H880.444ZM891.18 37L888.396 26.8182H889.649L891.777 35.1108H891.876L894.044 26.8182H895.436L897.603 35.1108H897.703L899.831 26.8182H901.083L898.299 37H897.027L894.779 28.8864H894.7L892.453 37H891.18ZM902.62 37V26.8182H908.765V27.9119H903.853V31.3523H908.446V32.446H903.853V35.9062H908.844V37H902.62ZM914.049 26.679C914.467 26.6823 914.885 26.7618 915.302 26.9176C915.72 27.0734 916.101 27.3319 916.446 27.6932C916.79 28.0511 917.067 28.54 917.276 29.1598C917.485 29.7796 917.589 30.5568 917.589 31.4915C917.589 32.3963 917.503 33.2 917.331 33.9027C917.162 34.602 916.916 35.192 916.595 35.6726C916.277 36.1532 915.889 36.5178 915.431 36.7663C914.977 37.0149 914.464 37.1392 913.89 37.1392C913.32 37.1392 912.811 37.0265 912.364 36.8011C911.92 36.5724 911.555 36.2559 911.27 35.8516C910.989 35.4439 910.808 34.9716 910.728 34.4347H911.941C912.051 34.902 912.268 35.2881 912.593 35.593C912.921 35.8946 913.353 36.0455 913.89 36.0455C914.676 36.0455 915.296 35.7024 915.75 35.0163C916.207 34.3303 916.436 33.3608 916.436 32.108H916.356C916.171 32.3864 915.95 32.6267 915.695 32.8288C915.44 33.031 915.156 33.1868 914.845 33.2962C914.533 33.4055 914.202 33.4602 913.85 33.4602C913.267 33.4602 912.732 33.3161 912.245 33.0277C911.761 32.736 911.373 32.3366 911.081 31.8295C910.793 31.3191 910.649 30.7358 910.649 30.0795C910.649 29.4564 910.788 28.8864 911.066 28.3693C911.348 27.849 911.743 27.4347 912.25 27.1264C912.76 26.8182 913.36 26.669 914.049 26.679ZM914.049 27.7727C913.632 27.7727 913.256 27.8771 912.921 28.0859C912.589 28.2914 912.326 28.5698 912.13 28.9212C911.938 29.2692 911.842 29.6553 911.842 30.0795C911.842 30.5038 911.935 30.8899 912.12 31.2379C912.309 31.5826 912.566 31.8577 912.891 32.0632C913.219 32.2654 913.592 32.3665 914.01 32.3665C914.324 32.3665 914.618 32.3052 914.89 32.1825C915.161 32.0566 915.398 31.8859 915.6 31.6705C915.806 31.4517 915.967 31.2048 916.083 30.9297C916.199 30.6513 916.257 30.3613 916.257 30.0597C916.257 29.6619 916.161 29.2891 915.968 28.9411C915.779 28.593 915.518 28.3113 915.183 28.0959C914.851 27.8804 914.474 27.7727 914.049 27.7727ZM925.291 29.3636C925.232 28.8598 924.99 28.4688 924.566 28.1903C924.141 27.9119 923.621 27.7727 923.004 27.7727C922.554 27.7727 922.159 27.8456 921.821 27.9915C921.486 28.1373 921.225 28.3378 921.036 28.593C920.85 28.8482 920.757 29.1383 920.757 29.4631C920.757 29.7348 920.822 29.9685 920.951 30.1641C921.084 30.3563 921.253 30.517 921.458 30.6463C921.664 30.7723 921.879 30.8767 922.105 30.9595C922.33 31.0391 922.537 31.1037 922.726 31.1534L923.76 31.4318C924.025 31.5014 924.32 31.5975 924.645 31.7202C924.973 31.8428 925.286 32.0102 925.585 32.2223C925.886 32.4311 926.135 32.6996 926.33 33.0277C926.526 33.3558 926.624 33.7585 926.624 34.2358C926.624 34.786 926.48 35.2831 926.191 35.7273C925.906 36.1714 925.489 36.5244 924.938 36.7862C924.392 37.0481 923.727 37.179 922.945 37.179C922.216 37.179 921.584 37.0613 921.051 36.826C920.52 36.5907 920.103 36.2625 919.798 35.8416C919.496 35.4207 919.325 34.9318 919.286 34.375H920.558C920.592 34.7595 920.721 35.0777 920.946 35.3295C921.175 35.5781 921.463 35.7637 921.811 35.8864C922.163 36.0057 922.54 36.0653 922.945 36.0653C923.415 36.0653 923.838 35.9891 924.213 35.8366C924.587 35.6809 924.884 35.4654 925.102 35.1903C925.321 34.9119 925.431 34.5871 925.431 34.2159C925.431 33.8778 925.336 33.6027 925.147 33.3906C924.958 33.1785 924.71 33.0062 924.401 32.8736C924.093 32.741 923.76 32.625 923.402 32.5256L922.149 32.1676C921.354 31.9389 920.724 31.6125 920.26 31.1882C919.796 30.764 919.564 30.2088 919.564 29.5227C919.564 28.9527 919.718 28.4555 920.026 28.0312C920.338 27.6037 920.756 27.2723 921.279 27.0369C921.806 26.7983 922.395 26.679 923.044 26.679C923.7 26.679 924.284 26.7966 924.794 27.032C925.305 27.264 925.709 27.5821 926.007 27.9865C926.309 28.3909 926.468 28.8499 926.485 29.3636H925.291ZM935.333 26.8182H936.566V33.5597C936.566 34.2557 936.402 34.8771 936.074 35.424C935.749 35.9676 935.29 36.3968 934.696 36.7116C934.103 37.0232 933.407 37.179 932.608 37.179C931.81 37.179 931.114 37.0232 930.52 36.7116C929.927 36.3968 929.466 35.9676 929.138 35.424C928.813 34.8771 928.651 34.2557 928.651 33.5597V26.8182H929.884V33.4602C929.884 33.9574 929.993 34.3999 930.212 34.7876C930.431 35.1721 930.742 35.4754 931.147 35.6974C931.554 35.9162 932.042 36.0256 932.608 36.0256C933.175 36.0256 933.662 35.9162 934.07 35.6974C934.478 35.4754 934.789 35.1721 935.005 34.7876C935.223 34.3999 935.333 33.9574 935.333 33.4602V26.8182ZM938.869 37V29.3636H940.002V30.517H940.082C940.221 30.1392 940.473 29.8326 940.838 29.5973C941.202 29.362 941.613 29.2443 942.07 29.2443C942.157 29.2443 942.264 29.246 942.394 29.2493C942.523 29.2526 942.621 29.2576 942.687 29.2642V30.4574C942.647 30.4474 942.556 30.4325 942.414 30.4126C942.274 30.3894 942.127 30.3778 941.971 30.3778C941.6 30.3778 941.268 30.4557 940.977 30.6115C940.688 30.764 940.46 30.9761 940.291 31.2479C940.125 31.5163 940.042 31.8229 940.042 32.1676V37H938.869ZM944.078 37V29.3636H945.251V37H944.078ZM944.674 28.0909C944.446 28.0909 944.248 28.013 944.083 27.8572C943.92 27.7015 943.839 27.5142 943.839 27.2955C943.839 27.0767 943.92 26.8894 944.083 26.7337C944.248 26.5779 944.446 26.5 944.674 26.5C944.903 26.5 945.099 26.5779 945.261 26.7337C945.427 26.8894 945.51 27.0767 945.51 27.2955C945.51 27.5142 945.427 27.7015 945.261 27.8572C945.099 28.013 944.903 28.0909 944.674 28.0909ZM947.559 37V26.8182H953.704V27.9119H948.792V31.3523H953.386V32.446H948.792V35.9062H953.784V37H947.559ZM964.517 31.9091C964.517 32.983 964.323 33.911 963.936 34.6932C963.548 35.4754 963.016 36.0786 962.34 36.5028C961.664 36.9271 960.891 37.1392 960.023 37.1392C959.155 37.1392 958.382 36.9271 957.706 36.5028C957.03 36.0786 956.498 35.4754 956.11 34.6932C955.722 33.911 955.529 32.983 955.529 31.9091C955.529 30.8352 955.722 29.9072 956.11 29.125C956.498 28.3428 957.03 27.7396 957.706 27.3153C958.382 26.8911 959.155 26.679 960.023 26.679C960.891 26.679 961.664 26.8911 962.34 27.3153C963.016 27.7396 963.548 28.3428 963.936 29.125C964.323 29.9072 964.517 30.8352 964.517 31.9091ZM963.324 31.9091C963.324 31.0275 963.177 30.2834 962.882 29.6768C962.59 29.0703 962.194 28.6113 961.693 28.2997C961.196 27.9882 960.639 27.8324 960.023 27.8324C959.406 27.8324 958.848 27.9882 958.347 28.2997C957.85 28.6113 957.454 29.0703 957.159 29.6768C956.868 30.2834 956.722 31.0275 956.722 31.9091C956.722 32.7907 956.868 33.5348 957.159 34.1413C957.454 34.7479 957.85 35.2069 958.347 35.5185C958.848 35.83 959.406 35.9858 960.023 35.9858C960.639 35.9858 961.196 35.83 961.693 35.5185C962.194 35.2069 962.59 34.7479 962.882 34.1413C963.177 33.5348 963.324 32.7907 963.324 31.9091ZM972.676 29.3636L969.852 37H968.659L965.835 29.3636H967.107L969.215 35.4489H969.295L971.403 29.3636H972.676ZM978.082 33.8182H979.434L980.568 35.3097L980.866 35.7074L982.557 37.9545H981.204L980.091 36.4631L979.812 36.0852L978.082 33.8182ZM982.974 31.9091C982.974 32.983 982.78 33.911 982.393 34.6932C982.005 35.4754 981.473 36.0786 980.797 36.5028C980.121 36.9271 979.348 37.1392 978.48 37.1392C977.612 37.1392 976.839 36.9271 976.163 36.5028C975.487 36.0786 974.955 35.4754 974.567 34.6932C974.18 33.911 973.986 32.983 973.986 31.9091C973.986 30.8352 974.18 29.9072 974.567 29.125C974.955 28.3428 975.487 27.7396 976.163 27.3153C976.839 26.8911 977.612 26.679 978.48 26.679C979.348 26.679 980.121 26.8911 980.797 27.3153C981.473 27.7396 982.005 28.3428 982.393 29.125C982.78 29.9072 982.974 30.8352 982.974 31.9091ZM981.781 31.9091C981.781 31.0275 981.634 30.2834 981.339 29.6768C981.047 29.0703 980.651 28.6113 980.15 28.2997C979.653 27.9882 979.096 27.8324 978.48 27.8324C977.863 27.8324 977.305 27.9882 976.805 28.2997C976.307 28.6113 975.911 29.0703 975.616 29.6768C975.325 30.2834 975.179 31.0275 975.179 31.9091C975.179 32.7907 975.325 33.5348 975.616 34.1413C975.911 34.7479 976.307 35.2069 976.805 35.5185C977.305 35.83 977.863 35.9858 978.48 35.9858C979.096 35.9858 979.653 35.83 980.15 35.5185C980.651 35.2069 981.047 34.7479 981.339 34.1413C981.634 33.5348 981.781 32.7907 981.781 31.9091ZM984.067 27.9119V26.8182H991.703V27.9119H988.501V37H987.268V27.9119H984.067ZM996.609 37.1392C996.026 37.1392 995.5 37.0232 995.033 36.7912C994.566 36.5592 994.191 36.241 993.909 35.8366C993.628 35.4323 993.473 34.9716 993.447 34.4545H994.64C994.686 34.9152 994.895 35.2964 995.267 35.598C995.641 35.8963 996.088 36.0455 996.609 36.0455C997.026 36.0455 997.398 35.9477 997.722 35.7521C998.051 35.5566 998.307 35.2881 998.493 34.9467C998.682 34.602 998.776 34.2126 998.776 33.7784C998.776 33.3343 998.679 32.9382 998.483 32.5902C998.291 32.2389 998.026 31.9621 997.688 31.7599C997.35 31.5578 996.963 31.455 996.529 31.4517C996.218 31.4484 995.898 31.4964 995.57 31.5959C995.242 31.692 994.972 31.8163 994.759 31.9688L993.606 31.8295L994.222 26.8182H999.512V27.9119H995.257L994.899 30.9148H994.958C995.167 30.7491 995.429 30.6115 995.744 30.5021C996.059 30.3928 996.387 30.3381 996.728 30.3381C997.351 30.3381 997.906 30.4872 998.394 30.7855C998.884 31.0805 999.269 31.4848 999.547 31.9986C999.829 32.5123 999.97 33.099 999.97 33.7585C999.97 34.4081 999.824 34.9882 999.532 35.4986C999.244 36.0057 998.846 36.4067 998.339 36.7017C997.832 36.9934 997.255 37.1392 996.609 37.1392ZM1006.34 31.3622V32.456H1001.88V31.3622H1006.34ZM1011.96 26.8182V37H1010.73V28.1108H1010.67L1008.19 29.7614V28.5085L1010.73 26.8182H1011.96ZM1018.47 26.8182V37H1017.24V28.1108H1017.18L1014.69 29.7614V28.5085L1017.24 26.8182H1018.47Z" fill="#525252"/>
<path d="M1316 16C1316 11.5817 1319.58 8 1324 8H1424C1428.42 8 1432 11.5817 1432 16V48C1432 52.4183 1428.42 56 1424 56H1324C1319.58 56 1316 52.4183 1316 48V16Z" fill="#E5E5E5"/>
<path d="M1316.5 16C1316.5 11.8579 1319.86 8.5 1324 8.5H1424C1428.14 8.5 1431.5 11.8579 1431.5 16V48C1431.5 52.1421 1428.14 55.5 1424 55.5H1324C1319.86 55.5 1316.5 52.1421 1316.5 48V16Z" stroke="#555555" stroke-opacity="0.3"/>
<path d="M1358.64 38H1354.51V26.3636H1358.67C1359.84 26.3636 1360.85 26.5966 1361.69 27.0625C1362.54 27.5246 1363.19 28.1894 1363.64 29.0568C1364.1 29.9242 1364.33 30.9621 1364.33 32.1705C1364.33 33.3826 1364.1 34.4242 1363.64 35.2955C1363.19 36.1667 1362.53 36.8352 1361.68 37.3011C1360.83 37.767 1359.82 38 1358.64 38ZM1356.97 35.892H1358.53C1359.26 35.892 1359.87 35.7633 1360.37 35.5057C1360.87 35.2443 1361.24 34.8409 1361.49 34.2955C1361.75 33.7462 1361.88 33.0379 1361.88 32.1705C1361.88 31.3106 1361.75 30.608 1361.49 30.0625C1361.24 29.517 1360.87 29.1155 1360.38 28.858C1359.88 28.6004 1359.27 28.4716 1358.54 28.4716H1356.97V35.892ZM1370.05 38.1705C1369.17 38.1705 1368.4 37.983 1367.76 37.608C1367.12 37.2292 1366.63 36.7027 1366.28 36.0284C1365.93 35.3504 1365.75 34.5644 1365.75 33.6705C1365.75 32.7689 1365.93 31.9811 1366.28 31.3068C1366.63 30.6288 1367.12 30.1023 1367.76 29.7273C1368.4 29.3485 1369.17 29.1591 1370.05 29.1591C1370.93 29.1591 1371.69 29.3485 1372.33 29.7273C1372.98 30.1023 1373.47 30.6288 1373.82 31.3068C1374.17 31.9811 1374.35 32.7689 1374.35 33.6705C1374.35 34.5644 1374.17 35.3504 1373.82 36.0284C1373.47 36.7027 1372.98 37.2292 1372.33 37.608C1371.69 37.983 1370.93 38.1705 1370.05 38.1705ZM1370.06 36.2955C1370.46 36.2955 1370.8 36.1818 1371.07 35.9545C1371.34 35.7235 1371.54 35.4091 1371.67 35.0114C1371.81 34.6136 1371.88 34.161 1371.88 33.6534C1371.88 33.1458 1371.81 32.6932 1371.67 32.2955C1371.54 31.8977 1371.34 31.5833 1371.07 31.3523C1370.8 31.1212 1370.46 31.0057 1370.06 31.0057C1369.66 31.0057 1369.31 31.1212 1369.04 31.3523C1368.77 31.5833 1368.56 31.8977 1368.42 32.2955C1368.28 32.6932 1368.21 33.1458 1368.21 33.6534C1368.21 34.161 1368.28 34.6136 1368.42 35.0114C1368.56 35.4091 1368.77 35.7235 1369.04 35.9545C1369.31 36.1818 1369.66 36.2955 1370.06 36.2955ZM1378.34 32.9545V38H1375.92V29.2727H1378.23V30.8125H1378.33C1378.52 30.3049 1378.85 29.9034 1379.3 29.608C1379.75 29.3087 1380.31 29.1591 1380.95 29.1591C1381.56 29.1591 1382.09 29.2917 1382.54 29.5568C1382.99 29.822 1383.34 30.2008 1383.59 30.6932C1383.84 31.1818 1383.96 31.7652 1383.96 32.4432V38H1381.54V32.875C1381.55 32.3409 1381.41 31.9242 1381.13 31.625C1380.86 31.322 1380.48 31.1705 1379.99 31.1705C1379.67 31.1705 1379.38 31.2405 1379.13 31.3807C1378.88 31.5208 1378.69 31.7254 1378.55 31.9943C1378.41 32.2595 1378.34 32.5795 1378.34 32.9545ZM1389.85 38.1705C1388.95 38.1705 1388.18 37.9886 1387.53 37.625C1386.89 37.2576 1386.39 36.7386 1386.04 36.0682C1385.69 35.3939 1385.52 34.5966 1385.52 33.6761C1385.52 32.7784 1385.69 31.9905 1386.04 31.3125C1386.39 30.6345 1386.88 30.1061 1387.51 29.7273C1388.15 29.3485 1388.9 29.1591 1389.75 29.1591C1390.33 29.1591 1390.86 29.2519 1391.36 29.4375C1391.86 29.6193 1392.3 29.8939 1392.67 30.2614C1393.04 30.6288 1393.33 31.0909 1393.54 31.6477C1393.75 32.2008 1393.86 32.8485 1393.86 33.5909V34.2557H1386.49V32.7557H1391.58C1391.58 32.4072 1391.5 32.0985 1391.35 31.8295C1391.2 31.5606 1390.99 31.3504 1390.72 31.1989C1390.45 31.0436 1390.14 30.9659 1389.79 30.9659C1389.43 30.9659 1389.1 31.0511 1388.82 31.2216C1388.54 31.3883 1388.32 31.6136 1388.16 31.8977C1388 32.178 1387.92 32.4905 1387.91 32.8352V34.2614C1387.91 34.6932 1387.99 35.0663 1388.15 35.3807C1388.31 35.6951 1388.54 35.9375 1388.84 36.108C1389.13 36.2784 1389.48 36.3636 1389.89 36.3636C1390.16 36.3636 1390.4 36.3258 1390.63 36.25C1390.85 36.1742 1391.04 36.0606 1391.2 35.9091C1391.36 35.7576 1391.48 35.572 1391.57 35.3523L1393.8 35.5C1393.69 36.0379 1393.46 36.5076 1393.11 36.9091C1392.76 37.3068 1392.31 37.6174 1391.75 37.8409C1391.2 38.0606 1390.57 38.1705 1389.85 38.1705Z" fill="#201F1F"/>
<defs>
<filter id="filter0_d_359_9532" x="16" y="21" width="25.998" height="25.9976" filterUnits="userSpaceOnUse" color-interpolation-filters="sRGB">
<feFlood flood-opacity="0" result="BackgroundImageFix"/>
<feColorMatrix in="SourceAlpha" type="matrix" values="0 0 0 0 0 0 0 0 0 0 0 0 0 0 0 0 0 0 127 0" result="hardAlpha"/>
<feOffset dy="2"/>
<feGaussianBlur stdDeviation="2"/>
<feComposite in2="hardAlpha" operator="out"/>
<feColorMatrix type="matrix" values="0 0 0 0 0 0 0 0 0 0 0 0 0 0 0 0 0 0 0.25 0"/>
<feBlend mode="normal" in2="BackgroundImageFix" result="effect1_dropShadow_359_9532"/>
<feBlend mode="normal" in="SourceGraphic" in2="effect1_dropShadow_359_9532" result="shape"/>
</filter>
</defs>
</svg>
